<?xml version="1.0" encoding="UTF-8" standalone="no"?>
<!DOCTYPE svg PUBLIC "-//W3C//DTD SVG 1.1//EN"
 "http://www.w3.org/Graphics/SVG/1.1/DTD/svg11.dtd">
<!-- Generated by graphviz version 2.40.1 (20161225.0304)
 -->
<!-- Title: nodeset19395 Pages: 1 -->
<svg width="1637pt" height="573pt"
 viewBox="0.00 0.00 1637.00 573.00" xmlns="http://www.w3.org/2000/svg" xmlns:xlink="http://www.w3.org/1999/xlink">
<g id="graph0" class="graph" transform="scale(1 1) rotate(0) translate(4 569)">
<title>nodeset19395</title>
<polygon fill="#ffffff" stroke="transparent" points="-4,4 -4,-569 1633,-569 1633,4 -4,4"/>
<!-- 610373 -->
<g id="node1" class="node">
<title>610373</title>
<polygon fill="#ebf3ff" stroke="#6666cc" points="158,-548.5 3,-548.5 3,-463.5 158,-463.5 158,-548.5"/>
<text text-anchor="middle" x="80.5" y="-536.5" font-family="FreeSans" font-size="10.00" fill="#000000">the current patterns of</text>
<text text-anchor="middle" x="80.5" y="-525.5" font-family="FreeSans" font-size="10.00" fill="#000000">Islamic militant and</text>
<text text-anchor="middle" x="80.5" y="-514.5" font-family="FreeSans" font-size="10.00" fill="#000000">foreign&#45;fighter activity in</text>
<text text-anchor="middle" x="80.5" y="-503.5" font-family="FreeSans" font-size="10.00" fill="#000000">the southern Philippines</text>
<text text-anchor="middle" x="80.5" y="-492.5" font-family="FreeSans" font-size="10.00" fill="#000000">region are driven by shifting</text>
<text text-anchor="middle" x="80.5" y="-481.5" font-family="FreeSans" font-size="10.00" fill="#000000">trans&#45;national networks and</text>
<text text-anchor="middle" x="80.5" y="-470.5" font-family="FreeSans" font-size="10.00" fill="#000000">organisational structures</text>
</g>
<!-- 610377 -->
<g id="node2" class="node">
<title>610377</title>
<polygon fill="#ebf3ff" stroke="#6666cc" points="332.5,-548.5 176.5,-548.5 176.5,-463.5 332.5,-463.5 332.5,-548.5"/>
<text text-anchor="middle" x="254.5" y="-536.5" font-family="FreeSans" font-size="10.00" fill="#000000">the current patterns of</text>
<text text-anchor="middle" x="254.5" y="-525.5" font-family="FreeSans" font-size="10.00" fill="#000000">Islamic militant and</text>
<text text-anchor="middle" x="254.5" y="-514.5" font-family="FreeSans" font-size="10.00" fill="#000000">foreign&#45;fighter activity in</text>
<text text-anchor="middle" x="254.5" y="-503.5" font-family="FreeSans" font-size="10.00" fill="#000000">the southern Philippines</text>
<text text-anchor="middle" x="254.5" y="-492.5" font-family="FreeSans" font-size="10.00" fill="#000000">region are impacted by local</text>
<text text-anchor="middle" x="254.5" y="-481.5" font-family="FreeSans" font-size="10.00" fill="#000000">motivations, geography and</text>
<text text-anchor="middle" x="254.5" y="-470.5" font-family="FreeSans" font-size="10.00" fill="#000000">historical context</text>
</g>
<!-- 610382 -->
<g id="node3" class="node">
<title>610382</title>
<polygon fill="#ebf3ff" stroke="#6666cc" points="328,-135 173,-135 173,-83 328,-83 328,-135"/>
<text text-anchor="middle" x="250.5" y="-123" font-family="FreeSans" font-size="10.00" fill="#000000">the Southern Philippines has</text>
<text text-anchor="middle" x="250.5" y="-112" font-family="FreeSans" font-size="10.00" fill="#000000">become a focal point for</text>
<text text-anchor="middle" x="250.5" y="-101" font-family="FreeSans" font-size="10.00" fill="#000000">jihadist activity in the</text>
<text text-anchor="middle" x="250.5" y="-90" font-family="FreeSans" font-size="10.00" fill="#000000">Asia&#45;Pacific</text>
</g>
<!-- 610387 -->
<g id="node4" class="node">
<title>610387</title>
<polygon fill="#ebf3ff" stroke="#6666cc" points="155,-317 0,-317 0,-276 155,-276 155,-317"/>
<text text-anchor="middle" x="77.5" y="-305" font-family="FreeSans" font-size="10.00" fill="#000000">foreign fighters were</text>
<text text-anchor="middle" x="77.5" y="-294" font-family="FreeSans" font-size="10.00" fill="#000000">displaced from failed Middle</text>
<text text-anchor="middle" x="77.5" y="-283" font-family="FreeSans" font-size="10.00" fill="#000000">East conflict</text>
</g>
<!-- 610393 -->
<g id="node5" class="node">
<title>610393</title>
<polygon fill="#e6ffe6" stroke="#66cc66" points="250.5,-218 166.3359,-200 250.5,-182 334.6641,-200 250.5,-218"/>
<text text-anchor="middle" x="250.5" y="-197.5" font-family="FreeSans" font-size="10.00" fill="#000000">Default Inference</text>
</g>
<!-- 610387&#45;&gt;610393 -->
<g id="edge1" class="edge">
<title>610387&#45;&gt;610393</title>
<path fill="none" stroke="#000000" d="M114.6128,-275.7983C145.3414,-258.6578 188.5751,-234.5419 217.9663,-218.1474"/>
<polygon fill="#000000" stroke="#000000" points="219.9609,-221.0426 226.9891,-213.1145 216.5509,-214.9293 219.9609,-221.0426"/>
</g>
<!-- 610393&#45;&gt;610382 -->
<g id="edge3" class="edge">
<title>610393&#45;&gt;610382</title>
<path fill="none" stroke="#000000" d="M250.5,-181.5848C250.5,-171.1979 250.5,-157.8502 250.5,-145.4397"/>
<polygon fill="#000000" stroke="#000000" points="254.0001,-145.3209 250.5,-135.321 247.0001,-145.321 254.0001,-145.3209"/>
</g>
<!-- 610391 -->
<g id="node6" class="node">
<title>610391</title>
<polygon fill="#ebf3ff" stroke="#6666cc" points="328,-322.5 173,-322.5 173,-270.5 328,-270.5 328,-322.5"/>
<text text-anchor="middle" x="250.5" y="-310.5" font-family="FreeSans" font-size="10.00" fill="#000000">newly radicalised recruits</text>
<text text-anchor="middle" x="250.5" y="-299.5" font-family="FreeSans" font-size="10.00" fill="#000000">from neighbouring countries</text>
<text text-anchor="middle" x="250.5" y="-288.5" font-family="FreeSans" font-size="10.00" fill="#000000">move to the Southern</text>
<text text-anchor="middle" x="250.5" y="-277.5" font-family="FreeSans" font-size="10.00" fill="#000000">Philippines</text>
</g>
<!-- 610391&#45;&gt;610393 -->
<g id="edge2" class="edge">
<title>610391&#45;&gt;610393</title>
<path fill="none" stroke="#000000" d="M250.5,-270.3857C250.5,-257.3487 250.5,-241.559 250.5,-228.2409"/>
<polygon fill="#000000" stroke="#000000" points="254.0001,-228.1898 250.5,-218.1899 247.0001,-228.1899 254.0001,-228.1898"/>
</g>
<!-- 610398 -->
<g id="node7" class="node">
<title>610398</title>
<polygon fill="#ebf3ff" stroke="#6666cc" points="521,-339 346,-339 346,-254 521,-254 521,-339"/>
<text text-anchor="middle" x="433.5" y="-327" font-family="FreeSans" font-size="10.00" fill="#000000">since January 2000, radical</text>
<text text-anchor="middle" x="433.5" y="-316" font-family="FreeSans" font-size="10.00" fill="#000000">Islamist groups and Islamist</text>
<text text-anchor="middle" x="433.5" y="-305" font-family="FreeSans" font-size="10.00" fill="#000000">separatist forces in the</text>
<text text-anchor="middle" x="433.5" y="-294" font-family="FreeSans" font-size="10.00" fill="#000000">Philippines have carried out</text>
<text text-anchor="middle" x="433.5" y="-283" font-family="FreeSans" font-size="10.00" fill="#000000">over 40 major bombings against</text>
<text text-anchor="middle" x="433.5" y="-272" font-family="FreeSans" font-size="10.00" fill="#000000">civilians and civilian</text>
<text text-anchor="middle" x="433.5" y="-261" font-family="FreeSans" font-size="10.00" fill="#000000">property</text>
</g>
<!-- 610398&#45;&gt;610393 -->
<g id="edge4" class="edge">
<title>610398&#45;&gt;610393</title>
<path fill="none" stroke="#000000" d="M352.7008,-253.8928C328.5094,-241.1361 303.3063,-227.846 283.9809,-217.6552"/>
<polygon fill="#000000" stroke="#000000" points="285.4743,-214.486 274.9962,-212.9174 282.2092,-220.6778 285.4743,-214.486"/>
</g>
<!-- 610402 -->
<g id="node8" class="node">
<title>610402</title>
<polygon fill="#ebf3ff" stroke="#6666cc" points="516.5,-537.5 350.5,-537.5 350.5,-474.5 516.5,-474.5 516.5,-537.5"/>
<text text-anchor="middle" x="433.5" y="-525.5" font-family="FreeSans" font-size="10.00" fill="#000000">these major bombings were</text>
<text text-anchor="middle" x="433.5" y="-514.5" font-family="FreeSans" font-size="10.00" fill="#000000">mostly in the southern regions</text>
<text text-anchor="middle" x="433.5" y="-503.5" font-family="FreeSans" font-size="10.00" fill="#000000">of the country around</text>
<text text-anchor="middle" x="433.5" y="-492.5" font-family="FreeSans" font-size="10.00" fill="#000000">Mindanao, Basilan, Jolo and</text>
<text text-anchor="middle" x="433.5" y="-481.5" font-family="FreeSans" font-size="10.00" fill="#000000">other nearby islands</text>
</g>
<!-- 610405 -->
<g id="node9" class="node">
<title>610405</title>
<polygon fill="#e6ffe6" stroke="#66cc66" points="433.5,-411 349.3359,-393 433.5,-375 517.6641,-393 433.5,-411"/>
<text text-anchor="middle" x="433.5" y="-390.5" font-family="FreeSans" font-size="10.00" fill="#000000">Default Inference</text>
</g>
<!-- 610402&#45;&gt;610405 -->
<g id="edge5" class="edge">
<title>610402&#45;&gt;610405</title>
<path fill="none" stroke="#000000" d="M433.5,-474.2225C433.5,-457.6744 433.5,-437.6018 433.5,-421.5515"/>
<polygon fill="#000000" stroke="#000000" points="437.0001,-421.175 433.5,-411.175 430.0001,-421.175 437.0001,-421.175"/>
</g>
<!-- 610405&#45;&gt;610398 -->
<g id="edge6" class="edge">
<title>610405&#45;&gt;610398</title>
<path fill="none" stroke="#000000" d="M433.5,-374.8491C433.5,-367.5501 433.5,-358.7212 433.5,-349.6588"/>
<polygon fill="#000000" stroke="#000000" points="437.0001,-349.397 433.5,-339.3971 430.0001,-349.3971 437.0001,-349.397"/>
</g>
<!-- 610411 -->
<g id="node10" class="node">
<title>610411</title>
<polygon fill="#ebf3ff" stroke="#6666cc" points="704.5,-565 534.5,-565 534.5,-447 704.5,-447 704.5,-565"/>
<text text-anchor="middle" x="619.5" y="-553" font-family="FreeSans" font-size="10.00" fill="#000000">five main Islamic extremist</text>
<text text-anchor="middle" x="619.5" y="-542" font-family="FreeSans" font-size="10.00" fill="#000000">groups pledge allegiance to</text>
<text text-anchor="middle" x="619.5" y="-531" font-family="FreeSans" font-size="10.00" fill="#000000">ISIS in the Philippines,</text>
<text text-anchor="middle" x="619.5" y="-520" font-family="FreeSans" font-size="10.00" fill="#000000">including the Abu Sayyaf Group</text>
<text text-anchor="middle" x="619.5" y="-509" font-family="FreeSans" font-size="10.00" fill="#000000">(ASG), Bangsamoro Islamic</text>
<text text-anchor="middle" x="619.5" y="-498" font-family="FreeSans" font-size="10.00" fill="#000000">Freedom Fighters (BIFF), Maute</text>
<text text-anchor="middle" x="619.5" y="-487" font-family="FreeSans" font-size="10.00" fill="#000000">Group (Dawlah Islamiyah),</text>
<text text-anchor="middle" x="619.5" y="-476" font-family="FreeSans" font-size="10.00" fill="#000000">Ansar al&#45;Khilafah in the</text>
<text text-anchor="middle" x="619.5" y="-465" font-family="FreeSans" font-size="10.00" fill="#000000">Philippines (AKP) and Jemaah</text>
<text text-anchor="middle" x="619.5" y="-454" font-family="FreeSans" font-size="10.00" fill="#000000">Islamiyah (JI)</text>
</g>
<!-- 610416 -->
<g id="node11" class="node">
<title>610416</title>
<polygon fill="#ebf3ff" stroke="#6666cc" points="892.5,-543 722.5,-543 722.5,-469 892.5,-469 892.5,-543"/>
<text text-anchor="middle" x="807.5" y="-531" font-family="FreeSans" font-size="10.00" fill="#000000">all five Islamic extremist</text>
<text text-anchor="middle" x="807.5" y="-520" font-family="FreeSans" font-size="10.00" fill="#000000">groups have conducted violent</text>
<text text-anchor="middle" x="807.5" y="-509" font-family="FreeSans" font-size="10.00" fill="#000000">terrorism related activity in</text>
<text text-anchor="middle" x="807.5" y="-498" font-family="FreeSans" font-size="10.00" fill="#000000">the last ten years with</text>
<text text-anchor="middle" x="807.5" y="-487" font-family="FreeSans" font-size="10.00" fill="#000000">varying degrees of success and</text>
<text text-anchor="middle" x="807.5" y="-476" font-family="FreeSans" font-size="10.00" fill="#000000">proven capability</text>
</g>
<!-- 610421 -->
<g id="node12" class="node">
<title>610421</title>
<polygon fill="#ebf3ff" stroke="#6666cc" points="1077.5,-333.5 917.5,-333.5 917.5,-259.5 1077.5,-259.5 1077.5,-333.5"/>
<text text-anchor="middle" x="997.5" y="-321.5" font-family="FreeSans" font-size="10.00" fill="#000000">Abu Sayyaf Group (ASG) are</text>
<text text-anchor="middle" x="997.5" y="-310.5" font-family="FreeSans" font-size="10.00" fill="#000000">currently the most active,</text>
<text text-anchor="middle" x="997.5" y="-299.5" font-family="FreeSans" font-size="10.00" fill="#000000">capable and expanding ISIS</text>
<text text-anchor="middle" x="997.5" y="-288.5" font-family="FreeSans" font-size="10.00" fill="#000000">affiliate group in the area of</text>
<text text-anchor="middle" x="997.5" y="-277.5" font-family="FreeSans" font-size="10.00" fill="#000000">Mindanao Island and the Sulu</text>
<text text-anchor="middle" x="997.5" y="-266.5" font-family="FreeSans" font-size="10.00" fill="#000000">Archipelago</text>
</g>
<!-- 610426 -->
<g id="node13" class="node">
<title>610426</title>
<polygon fill="#ebf3ff" stroke="#6666cc" points="1084,-532 911,-532 911,-480 1084,-480 1084,-532"/>
<text text-anchor="middle" x="997.5" y="-520" font-family="FreeSans" font-size="10.00" fill="#000000">an attack on a Christian</text>
<text text-anchor="middle" x="997.5" y="-509" font-family="FreeSans" font-size="10.00" fill="#000000">church in Jolo, Sulu being</text>
<text text-anchor="middle" x="997.5" y="-498" font-family="FreeSans" font-size="10.00" fill="#000000">attributed to the Abu Sayyaf</text>
<text text-anchor="middle" x="997.5" y="-487" font-family="FreeSans" font-size="10.00" fill="#000000">Group (ASG) on 27 January 2019</text>
</g>
<!-- 610428 -->
<g id="node14" class="node">
<title>610428</title>
<polygon fill="#e6ffe6" stroke="#66cc66" points="997.5,-411 913.3359,-393 997.5,-375 1081.6641,-393 997.5,-411"/>
<text text-anchor="middle" x="997.5" y="-390.5" font-family="FreeSans" font-size="10.00" fill="#000000">Default Inference</text>
</g>
<!-- 610426&#45;&gt;610428 -->
<g id="edge7" class="edge">
<title>610426&#45;&gt;610428</title>
<path fill="none" stroke="#000000" d="M997.5,-479.7915C997.5,-462.3241 997.5,-439.3725 997.5,-421.459"/>
<polygon fill="#000000" stroke="#000000" points="1001.0001,-421.3124 997.5,-411.3124 994.0001,-421.3125 1001.0001,-421.3124"/>
</g>
<!-- 610428&#45;&gt;610421 -->
<g id="edge8" class="edge">
<title>610428&#45;&gt;610421</title>
<path fill="none" stroke="#000000" d="M997.5,-374.8491C997.5,-365.9873 997.5,-354.8701 997.5,-343.8182"/>
<polygon fill="#000000" stroke="#000000" points="1001.0001,-343.7533 997.5,-333.7533 994.0001,-343.7534 1001.0001,-343.7533"/>
</g>
<!-- 610433 -->
<g id="node15" class="node">
<title>610433</title>
<polygon fill="#ebf3ff" stroke="#6666cc" points="1446,-554 1293,-554 1293,-458 1446,-458 1446,-554"/>
<text text-anchor="middle" x="1369.5" y="-542" font-family="FreeSans" font-size="10.00" fill="#000000">the photos found on Target</text>
<text text-anchor="middle" x="1369.5" y="-531" font-family="FreeSans" font-size="10.00" fill="#000000">A&#39;s (Muhamad Sadili Nazrin</text>
<text text-anchor="middle" x="1369.5" y="-520" font-family="FreeSans" font-size="10.00" fill="#000000">bin AIZAD) phone are</text>
<text text-anchor="middle" x="1369.5" y="-509" font-family="FreeSans" font-size="10.00" fill="#000000">consistent with one of the</text>
<text text-anchor="middle" x="1369.5" y="-498" font-family="FreeSans" font-size="10.00" fill="#000000">known migration routes for</text>
<text text-anchor="middle" x="1369.5" y="-487" font-family="FreeSans" font-size="10.00" fill="#000000">foreign fighters into the</text>
<text text-anchor="middle" x="1369.5" y="-476" font-family="FreeSans" font-size="10.00" fill="#000000">Philippines through the Sulu</text>
<text text-anchor="middle" x="1369.5" y="-465" font-family="FreeSans" font-size="10.00" fill="#000000">Archipelago</text>
</g>
<!-- 610447 -->
<g id="node16" class="node">
<title>610447</title>
<polygon fill="#e6ffe6" stroke="#66cc66" points="1183.5,-411 1099.3359,-393 1183.5,-375 1267.6641,-393 1183.5,-411"/>
<text text-anchor="middle" x="1183.5" y="-390.5" font-family="FreeSans" font-size="10.00" fill="#000000">Default Inference</text>
</g>
<!-- 610433&#45;&gt;610447 -->
<g id="edge9" class="edge">
<title>610433&#45;&gt;610447</title>
<path fill="none" stroke="#000000" d="M1292.7728,-459.3862C1265.2786,-442.6827 1235.8259,-424.7894 1214.4339,-411.7932"/>
<polygon fill="#000000" stroke="#000000" points="1216.1524,-408.7419 1205.7887,-406.541 1212.5178,-414.7244 1216.1524,-408.7419"/>
</g>
<!-- 610454 -->
<g id="node17" class="node">
<title>610454</title>
<polygon fill="#eeeeee" stroke="#cccccc" points="1369.5,-411 1285.3359,-393 1369.5,-375 1453.6641,-393 1369.5,-411"/>
<text text-anchor="middle" x="1369.5" y="-390.5" font-family="FreeSans" font-size="10.00" fill="#000000">Default Rephrase</text>
</g>
<!-- 610433&#45;&gt;610454 -->
<g id="edge10" class="edge">
<title>610433&#45;&gt;610454</title>
<path fill="none" stroke="#000000" d="M1362.8144,-457.7501C1362.6116,-444.8398 1362.8878,-431.3423 1363.6431,-420.0324"/>
<polygon fill="#000000" stroke="#000000" points="1367.1404,-420.2138 1364.5139,-409.9497 1360.1663,-419.6114 1367.1404,-420.2138"/>
</g>
<!-- 610438 -->
<g id="node18" class="node">
<title>610438</title>
<polygon fill="#ebf3ff" stroke="#6666cc" points="1271.5,-333.5 1095.5,-333.5 1095.5,-259.5 1271.5,-259.5 1271.5,-333.5"/>
<text text-anchor="middle" x="1183.5" y="-321.5" font-family="FreeSans" font-size="10.00" fill="#000000">it is highly likely Target A</text>
<text text-anchor="middle" x="1183.5" y="-310.5" font-family="FreeSans" font-size="10.00" fill="#000000">is connected to ASG or was</text>
<text text-anchor="middle" x="1183.5" y="-299.5" font-family="FreeSans" font-size="10.00" fill="#000000">attempting to make connections</text>
<text text-anchor="middle" x="1183.5" y="-288.5" font-family="FreeSans" font-size="10.00" fill="#000000">with ASG in the Mindanao</text>
<text text-anchor="middle" x="1183.5" y="-277.5" font-family="FreeSans" font-size="10.00" fill="#000000">Island area at the time of his</text>
<text text-anchor="middle" x="1183.5" y="-266.5" font-family="FreeSans" font-size="10.00" fill="#000000">arrest</text>
</g>
<!-- 610447&#45;&gt;610438 -->
<g id="edge15" class="edge">
<title>610447&#45;&gt;610438</title>
<path fill="none" stroke="#000000" d="M1183.5,-374.8491C1183.5,-365.9873 1183.5,-354.8701 1183.5,-343.8182"/>
<polygon fill="#000000" stroke="#000000" points="1187.0001,-343.7533 1183.5,-333.7533 1180.0001,-343.7534 1187.0001,-343.7533"/>
</g>
<!-- 610454&#45;&gt;610433 -->
<g id="edge16" class="edge">
<title>610454&#45;&gt;610433</title>
<path fill="none" stroke="#000000" d="M1374.4861,-409.9497C1375.6131,-420.1735 1376.2001,-433.8639 1376.2469,-447.6984"/>
<polygon fill="#000000" stroke="#000000" points="1372.7468,-447.7289 1376.1856,-457.7501 1379.7467,-447.7716 1372.7468,-447.7289"/>
</g>
<!-- 610444 -->
<g id="node19" class="node">
<title>610444</title>
<polygon fill="#ffe6e6" stroke="#cc6666" points="1127.5,-218 1050.8208,-200 1127.5,-182 1204.1792,-200 1127.5,-218"/>
<text text-anchor="middle" x="1127.5" y="-197.5" font-family="FreeSans" font-size="10.00" fill="#000000">Default Conflict</text>
</g>
<!-- 610438&#45;&gt;610444 -->
<g id="edge11" class="edge">
<title>610438&#45;&gt;610444</title>
<path fill="none" stroke="#000000" d="M1162.0091,-259.4666C1155.2339,-247.7915 1147.9205,-235.1889 1141.7777,-224.6035"/>
<polygon fill="#000000" stroke="#000000" points="1144.7702,-222.7869 1136.7237,-215.8945 1138.7158,-226.3004 1144.7702,-222.7869"/>
</g>
<!-- 610441 -->
<g id="node20" class="node">
<title>610441</title>
<polygon fill="#ebf3ff" stroke="#6666cc" points="1210.5,-146 1034.5,-146 1034.5,-72 1210.5,-72 1210.5,-146"/>
<text text-anchor="middle" x="1122.5" y="-134" font-family="FreeSans" font-size="10.00" fill="#000000">it is highly unlikely Target A</text>
<text text-anchor="middle" x="1122.5" y="-123" font-family="FreeSans" font-size="10.00" fill="#000000">is connected to ASG or was</text>
<text text-anchor="middle" x="1122.5" y="-112" font-family="FreeSans" font-size="10.00" fill="#000000">attempting to make connections</text>
<text text-anchor="middle" x="1122.5" y="-101" font-family="FreeSans" font-size="10.00" fill="#000000">with ASG in the Mindanao</text>
<text text-anchor="middle" x="1122.5" y="-90" font-family="FreeSans" font-size="10.00" fill="#000000">Island area at the time of his</text>
<text text-anchor="middle" x="1122.5" y="-79" font-family="FreeSans" font-size="10.00" fill="#000000">arrest</text>
</g>
<!-- 610444&#45;&gt;610441 -->
<g id="edge14" class="edge">
<title>610444&#45;&gt;610441</title>
<path fill="none" stroke="#000000" d="M1126.5122,-182.0213C1126.1027,-174.5698 1125.6066,-165.5409 1125.1049,-156.4092"/>
<polygon fill="#000000" stroke="#000000" points="1128.5838,-155.9271 1124.5403,-146.1342 1121.5943,-156.3112 1128.5838,-155.9271"/>
</g>
<!-- 610443 -->
<g id="node21" class="node">
<title>610443</title>
<polygon fill="#ffe6e6" stroke="#cc6666" points="1180.5,-36 1103.8208,-18 1180.5,0 1257.1792,-18 1180.5,-36"/>
<text text-anchor="middle" x="1180.5" y="-15.5" font-family="FreeSans" font-size="10.00" fill="#000000">Default Conflict</text>
</g>
<!-- 610441&#45;&gt;610443 -->
<g id="edge12" class="edge">
<title>610441&#45;&gt;610443</title>
<path fill="none" stroke="#000000" d="M1146.0908,-71.9868C1152.3947,-62.0963 1159.0521,-51.651 1164.8139,-42.6109"/>
<polygon fill="#000000" stroke="#000000" points="1167.8076,-44.4258 1170.231,-34.1118 1161.9047,-40.6634 1167.8076,-44.4258"/>
</g>
<!-- 610443&#45;&gt;610438 -->
<g id="edge13" class="edge">
<title>610443&#45;&gt;610438</title>
<path fill="none" stroke="#000000" d="M1194.9846,-32.6076C1203.9567,-42.7304 1214.6611,-57.0353 1219.5,-72 1238.7752,-131.6101 1220.3137,-203.5958 1203.4978,-249.7008"/>
<polygon fill="#000000" stroke="#000000" points="1200.1948,-248.5405 1199.9486,-259.1325 1206.7463,-251.0059 1200.1948,-248.5405"/>
</g>
<!-- 610451 -->
<g id="node22" class="node">
<title>610451</title>
<polygon fill="#ebf3ff" stroke="#6666cc" points="1629,-554 1464,-554 1464,-458 1629,-458 1629,-554"/>
<text text-anchor="middle" x="1546.5" y="-542" font-family="FreeSans" font-size="10.00" fill="#000000">it is unable to be determined</text>
<text text-anchor="middle" x="1546.5" y="-531" font-family="FreeSans" font-size="10.00" fill="#000000">whether Target B (Fadhlan</text>
<text text-anchor="middle" x="1546.5" y="-520" font-family="FreeSans" font-size="10.00" fill="#000000">MANGUNSONG) is currently</text>
<text text-anchor="middle" x="1546.5" y="-509" font-family="FreeSans" font-size="10.00" fill="#000000">connected to ASG (Abu Sayyef</text>
<text text-anchor="middle" x="1546.5" y="-498" font-family="FreeSans" font-size="10.00" fill="#000000">Group) or was attempting to</text>
<text text-anchor="middle" x="1546.5" y="-487" font-family="FreeSans" font-size="10.00" fill="#000000">make connections with ASG in</text>
<text text-anchor="middle" x="1546.5" y="-476" font-family="FreeSans" font-size="10.00" fill="#000000">the Mindanao Island area at</text>
<text text-anchor="middle" x="1546.5" y="-465" font-family="FreeSans" font-size="10.00" fill="#000000">the time of his arrest</text>
</g>
</g>
</svg>
