<?xml version="1.0" encoding="UTF-8" standalone="no"?>
<!DOCTYPE svg PUBLIC "-//W3C//DTD SVG 1.1//EN"
 "http://www.w3.org/Graphics/SVG/1.1/DTD/svg11.dtd">
<!-- Generated by graphviz version 2.40.1 (20161225.0304)
 -->
<!-- Title: nodeset19394 Pages: 1 -->
<svg width="3237pt" height="529pt"
 viewBox="0.00 0.00 3236.50 529.00" xmlns="http://www.w3.org/2000/svg" xmlns:xlink="http://www.w3.org/1999/xlink">
<g id="graph0" class="graph" transform="scale(1 1) rotate(0) translate(4 525)">
<title>nodeset19394</title>
<polygon fill="#ffffff" stroke="transparent" points="-4,4 -4,-525 3232.5,-525 3232.5,4 -4,4"/>
<!-- 610233 -->
<g id="node1" class="node">
<title>610233</title>
<polygon fill="#ebf3ff" stroke="#6666cc" points="171,-521 0,-521 0,-425 171,-425 171,-521"/>
<text text-anchor="middle" x="85.5" y="-509" font-family="FreeSans" font-size="10.00" fill="#000000">Muhamad Sadili Nazrin bin</text>
<text text-anchor="middle" x="85.5" y="-498" font-family="FreeSans" font-size="10.00" fill="#000000">AIZAD (AIZAD), a suspected</text>
<text text-anchor="middle" x="85.5" y="-487" font-family="FreeSans" font-size="10.00" fill="#000000">Malaysian national, was</text>
<text text-anchor="middle" x="85.5" y="-476" font-family="FreeSans" font-size="10.00" fill="#000000">arrested by Philippine</text>
<text text-anchor="middle" x="85.5" y="-465" font-family="FreeSans" font-size="10.00" fill="#000000">authorities on an unknown date</text>
<text text-anchor="middle" x="85.5" y="-454" font-family="FreeSans" font-size="10.00" fill="#000000">in a coastal area north&#45;west</text>
<text text-anchor="middle" x="85.5" y="-443" font-family="FreeSans" font-size="10.00" fill="#000000">of Marawi City, Mindanao,</text>
<text text-anchor="middle" x="85.5" y="-432" font-family="FreeSans" font-size="10.00" fill="#000000">Philippines</text>
</g>
<!-- 610237 -->
<g id="node2" class="node">
<title>610237</title>
<polygon fill="#ebf3ff" stroke="#6666cc" points="340,-493.5 189,-493.5 189,-452.5 340,-452.5 340,-493.5"/>
<text text-anchor="middle" x="264.5" y="-481.5" font-family="FreeSans" font-size="10.00" fill="#000000">Muhamad Sadili Nazrin bin</text>
<text text-anchor="middle" x="264.5" y="-470.5" font-family="FreeSans" font-size="10.00" fill="#000000">AIZAD is also referred to as</text>
<text text-anchor="middle" x="264.5" y="-459.5" font-family="FreeSans" font-size="10.00" fill="#000000">Target A</text>
</g>
<!-- 610242 -->
<g id="node3" class="node">
<title>610242</title>
<polygon fill="#ebf3ff" stroke="#6666cc" points="523,-504.5 358,-504.5 358,-441.5 523,-441.5 523,-504.5"/>
<text text-anchor="middle" x="440.5" y="-492.5" font-family="FreeSans" font-size="10.00" fill="#000000">Human Intelligence (HUMINT)</text>
<text text-anchor="middle" x="440.5" y="-481.5" font-family="FreeSans" font-size="10.00" fill="#000000">states Muhamad Sadili Nazrin</text>
<text text-anchor="middle" x="440.5" y="-470.5" font-family="FreeSans" font-size="10.00" fill="#000000">bin AIZAD has ties to militant</text>
<text text-anchor="middle" x="440.5" y="-459.5" font-family="FreeSans" font-size="10.00" fill="#000000">Islamic groups in Minanoa and</text>
<text text-anchor="middle" x="440.5" y="-448.5" font-family="FreeSans" font-size="10.00" fill="#000000">the broader region</text>
</g>
<!-- 610247 -->
<g id="node4" class="node">
<title>610247</title>
<polygon fill="#ebf3ff" stroke="#6666cc" points="798.5,-295 628.5,-295 628.5,-254 798.5,-254 798.5,-295"/>
<text text-anchor="middle" x="713.5" y="-283" font-family="FreeSans" font-size="10.00" fill="#000000">Philippine authorities suspect</text>
<text text-anchor="middle" x="713.5" y="-272" font-family="FreeSans" font-size="10.00" fill="#000000">that Muhamad Sadili Nazrin bin</text>
<text text-anchor="middle" x="713.5" y="-261" font-family="FreeSans" font-size="10.00" fill="#000000">AIZAD is a foreign fighter</text>
</g>
<!-- 610253 -->
<g id="node5" class="node">
<title>610253</title>
<polygon fill="#ffe6e6" stroke="#cc6666" points="660.5,-196 583.8208,-178 660.5,-160 737.1792,-178 660.5,-196"/>
<text text-anchor="middle" x="660.5" y="-175.5" font-family="FreeSans" font-size="10.00" fill="#000000">Default Conflict</text>
</g>
<!-- 610247&#45;&gt;610253 -->
<g id="edge1" class="edge">
<title>610247&#45;&gt;610253</title>
<path fill="none" stroke="#000000" d="M701.9998,-253.5609C693.8815,-238.7795 682.9628,-218.8992 674.3627,-203.2405"/>
<polygon fill="#000000" stroke="#000000" points="677.2351,-201.1998 669.3533,-194.1197 671.0995,-204.5696 677.2351,-201.1998"/>
</g>
<!-- 610250 -->
<g id="node6" class="node">
<title>610250</title>
<polygon fill="#ebf3ff" stroke="#6666cc" points="738.5,-124 580.5,-124 580.5,-72 738.5,-72 738.5,-124"/>
<text text-anchor="middle" x="659.5" y="-112" font-family="FreeSans" font-size="10.00" fill="#000000">Philippine authorities do not</text>
<text text-anchor="middle" x="659.5" y="-101" font-family="FreeSans" font-size="10.00" fill="#000000">suspect that Muhamad Sadili</text>
<text text-anchor="middle" x="659.5" y="-90" font-family="FreeSans" font-size="10.00" fill="#000000">Nazrin bin AIZAD is a foreign</text>
<text text-anchor="middle" x="659.5" y="-79" font-family="FreeSans" font-size="10.00" fill="#000000">fighter</text>
</g>
<!-- 610253&#45;&gt;610250 -->
<g id="edge4" class="edge">
<title>610253&#45;&gt;610250</title>
<path fill="none" stroke="#000000" d="M660.2731,-159.8468C660.1787,-152.2921 660.0655,-143.2376 659.9552,-134.4174"/>
<polygon fill="#000000" stroke="#000000" points="663.4532,-134.2301 659.8284,-124.2746 656.4538,-134.3176 663.4532,-134.2301"/>
</g>
<!-- 610252 -->
<g id="node7" class="node">
<title>610252</title>
<polygon fill="#ffe6e6" stroke="#cc6666" points="713.5,-36 636.8208,-18 713.5,0 790.1792,-18 713.5,-36"/>
<text text-anchor="middle" x="713.5" y="-15.5" font-family="FreeSans" font-size="10.00" fill="#000000">Default Conflict</text>
</g>
<!-- 610250&#45;&gt;610252 -->
<g id="edge2" class="edge">
<title>610250&#45;&gt;610252</title>
<path fill="none" stroke="#000000" d="M677.1816,-71.805C683.6151,-62.2739 690.8531,-51.551 697.1647,-42.2005"/>
<polygon fill="#000000" stroke="#000000" points="700.1819,-43.9865 702.8756,-33.7398 694.3799,-40.0701 700.1819,-43.9865"/>
</g>
<!-- 610252&#45;&gt;610247 -->
<g id="edge3" class="edge">
<title>610252&#45;&gt;610247</title>
<path fill="none" stroke="#000000" d="M726.501,-33.385C734.2611,-43.6102 743.3837,-57.7369 747.5,-72 762.7816,-124.9519 757.7688,-142.0515 746.5,-196 743.0124,-212.6964 735.9656,-230.2878 729.2761,-244.5761"/>
<polygon fill="#000000" stroke="#000000" points="725.9734,-243.3648 724.7502,-253.8888 732.2693,-246.4246 725.9734,-243.3648"/>
</g>
<!-- 610256 -->
<g id="node8" class="node">
<title>610256</title>
<polygon fill="#ebf3ff" stroke="#6666cc" points="1074,-510 909,-510 909,-436 1074,-436 1074,-510"/>
<text text-anchor="middle" x="991.5" y="-498" font-family="FreeSans" font-size="10.00" fill="#000000">at the time of his arrest,</text>
<text text-anchor="middle" x="991.5" y="-487" font-family="FreeSans" font-size="10.00" fill="#000000">Muhamad Sadili Nazrin bin</text>
<text text-anchor="middle" x="991.5" y="-476" font-family="FreeSans" font-size="10.00" fill="#000000">AIZAD was staying at a</text>
<text text-anchor="middle" x="991.5" y="-465" font-family="FreeSans" font-size="10.00" fill="#000000">low&#45;cost resort near Dakak</text>
<text text-anchor="middle" x="991.5" y="-454" font-family="FreeSans" font-size="10.00" fill="#000000">Beach on the coast north&#45;west</text>
<text text-anchor="middle" x="991.5" y="-443" font-family="FreeSans" font-size="10.00" fill="#000000">of Marawi City</text>
</g>
<!-- 610261 -->
<g id="node9" class="node">
<title>610261</title>
<polygon fill="#ebf3ff" stroke="#6666cc" points="700,-499 541,-499 541,-447 700,-447 700,-499"/>
<text text-anchor="middle" x="620.5" y="-487" font-family="FreeSans" font-size="10.00" fill="#000000">a search of Muhamad Sadili</text>
<text text-anchor="middle" x="620.5" y="-476" font-family="FreeSans" font-size="10.00" fill="#000000">Nazrin bin AIZAD&#39;s room</text>
<text text-anchor="middle" x="620.5" y="-465" font-family="FreeSans" font-size="10.00" fill="#000000">located an AK&#45;47 assault rifle</text>
<text text-anchor="middle" x="620.5" y="-454" font-family="FreeSans" font-size="10.00" fill="#000000">and hand grenades</text>
</g>
<!-- 610263 -->
<g id="node10" class="node">
<title>610263</title>
<polygon fill="#e6ffe6" stroke="#66cc66" points="620.5,-389 536.3359,-371 620.5,-353 704.6641,-371 620.5,-389"/>
<text text-anchor="middle" x="620.5" y="-368.5" font-family="FreeSans" font-size="10.00" fill="#000000">Default Inference</text>
</g>
<!-- 610261&#45;&gt;610263 -->
<g id="edge5" class="edge">
<title>610261&#45;&gt;610263</title>
<path fill="none" stroke="#000000" d="M620.5,-446.9972C620.5,-432.4636 620.5,-414.3317 620.5,-399.4241"/>
<polygon fill="#000000" stroke="#000000" points="624.0001,-399.2364 620.5,-389.2365 617.0001,-399.2365 624.0001,-399.2364"/>
</g>
<!-- 610263&#45;&gt;610247 -->
<g id="edge6" class="edge">
<title>610263&#45;&gt;610247</title>
<path fill="none" stroke="#000000" d="M635.0313,-355.9219C648.6761,-341.7635 669.4391,-320.2191 686.1803,-302.8479"/>
<polygon fill="#000000" stroke="#000000" points="689.13,-304.8309 693.5492,-295.2017 684.0897,-299.9734 689.13,-304.8309"/>
</g>
<!-- 610268 -->
<g id="node11" class="node">
<title>610268</title>
<polygon fill="#ebf3ff" stroke="#6666cc" points="891,-510 722,-510 722,-436 891,-436 891,-510"/>
<text text-anchor="middle" x="806.5" y="-498" font-family="FreeSans" font-size="10.00" fill="#000000">also located in Muhamad Sadili</text>
<text text-anchor="middle" x="806.5" y="-487" font-family="FreeSans" font-size="10.00" fill="#000000">Nazrin bin AZAID&#39;s room were</text>
<text text-anchor="middle" x="806.5" y="-476" font-family="FreeSans" font-size="10.00" fill="#000000">pamphlets on Islamic practice,</text>
<text text-anchor="middle" x="806.5" y="-465" font-family="FreeSans" font-size="10.00" fill="#000000">rituals and ethics, and</text>
<text text-anchor="middle" x="806.5" y="-454" font-family="FreeSans" font-size="10.00" fill="#000000">extremist paraphernalia on the</text>
<text text-anchor="middle" x="806.5" y="-443" font-family="FreeSans" font-size="10.00" fill="#000000">merits of martyrdom</text>
</g>
<!-- 610270 -->
<g id="node12" class="node">
<title>610270</title>
<polygon fill="#e6ffe6" stroke="#66cc66" points="806.5,-389 722.3359,-371 806.5,-353 890.6641,-371 806.5,-389"/>
<text text-anchor="middle" x="806.5" y="-368.5" font-family="FreeSans" font-size="10.00" fill="#000000">Default Inference</text>
</g>
<!-- 610268&#45;&gt;610270 -->
<g id="edge7" class="edge">
<title>610268&#45;&gt;610270</title>
<path fill="none" stroke="#000000" d="M806.5,-435.8871C806.5,-423.8006 806.5,-410.5876 806.5,-399.2578"/>
<polygon fill="#000000" stroke="#000000" points="810.0001,-399.0703 806.5,-389.0704 803.0001,-399.0704 810.0001,-399.0703"/>
</g>
<!-- 610270&#45;&gt;610247 -->
<g id="edge8" class="edge">
<title>610270&#45;&gt;610247</title>
<path fill="none" stroke="#000000" d="M791.9688,-355.9219C778.3239,-341.7635 757.5609,-320.2191 740.8197,-302.8479"/>
<polygon fill="#000000" stroke="#000000" points="742.9103,-299.9734 733.4508,-295.2017 737.87,-304.8309 742.9103,-299.9734"/>
</g>
<!-- 610275 -->
<g id="node13" class="node">
<title>610275</title>
<polygon fill="#ebf3ff" stroke="#6666cc" points="1254.5,-306 1102.5,-306 1102.5,-243 1254.5,-243 1254.5,-306"/>
<text text-anchor="middle" x="1178.5" y="-294" font-family="FreeSans" font-size="10.00" fill="#000000">it is highly likely Muhamad</text>
<text text-anchor="middle" x="1178.5" y="-283" font-family="FreeSans" font-size="10.00" fill="#000000">Sadili Nazrin bin AIZAD was</text>
<text text-anchor="middle" x="1178.5" y="-272" font-family="FreeSans" font-size="10.00" fill="#000000">alerted to his impending</text>
<text text-anchor="middle" x="1178.5" y="-261" font-family="FreeSans" font-size="10.00" fill="#000000">arrest minutes prior to</text>
<text text-anchor="middle" x="1178.5" y="-250" font-family="FreeSans" font-size="10.00" fill="#000000">apprehension</text>
</g>
<!-- 610279 -->
<g id="node14" class="node">
<title>610279</title>
<polygon fill="#ffe6e6" stroke="#cc6666" points="1129.5,-196 1052.8208,-178 1129.5,-160 1206.1792,-178 1129.5,-196"/>
<text text-anchor="middle" x="1129.5" y="-175.5" font-family="FreeSans" font-size="10.00" fill="#000000">Default Conflict</text>
</g>
<!-- 610275&#45;&gt;610279 -->
<g id="edge9" class="edge">
<title>610275&#45;&gt;610279</title>
<path fill="none" stroke="#000000" d="M1162.4556,-242.9023C1155.9366,-230.0639 1148.5073,-215.4327 1142.3547,-203.3159"/>
<polygon fill="#000000" stroke="#000000" points="1145.3843,-201.5517 1137.736,-194.2199 1139.1428,-204.721 1145.3843,-201.5517"/>
</g>
<!-- 610277 -->
<g id="node15" class="node">
<title>610277</title>
<polygon fill="#ebf3ff" stroke="#6666cc" points="1206.5,-124 1042.5,-124 1042.5,-72 1206.5,-72 1206.5,-124"/>
<text text-anchor="middle" x="1124.5" y="-112" font-family="FreeSans" font-size="10.00" fill="#000000">it is unlikely Muhamad Sadili</text>
<text text-anchor="middle" x="1124.5" y="-101" font-family="FreeSans" font-size="10.00" fill="#000000">Nazrin bin AIZAD was alerted</text>
<text text-anchor="middle" x="1124.5" y="-90" font-family="FreeSans" font-size="10.00" fill="#000000">to his impending arrest</text>
<text text-anchor="middle" x="1124.5" y="-79" font-family="FreeSans" font-size="10.00" fill="#000000">minutes prior to apprehension</text>
</g>
<!-- 610279&#45;&gt;610277 -->
<g id="edge12" class="edge">
<title>610279&#45;&gt;610277</title>
<path fill="none" stroke="#000000" d="M1128.3903,-160.2454C1127.9096,-152.5529 1127.3282,-143.251 1126.7631,-134.2098"/>
<polygon fill="#000000" stroke="#000000" points="1130.2553,-133.9745 1126.1383,-124.2123 1123.269,-134.4112 1130.2553,-133.9745"/>
</g>
<!-- 610278 -->
<g id="node16" class="node">
<title>610278</title>
<polygon fill="#ffe6e6" stroke="#cc6666" points="1179.5,-36 1102.8208,-18 1179.5,0 1256.1792,-18 1179.5,-36"/>
<text text-anchor="middle" x="1179.5" y="-15.5" font-family="FreeSans" font-size="10.00" fill="#000000">Default Conflict</text>
</g>
<!-- 610277&#45;&gt;610278 -->
<g id="edge10" class="edge">
<title>610277&#45;&gt;610278</title>
<path fill="none" stroke="#000000" d="M1142.5091,-71.805C1149.0617,-62.2739 1156.4337,-51.551 1162.8622,-42.2005"/>
<polygon fill="#000000" stroke="#000000" points="1165.8977,-43.9631 1168.6789,-33.7398 1160.1294,-39.9974 1165.8977,-43.9631"/>
</g>
<!-- 610278&#45;&gt;610275 -->
<g id="edge11" class="edge">
<title>610278&#45;&gt;610275</title>
<path fill="none" stroke="#000000" d="M1193.2543,-33.2574C1201.4663,-43.4317 1211.1248,-57.5496 1215.5,-72 1231.4703,-124.7464 1227.5391,-142.22 1215.5,-196 1212.6433,-208.7614 1207.4703,-221.8932 1201.8802,-233.6773"/>
<polygon fill="#000000" stroke="#000000" points="1198.6597,-232.2934 1197.3439,-242.8062 1204.9284,-235.4085 1198.6597,-232.2934"/>
</g>
<!-- 610283 -->
<g id="node17" class="node">
<title>610283</title>
<polygon fill="#ebf3ff" stroke="#6666cc" points="1265,-493.5 1092,-493.5 1092,-452.5 1265,-452.5 1265,-493.5"/>
<text text-anchor="middle" x="1178.5" y="-481.5" font-family="FreeSans" font-size="10.00" fill="#000000">Muhamad Sadili Nazrin bin</text>
<text text-anchor="middle" x="1178.5" y="-470.5" font-family="FreeSans" font-size="10.00" fill="#000000">AIZAD was attempting to erase</text>
<text text-anchor="middle" x="1178.5" y="-459.5" font-family="FreeSans" font-size="10.00" fill="#000000">his mobile phone when arrested</text>
</g>
<!-- 610286 -->
<g id="node18" class="node">
<title>610286</title>
<polygon fill="#e6ffe6" stroke="#66cc66" points="1178.5,-389 1094.3359,-371 1178.5,-353 1262.6641,-371 1178.5,-389"/>
<text text-anchor="middle" x="1178.5" y="-368.5" font-family="FreeSans" font-size="10.00" fill="#000000">Default Inference</text>
</g>
<!-- 610283&#45;&gt;610286 -->
<g id="edge13" class="edge">
<title>610283&#45;&gt;610286</title>
<path fill="none" stroke="#000000" d="M1178.5,-452.3588C1178.5,-437.1736 1178.5,-416.3426 1178.5,-399.5606"/>
<polygon fill="#000000" stroke="#000000" points="1182.0001,-399.2171 1178.5,-389.2172 1175.0001,-399.2172 1182.0001,-399.2171"/>
</g>
<!-- 610286&#45;&gt;610275 -->
<g id="edge14" class="edge">
<title>610286&#45;&gt;610275</title>
<path fill="none" stroke="#000000" d="M1178.5,-352.8491C1178.5,-342.5098 1178.5,-329.1003 1178.5,-316.3063"/>
<polygon fill="#000000" stroke="#000000" points="1182.0001,-316.248 1178.5,-306.2481 1175.0001,-316.2481 1182.0001,-316.248"/>
</g>
<!-- 610290 -->
<g id="node19" class="node">
<title>610290</title>
<polygon fill="#ebf3ff" stroke="#6666cc" points="1037,-306 864,-306 864,-243 1037,-243 1037,-306"/>
<text text-anchor="middle" x="950.5" y="-294" font-family="FreeSans" font-size="10.00" fill="#000000">intelligence gaps remain as to</text>
<text text-anchor="middle" x="950.5" y="-283" font-family="FreeSans" font-size="10.00" fill="#000000">who may have tipped Muhamad</text>
<text text-anchor="middle" x="950.5" y="-272" font-family="FreeSans" font-size="10.00" fill="#000000">Sadili Nazrin bin AIZAD off</text>
<text text-anchor="middle" x="950.5" y="-261" font-family="FreeSans" font-size="10.00" fill="#000000">(noted in Intelligence Gap</text>
<text text-anchor="middle" x="950.5" y="-250" font-family="FreeSans" font-size="10.00" fill="#000000">section)</text>
</g>
<!-- 610292 -->
<g id="node20" class="node">
<title>610292</title>
<polygon fill="#e6ffe6" stroke="#66cc66" points="950.5,-196 866.3359,-178 950.5,-160 1034.6641,-178 950.5,-196"/>
<text text-anchor="middle" x="950.5" y="-175.5" font-family="FreeSans" font-size="10.00" fill="#000000">Default Inference</text>
</g>
<!-- 610290&#45;&gt;610292 -->
<g id="edge15" class="edge">
<title>610290&#45;&gt;610292</title>
<path fill="none" stroke="#000000" d="M950.5,-242.9023C950.5,-231.1555 950.5,-217.9078 950.5,-206.4586"/>
<polygon fill="#000000" stroke="#000000" points="954.0001,-206.1403 950.5,-196.1403 947.0001,-206.1403 954.0001,-206.1403"/>
</g>
<!-- 610292&#45;&gt;610277 -->
<g id="edge16" class="edge">
<title>610292&#45;&gt;610277</title>
<path fill="none" stroke="#000000" d="M977.3062,-165.6753C998.8892,-155.7521 1030.1666,-141.3717 1058.3443,-128.4164"/>
<polygon fill="#000000" stroke="#000000" points="1060.1393,-131.4434 1067.7629,-124.086 1057.2151,-125.0834 1060.1393,-131.4434"/>
</g>
<!-- 610297 -->
<g id="node21" class="node">
<title>610297</title>
<polygon fill="#ebf3ff" stroke="#6666cc" points="1456,-504.5 1283,-504.5 1283,-441.5 1456,-441.5 1456,-504.5"/>
<text text-anchor="middle" x="1369.5" y="-492.5" font-family="FreeSans" font-size="10.00" fill="#000000">digital forensic analysis</text>
<text text-anchor="middle" x="1369.5" y="-481.5" font-family="FreeSans" font-size="10.00" fill="#000000">recovered four photographs</text>
<text text-anchor="middle" x="1369.5" y="-470.5" font-family="FreeSans" font-size="10.00" fill="#000000">from Muhamad Sadili Nazrin bin</text>
<text text-anchor="middle" x="1369.5" y="-459.5" font-family="FreeSans" font-size="10.00" fill="#000000">AIZAD’s phone, seized during</text>
<text text-anchor="middle" x="1369.5" y="-448.5" font-family="FreeSans" font-size="10.00" fill="#000000">the arrest</text>
</g>
<!-- 610302 -->
<g id="node22" class="node">
<title>610302</title>
<polygon fill="#ebf3ff" stroke="#6666cc" points="1626.5,-493.5 1474.5,-493.5 1474.5,-452.5 1626.5,-452.5 1626.5,-493.5"/>
<text text-anchor="middle" x="1550.5" y="-481.5" font-family="FreeSans" font-size="10.00" fill="#000000">no metadata or geolocation</text>
<text text-anchor="middle" x="1550.5" y="-470.5" font-family="FreeSans" font-size="10.00" fill="#000000">data is associated with the</text>
<text text-anchor="middle" x="1550.5" y="-459.5" font-family="FreeSans" font-size="10.00" fill="#000000">photograph files</text>
</g>
<!-- 610307 -->
<g id="node23" class="node">
<title>610307</title>
<polygon fill="#ebf3ff" stroke="#6666cc" points="1818,-317 1645,-317 1645,-232 1818,-232 1818,-317"/>
<text text-anchor="middle" x="1731.5" y="-305" font-family="FreeSans" font-size="10.00" fill="#000000">human intelligence (HUMINT)</text>
<text text-anchor="middle" x="1731.5" y="-294" font-family="FreeSans" font-size="10.00" fill="#000000">received states Muhamad Sadili</text>
<text text-anchor="middle" x="1731.5" y="-283" font-family="FreeSans" font-size="10.00" fill="#000000">Nazrin bin AIZAD has been</text>
<text text-anchor="middle" x="1731.5" y="-272" font-family="FreeSans" font-size="10.00" fill="#000000">observed in long conversations</text>
<text text-anchor="middle" x="1731.5" y="-261" font-family="FreeSans" font-size="10.00" fill="#000000">with a second male on multiple</text>
<text text-anchor="middle" x="1731.5" y="-250" font-family="FreeSans" font-size="10.00" fill="#000000">occasions over a two day</text>
<text text-anchor="middle" x="1731.5" y="-239" font-family="FreeSans" font-size="10.00" fill="#000000">period</text>
</g>
<!-- 610312 -->
<g id="node24" class="node">
<title>610312</title>
<polygon fill="#ebf3ff" stroke="#6666cc" points="1818.5,-504.5 1644.5,-504.5 1644.5,-441.5 1818.5,-441.5 1818.5,-504.5"/>
<text text-anchor="middle" x="1731.5" y="-492.5" font-family="FreeSans" font-size="10.00" fill="#000000">this second male that Muhamad</text>
<text text-anchor="middle" x="1731.5" y="-481.5" font-family="FreeSans" font-size="10.00" fill="#000000">Sadili Nazrin bin AIZAD has</text>
<text text-anchor="middle" x="1731.5" y="-470.5" font-family="FreeSans" font-size="10.00" fill="#000000">conversed with has been</text>
<text text-anchor="middle" x="1731.5" y="-459.5" font-family="FreeSans" font-size="10.00" fill="#000000">identified as Fadhlan</text>
<text text-anchor="middle" x="1731.5" y="-448.5" font-family="FreeSans" font-size="10.00" fill="#000000">MANGUNSONG (MANGUNSONG)</text>
</g>
<!-- 610369 -->
<g id="node25" class="node">
<title>610369</title>
<polygon fill="#e6ffe6" stroke="#66cc66" points="1731.5,-389 1647.3359,-371 1731.5,-353 1815.6641,-371 1731.5,-389"/>
<text text-anchor="middle" x="1731.5" y="-368.5" font-family="FreeSans" font-size="10.00" fill="#000000">Default Inference</text>
</g>
<!-- 610312&#45;&gt;610369 -->
<g id="edge17" class="edge">
<title>610312&#45;&gt;610369</title>
<path fill="none" stroke="#000000" d="M1731.5,-441.2857C1731.5,-427.8533 1731.5,-412.3277 1731.5,-399.2903"/>
<polygon fill="#000000" stroke="#000000" points="1735.0001,-399.0245 1731.5,-389.0246 1728.0001,-399.0246 1735.0001,-399.0245"/>
</g>
<!-- 610369&#45;&gt;610307 -->
<g id="edge26" class="edge">
<title>610369&#45;&gt;610307</title>
<path fill="none" stroke="#000000" d="M1731.5,-352.8491C1731.5,-345.5501 1731.5,-336.7212 1731.5,-327.6588"/>
<polygon fill="#000000" stroke="#000000" points="1735.0001,-327.397 1731.5,-317.3971 1728.0001,-327.3971 1735.0001,-327.397"/>
</g>
<!-- 610317 -->
<g id="node26" class="node">
<title>610317</title>
<polygon fill="#ebf3ff" stroke="#6666cc" points="2014.5,-493.5 1836.5,-493.5 1836.5,-452.5 2014.5,-452.5 2014.5,-493.5"/>
<text text-anchor="middle" x="1925.5" y="-481.5" font-family="FreeSans" font-size="10.00" fill="#000000">Fadhlan MANGUNSONG has been</text>
<text text-anchor="middle" x="1925.5" y="-470.5" font-family="FreeSans" font-size="10.00" fill="#000000">arrested by Philippine</text>
<text text-anchor="middle" x="1925.5" y="-459.5" font-family="FreeSans" font-size="10.00" fill="#000000">authorities</text>
</g>
<!-- 610322 -->
<g id="node27" class="node">
<title>610322</title>
<polygon fill="#ebf3ff" stroke="#6666cc" points="2216.5,-510 2032.5,-510 2032.5,-436 2216.5,-436 2216.5,-510"/>
<text text-anchor="middle" x="2124.5" y="-498" font-family="FreeSans" font-size="10.00" fill="#000000">Fadhlan MANGUNSONG was found</text>
<text text-anchor="middle" x="2124.5" y="-487" font-family="FreeSans" font-size="10.00" fill="#000000">in possession of a number of</text>
<text text-anchor="middle" x="2124.5" y="-476" font-family="FreeSans" font-size="10.00" fill="#000000">items including a strap&#45;on</text>
<text text-anchor="middle" x="2124.5" y="-465" font-family="FreeSans" font-size="10.00" fill="#000000">knife with an 11cm blade, a</text>
<text text-anchor="middle" x="2124.5" y="-454" font-family="FreeSans" font-size="10.00" fill="#000000">Koran, and an Indonesian</text>
<text text-anchor="middle" x="2124.5" y="-443" font-family="FreeSans" font-size="10.00" fill="#000000">Passport</text>
</g>
<!-- 610328 -->
<g id="node28" class="node">
<title>610328</title>
<polygon fill="#ebf3ff" stroke="#6666cc" points="2422,-499 2235,-499 2235,-447 2422,-447 2422,-499"/>
<text text-anchor="middle" x="2328.5" y="-487" font-family="FreeSans" font-size="10.00" fill="#000000">also located with Fadhlan</text>
<text text-anchor="middle" x="2328.5" y="-476" font-family="FreeSans" font-size="10.00" fill="#000000">MANGUNSONG were pamphlets on</text>
<text text-anchor="middle" x="2328.5" y="-465" font-family="FreeSans" font-size="10.00" fill="#000000">Islamic practice, rituals and</text>
<text text-anchor="middle" x="2328.5" y="-454" font-family="FreeSans" font-size="10.00" fill="#000000">ethics</text>
</g>
<!-- 610335 -->
<g id="node29" class="node">
<title>610335</title>
<polygon fill="#e6ffe6" stroke="#66cc66" points="2328.5,-389 2244.3359,-371 2328.5,-353 2412.6641,-371 2328.5,-389"/>
<text text-anchor="middle" x="2328.5" y="-368.5" font-family="FreeSans" font-size="10.00" fill="#000000">Default Inference</text>
</g>
<!-- 610328&#45;&gt;610335 -->
<g id="edge18" class="edge">
<title>610328&#45;&gt;610335</title>
<path fill="none" stroke="#000000" d="M2328.5,-446.9972C2328.5,-432.4636 2328.5,-414.3317 2328.5,-399.4241"/>
<polygon fill="#000000" stroke="#000000" points="2332.0001,-399.2364 2328.5,-389.2365 2325.0001,-399.2365 2332.0001,-399.2364"/>
</g>
<!-- 610333 -->
<g id="node30" class="node">
<title>610333</title>
<polygon fill="#ebf3ff" stroke="#6666cc" points="2421,-311.5 2236,-311.5 2236,-237.5 2421,-237.5 2421,-311.5"/>
<text text-anchor="middle" x="2328.5" y="-299.5" font-family="FreeSans" font-size="10.00" fill="#000000">the pamphlets on Islamic</text>
<text text-anchor="middle" x="2328.5" y="-288.5" font-family="FreeSans" font-size="10.00" fill="#000000">practice, rituals and ethics</text>
<text text-anchor="middle" x="2328.5" y="-277.5" font-family="FreeSans" font-size="10.00" fill="#000000">found with Fadhlan MANGUNSONG</text>
<text text-anchor="middle" x="2328.5" y="-266.5" font-family="FreeSans" font-size="10.00" fill="#000000">were identical to those found</text>
<text text-anchor="middle" x="2328.5" y="-255.5" font-family="FreeSans" font-size="10.00" fill="#000000">in Muhamad Sadili Nazrin bin</text>
<text text-anchor="middle" x="2328.5" y="-244.5" font-family="FreeSans" font-size="10.00" fill="#000000">AIZAD’s room</text>
</g>
<!-- 610335&#45;&gt;610333 -->
<g id="edge19" class="edge">
<title>610335&#45;&gt;610333</title>
<path fill="none" stroke="#000000" d="M2328.5,-352.8491C2328.5,-343.9873 2328.5,-332.8701 2328.5,-321.8182"/>
<polygon fill="#000000" stroke="#000000" points="2332.0001,-321.7533 2328.5,-311.7533 2325.0001,-321.7534 2332.0001,-321.7533"/>
</g>
<!-- 610340 -->
<g id="node31" class="node">
<title>610340</title>
<polygon fill="#ebf3ff" stroke="#6666cc" points="2622.5,-510 2440.5,-510 2440.5,-436 2622.5,-436 2622.5,-510"/>
<text text-anchor="middle" x="2531.5" y="-498" font-family="FreeSans" font-size="10.00" fill="#000000">human intelligence (HUMINT)</text>
<text text-anchor="middle" x="2531.5" y="-487" font-family="FreeSans" font-size="10.00" fill="#000000">received states Fadhlan</text>
<text text-anchor="middle" x="2531.5" y="-476" font-family="FreeSans" font-size="10.00" fill="#000000">MANGUNSON arrived at the same</text>
<text text-anchor="middle" x="2531.5" y="-465" font-family="FreeSans" font-size="10.00" fill="#000000">low&#45;cost resort as Muhamad</text>
<text text-anchor="middle" x="2531.5" y="-454" font-family="FreeSans" font-size="10.00" fill="#000000">Sadili Nazrin bin AIZAD, three</text>
<text text-anchor="middle" x="2531.5" y="-443" font-family="FreeSans" font-size="10.00" fill="#000000">days ago</text>
</g>
<!-- 610345 -->
<g id="node32" class="node">
<title>610345</title>
<polygon fill="#ebf3ff" stroke="#6666cc" points="2832,-493.5 2641,-493.5 2641,-452.5 2832,-452.5 2832,-493.5"/>
<text text-anchor="middle" x="2736.5" y="-481.5" font-family="FreeSans" font-size="10.00" fill="#000000">Fadhlan MANGUNSONG had a beard</text>
<text text-anchor="middle" x="2736.5" y="-470.5" font-family="FreeSans" font-size="10.00" fill="#000000">when he arrived, but shaved it</text>
<text text-anchor="middle" x="2736.5" y="-459.5" font-family="FreeSans" font-size="10.00" fill="#000000">on his second day</text>
</g>
<!-- 610350 -->
<g id="node33" class="node">
<title>610350</title>
<polygon fill="#ebf3ff" stroke="#6666cc" points="3031,-300.5 2852,-300.5 2852,-248.5 3031,-248.5 3031,-300.5"/>
<text text-anchor="middle" x="2941.5" y="-288.5" font-family="FreeSans" font-size="10.00" fill="#000000">it was likely Fadhlan</text>
<text text-anchor="middle" x="2941.5" y="-277.5" font-family="FreeSans" font-size="10.00" fill="#000000">MANGUNSONG shaving his beard</text>
<text text-anchor="middle" x="2941.5" y="-266.5" font-family="FreeSans" font-size="10.00" fill="#000000">was done for ease of</text>
<text text-anchor="middle" x="2941.5" y="-255.5" font-family="FreeSans" font-size="10.00" fill="#000000">snorkelling</text>
</g>
<!-- 610356 -->
<g id="node34" class="node">
<title>610356</title>
<polygon fill="#ffe6e6" stroke="#cc6666" points="2885.5,-196 2808.8208,-178 2885.5,-160 2962.1792,-178 2885.5,-196"/>
<text text-anchor="middle" x="2885.5" y="-175.5" font-family="FreeSans" font-size="10.00" fill="#000000">Default Conflict</text>
</g>
<!-- 610350&#45;&gt;610356 -->
<g id="edge20" class="edge">
<title>610350&#45;&gt;610356</title>
<path fill="none" stroke="#000000" d="M2926.3456,-248.3857C2918.1343,-234.2358 2908.0411,-216.8432 2899.9426,-202.8877"/>
<polygon fill="#000000" stroke="#000000" points="2902.7486,-200.7497 2894.7022,-193.8573 2896.6942,-204.2632 2902.7486,-200.7497"/>
</g>
<!-- 610353 -->
<g id="node35" class="node">
<title>610353</title>
<polygon fill="#ebf3ff" stroke="#6666cc" points="2968,-124 2789,-124 2789,-72 2968,-72 2968,-124"/>
<text text-anchor="middle" x="2878.5" y="-112" font-family="FreeSans" font-size="10.00" fill="#000000">it was unlikely Fadhlan</text>
<text text-anchor="middle" x="2878.5" y="-101" font-family="FreeSans" font-size="10.00" fill="#000000">MANGUNSONG shaving his beard</text>
<text text-anchor="middle" x="2878.5" y="-90" font-family="FreeSans" font-size="10.00" fill="#000000">was done for ease of</text>
<text text-anchor="middle" x="2878.5" y="-79" font-family="FreeSans" font-size="10.00" fill="#000000">snorkelling</text>
</g>
<!-- 610356&#45;&gt;610353 -->
<g id="edge23" class="edge">
<title>610356&#45;&gt;610353</title>
<path fill="none" stroke="#000000" d="M2883.9465,-160.2454C2883.2734,-152.5529 2882.4595,-143.251 2881.6684,-134.2098"/>
<polygon fill="#000000" stroke="#000000" points="2885.152,-133.8691 2880.7936,-124.2123 2878.1787,-134.4794 2885.152,-133.8691"/>
</g>
<!-- 610355 -->
<g id="node36" class="node">
<title>610355</title>
<polygon fill="#ffe6e6" stroke="#cc6666" points="2937.5,-36 2860.8208,-18 2937.5,0 3014.1792,-18 2937.5,-36"/>
<text text-anchor="middle" x="2937.5" y="-15.5" font-family="FreeSans" font-size="10.00" fill="#000000">Default Conflict</text>
</g>
<!-- 610353&#45;&gt;610355 -->
<g id="edge21" class="edge">
<title>610353&#45;&gt;610355</title>
<path fill="none" stroke="#000000" d="M2897.8188,-71.805C2904.9204,-62.1757 2912.9193,-51.3298 2919.8651,-41.9117"/>
<polygon fill="#000000" stroke="#000000" points="2922.7733,-43.8652 2925.8919,-33.7398 2917.1396,-39.7104 2922.7733,-43.8652"/>
</g>
<!-- 610355&#45;&gt;610350 -->
<g id="edge22" class="edge">
<title>610355&#45;&gt;610350</title>
<path fill="none" stroke="#000000" d="M2952.3495,-32.5398C2961.549,-42.6339 2972.5273,-56.9324 2977.5,-72 2996.2521,-128.8193 2975.0316,-198.0157 2958.1329,-239.0422"/>
<polygon fill="#000000" stroke="#000000" points="2954.8692,-237.7732 2954.1748,-248.3453 2961.3105,-240.5138 2954.8692,-237.7732"/>
</g>
<!-- 610359 -->
<g id="node37" class="node">
<title>610359</title>
<polygon fill="#ebf3ff" stroke="#6666cc" points="3032.5,-499 2850.5,-499 2850.5,-447 3032.5,-447 3032.5,-499"/>
<text text-anchor="middle" x="2941.5" y="-487" font-family="FreeSans" font-size="10.00" fill="#000000">Fadhlan MANGUNSON shaving his</text>
<text text-anchor="middle" x="2941.5" y="-476" font-family="FreeSans" font-size="10.00" fill="#000000">beard was not associated with</text>
<text text-anchor="middle" x="2941.5" y="-465" font-family="FreeSans" font-size="10.00" fill="#000000">preparatory behaviour prior to</text>
<text text-anchor="middle" x="2941.5" y="-454" font-family="FreeSans" font-size="10.00" fill="#000000">terrorist activity</text>
</g>
<!-- 610361 -->
<g id="node38" class="node">
<title>610361</title>
<polygon fill="#e6ffe6" stroke="#66cc66" points="2941.5,-389 2857.3359,-371 2941.5,-353 3025.6641,-371 2941.5,-389"/>
<text text-anchor="middle" x="2941.5" y="-368.5" font-family="FreeSans" font-size="10.00" fill="#000000">Default Inference</text>
</g>
<!-- 610359&#45;&gt;610361 -->
<g id="edge24" class="edge">
<title>610359&#45;&gt;610361</title>
<path fill="none" stroke="#000000" d="M2941.5,-446.9972C2941.5,-432.4636 2941.5,-414.3317 2941.5,-399.4241"/>
<polygon fill="#000000" stroke="#000000" points="2945.0001,-399.2364 2941.5,-389.2365 2938.0001,-399.2365 2945.0001,-399.2364"/>
</g>
<!-- 610361&#45;&gt;610350 -->
<g id="edge25" class="edge">
<title>610361&#45;&gt;610350</title>
<path fill="none" stroke="#000000" d="M2941.5,-352.8491C2941.5,-340.987 2941.5,-325.0839 2941.5,-310.7053"/>
<polygon fill="#000000" stroke="#000000" points="2945.0001,-310.5844 2941.5,-300.5845 2938.0001,-310.5845 2945.0001,-310.5844"/>
</g>
<!-- 610366 -->
<g id="node39" class="node">
<title>610366</title>
<polygon fill="#ebf3ff" stroke="#6666cc" points="3228.5,-504.5 3050.5,-504.5 3050.5,-441.5 3228.5,-441.5 3228.5,-504.5"/>
<text text-anchor="middle" x="3139.5" y="-492.5" font-family="FreeSans" font-size="10.00" fill="#000000">the relationship between</text>
<text text-anchor="middle" x="3139.5" y="-481.5" font-family="FreeSans" font-size="10.00" fill="#000000">Muhamad Sadili Nazrin bin</text>
<text text-anchor="middle" x="3139.5" y="-470.5" font-family="FreeSans" font-size="10.00" fill="#000000">AIZAD and Fadhlan MANGUNSON</text>
<text text-anchor="middle" x="3139.5" y="-459.5" font-family="FreeSans" font-size="10.00" fill="#000000">will be analysed within this</text>
<text text-anchor="middle" x="3139.5" y="-448.5" font-family="FreeSans" font-size="10.00" fill="#000000">report</text>
</g>
</g>
</svg>
