<?xml version="1.0" encoding="UTF-8" standalone="no"?>
<!DOCTYPE svg PUBLIC "-//W3C//DTD SVG 1.1//EN"
 "http://www.w3.org/Graphics/SVG/1.1/DTD/svg11.dtd">
<!-- Generated by graphviz version 2.40.1 (20161225.0304)
 -->
<!-- Title: nodeset19398 Pages: 1 -->
<svg width="918pt" height="402pt"
 viewBox="0.00 0.00 917.58 402.00" xmlns="http://www.w3.org/2000/svg" xmlns:xlink="http://www.w3.org/1999/xlink">
<g id="graph0" class="graph" transform="scale(1 1) rotate(0) translate(4 398)">
<title>nodeset19398</title>
<polygon fill="#ffffff" stroke="transparent" points="-4,4 -4,-398 913.582,-398 913.582,4 -4,4"/>
<!-- 610192 -->
<g id="node1" class="node">
<title>610192</title>
<polygon fill="#ebf3ff" stroke="#6666cc" points="165,-212 4,-212 4,-160 165,-160 165,-212"/>
<text text-anchor="middle" x="84.5" y="-200" font-family="FreeSans" font-size="10.00" fill="#000000">the relationship between</text>
<text text-anchor="middle" x="84.5" y="-189" font-family="FreeSans" font-size="10.00" fill="#000000">Target A (AIZAD) and Target B</text>
<text text-anchor="middle" x="84.5" y="-178" font-family="FreeSans" font-size="10.00" fill="#000000">(MANGUNSONG) remains an</text>
<text text-anchor="middle" x="84.5" y="-167" font-family="FreeSans" font-size="10.00" fill="#000000">intelligence gap</text>
</g>
<!-- 610283 -->
<g id="node2" class="node">
<title>610283</title>
<polygon fill="#ebf3ff" stroke="#6666cc" points="451,-41 278,-41 278,0 451,0 451,-41"/>
<text text-anchor="middle" x="364.5" y="-29" font-family="FreeSans" font-size="10.00" fill="#000000">Muhamad Sadili Nazrin bin</text>
<text text-anchor="middle" x="364.5" y="-18" font-family="FreeSans" font-size="10.00" fill="#000000">AIZAD was attempting to erase</text>
<text text-anchor="middle" x="364.5" y="-7" font-family="FreeSans" font-size="10.00" fill="#000000">his mobile phone when arrested</text>
</g>
<!-- 610297 -->
<g id="node3" class="node">
<title>610297</title>
<polygon fill="#ebf3ff" stroke="#6666cc" points="357,-217.5 184,-217.5 184,-154.5 357,-154.5 357,-217.5"/>
<text text-anchor="middle" x="270.5" y="-205.5" font-family="FreeSans" font-size="10.00" fill="#000000">digital forensic analysis</text>
<text text-anchor="middle" x="270.5" y="-194.5" font-family="FreeSans" font-size="10.00" fill="#000000">recovered four photographs</text>
<text text-anchor="middle" x="270.5" y="-183.5" font-family="FreeSans" font-size="10.00" fill="#000000">from Muhamad Sadili Nazrin bin</text>
<text text-anchor="middle" x="270.5" y="-172.5" font-family="FreeSans" font-size="10.00" fill="#000000">AIZAD’s phone, seized during</text>
<text text-anchor="middle" x="270.5" y="-161.5" font-family="FreeSans" font-size="10.00" fill="#000000">the arrest</text>
</g>
<!-- 610753 -->
<g id="node4" class="node">
<title>610753</title>
<polygon fill="#e6ffe6" stroke="#66cc66" points="271.5,-113 187.3359,-95 271.5,-77 355.6641,-95 271.5,-113"/>
<text text-anchor="middle" x="271.5" y="-92.5" font-family="FreeSans" font-size="10.00" fill="#000000">Default Inference</text>
</g>
<!-- 610297&#45;&gt;610753 -->
<g id="edge1" class="edge">
<title>610297&#45;&gt;610753</title>
<path fill="none" stroke="#000000" d="M270.8469,-154.428C270.9588,-144.2494 271.082,-133.0417 271.1909,-123.1285"/>
<polygon fill="#000000" stroke="#000000" points="274.6921,-123.0276 271.3023,-112.9897 267.6925,-122.9506 274.6921,-123.0276"/>
</g>
<!-- 610753&#45;&gt;610283 -->
<g id="edge7" class="edge">
<title>610753&#45;&gt;610283</title>
<path fill="none" stroke="#000000" d="M289.4313,-80.6357C301.1681,-71.2337 316.8693,-58.6558 330.8778,-47.434"/>
<polygon fill="#000000" stroke="#000000" points="333.271,-50.0014 338.8874,-41.0176 328.8945,-44.5381 333.271,-50.0014"/>
</g>
<!-- 610302 -->
<g id="node5" class="node">
<title>610302</title>
<polygon fill="#ebf3ff" stroke="#6666cc" points="346.5,-383 194.5,-383 194.5,-342 346.5,-342 346.5,-383"/>
<text text-anchor="middle" x="270.5" y="-371" font-family="FreeSans" font-size="10.00" fill="#000000">no metadata or geolocation</text>
<text text-anchor="middle" x="270.5" y="-360" font-family="FreeSans" font-size="10.00" fill="#000000">data is associated with the</text>
<text text-anchor="middle" x="270.5" y="-349" font-family="FreeSans" font-size="10.00" fill="#000000">photograph files</text>
</g>
<!-- 610756 -->
<g id="node6" class="node">
<title>610756</title>
<polygon fill="#e6ffe6" stroke="#66cc66" points="270.5,-295 186.3359,-277 270.5,-259 354.6641,-277 270.5,-295"/>
<text text-anchor="middle" x="270.5" y="-274.5" font-family="FreeSans" font-size="10.00" fill="#000000">Default Inference</text>
</g>
<!-- 610302&#45;&gt;610756 -->
<g id="edge2" class="edge">
<title>610302&#45;&gt;610756</title>
<path fill="none" stroke="#000000" d="M270.5,-341.8028C270.5,-330.9053 270.5,-317.3751 270.5,-305.5009"/>
<polygon fill="#000000" stroke="#000000" points="274.0001,-305.1846 270.5,-295.1847 267.0001,-305.1847 274.0001,-305.1846"/>
</g>
<!-- 610756&#45;&gt;610297 -->
<g id="edge8" class="edge">
<title>610756&#45;&gt;610297</title>
<path fill="none" stroke="#000000" d="M270.5,-258.5848C270.5,-249.6902 270.5,-238.6245 270.5,-227.8353"/>
<polygon fill="#000000" stroke="#000000" points="274.0001,-227.6557 270.5,-217.6557 267.0001,-227.6558 274.0001,-227.6557"/>
</g>
<!-- 610382 -->
<g id="node7" class="node">
<title>610382</title>
<polygon fill="#ebf3ff" stroke="#6666cc" points="717,-388.5 562,-388.5 562,-336.5 717,-336.5 717,-388.5"/>
<text text-anchor="middle" x="639.5" y="-376.5" font-family="FreeSans" font-size="10.00" fill="#000000">the Southern Philippines has</text>
<text text-anchor="middle" x="639.5" y="-365.5" font-family="FreeSans" font-size="10.00" fill="#000000">become a focal point for</text>
<text text-anchor="middle" x="639.5" y="-354.5" font-family="FreeSans" font-size="10.00" fill="#000000">jihadist activity in the</text>
<text text-anchor="middle" x="639.5" y="-343.5" font-family="FreeSans" font-size="10.00" fill="#000000">Asia&#45;Pacific</text>
</g>
<!-- 610768 -->
<g id="node8" class="node">
<title>610768</title>
<polygon fill="#eeeeee" stroke="#cccccc" points="639.5,-295 555.3359,-277 639.5,-259 723.6641,-277 639.5,-295"/>
<text text-anchor="middle" x="639.5" y="-274.5" font-family="FreeSans" font-size="10.00" fill="#000000">Default Rephrase</text>
</g>
<!-- 610382&#45;&gt;610768 -->
<g id="edge3" class="edge">
<title>610382&#45;&gt;610768</title>
<path fill="none" stroke="#000000" d="M639.5,-336.3826C639.5,-326.573 639.5,-315.3792 639.5,-305.3742"/>
<polygon fill="#000000" stroke="#000000" points="643.0001,-305.1062 639.5,-295.1062 636.0001,-305.1062 643.0001,-305.1062"/>
</g>
<!-- 610769 -->
<g id="node16" class="node">
<title>610769</title>
<polygon fill="#ebf3ff" stroke="#6666cc" points="719,-212 560,-212 560,-160 719,-160 719,-212"/>
<text text-anchor="middle" x="639.5" y="-200" font-family="FreeSans" font-size="10.00" fill="#000000">Southern Philippines remains</text>
<text text-anchor="middle" x="639.5" y="-189" font-family="FreeSans" font-size="10.00" fill="#000000">an attractive target for</text>
<text text-anchor="middle" x="639.5" y="-178" font-family="FreeSans" font-size="10.00" fill="#000000">Islamist extremist groups for</text>
<text text-anchor="middle" x="639.5" y="-167" font-family="FreeSans" font-size="10.00" fill="#000000">acts of terrorism</text>
</g>
<!-- 610768&#45;&gt;610769 -->
<g id="edge12" class="edge">
<title>610768&#45;&gt;610769</title>
<path fill="none" stroke="#000000" d="M639.5,-258.5848C639.5,-248.1979 639.5,-234.8502 639.5,-222.4397"/>
<polygon fill="#000000" stroke="#000000" points="643.0001,-222.3209 639.5,-212.321 636.0001,-222.321 643.0001,-222.3209"/>
</g>
<!-- 610463 -->
<g id="node9" class="node">
<title>610463</title>
<polygon fill="#ebf3ff" stroke="#6666cc" points="542,-223 375,-223 375,-149 542,-149 542,-223"/>
<text text-anchor="middle" x="458.5" y="-211" font-family="FreeSans" font-size="10.00" fill="#000000">at time of arrest Muhamad</text>
<text text-anchor="middle" x="458.5" y="-200" font-family="FreeSans" font-size="10.00" fill="#000000">Sadili Nazrin bin Aizad was</text>
<text text-anchor="middle" x="458.5" y="-189" font-family="FreeSans" font-size="10.00" fill="#000000">attempting to erase his mobile</text>
<text text-anchor="middle" x="458.5" y="-178" font-family="FreeSans" font-size="10.00" fill="#000000">phone, with only four</text>
<text text-anchor="middle" x="458.5" y="-167" font-family="FreeSans" font-size="10.00" fill="#000000">photographs able to be</text>
<text text-anchor="middle" x="458.5" y="-156" font-family="FreeSans" font-size="10.00" fill="#000000">recovered</text>
</g>
<!-- 610759 -->
<g id="node10" class="node">
<title>610759</title>
<polygon fill="#eeeeee" stroke="#cccccc" points="457.5,-113 373.3359,-95 457.5,-77 541.6641,-95 457.5,-113"/>
<text text-anchor="middle" x="457.5" y="-92.5" font-family="FreeSans" font-size="10.00" fill="#000000">Default Rephrase</text>
</g>
<!-- 610463&#45;&gt;610759 -->
<g id="edge4" class="edge">
<title>610463&#45;&gt;610759</title>
<path fill="none" stroke="#000000" d="M458.0933,-148.9868C457.9985,-140.3649 457.8991,-131.3214 457.8094,-123.1547"/>
<polygon fill="#000000" stroke="#000000" points="461.3079,-122.9939 457.6982,-113.033 454.3084,-123.0709 461.3079,-122.9939"/>
</g>
<!-- 610759&#45;&gt;610283 -->
<g id="edge9" class="edge">
<title>610759&#45;&gt;610283</title>
<path fill="none" stroke="#000000" d="M439.5687,-80.6357C427.8319,-71.2337 412.1307,-58.6558 398.1222,-47.434"/>
<polygon fill="#000000" stroke="#000000" points="400.1055,-44.5381 390.1126,-41.0176 395.729,-50.0014 400.1055,-44.5381"/>
</g>
<!-- 610557 -->
<g id="node11" class="node">
<title>610557</title>
<polygon fill="#ebf3ff" stroke="#6666cc" points="901,-394 750,-394 750,-331 901,-331 901,-394"/>
<text text-anchor="middle" x="825.5" y="-382" font-family="FreeSans" font-size="10.00" fill="#000000">it is likely that Target A</text>
<text text-anchor="middle" x="825.5" y="-371" font-family="FreeSans" font-size="10.00" fill="#000000">(Muhamad Sadili Nazrin bin</text>
<text text-anchor="middle" x="825.5" y="-360" font-family="FreeSans" font-size="10.00" fill="#000000">Aizad) is tasked with</text>
<text text-anchor="middle" x="825.5" y="-349" font-family="FreeSans" font-size="10.00" fill="#000000">recruiting new foreign</text>
<text text-anchor="middle" x="825.5" y="-338" font-family="FreeSans" font-size="10.00" fill="#000000">fighters</text>
</g>
<!-- 610762 -->
<g id="node12" class="node">
<title>610762</title>
<polygon fill="#e6ffe6" stroke="#66cc66" points="825.5,-295 741.3359,-277 825.5,-259 909.6641,-277 825.5,-295"/>
<text text-anchor="middle" x="825.5" y="-274.5" font-family="FreeSans" font-size="10.00" fill="#000000">Default Inference</text>
</g>
<!-- 610557&#45;&gt;610762 -->
<g id="edge5" class="edge">
<title>610557&#45;&gt;610762</title>
<path fill="none" stroke="#000000" d="M825.5,-330.663C825.5,-322.3439 825.5,-313.4339 825.5,-305.3118"/>
<polygon fill="#000000" stroke="#000000" points="829.0001,-305.2043 825.5,-295.2043 822.0001,-305.2043 829.0001,-305.2043"/>
</g>
<!-- 610585 -->
<g id="node13" class="node">
<title>610585</title>
<polygon fill="#ebf3ff" stroke="#6666cc" points="904.5,-206.5 746.5,-206.5 746.5,-165.5 904.5,-165.5 904.5,-206.5"/>
<text text-anchor="middle" x="825.5" y="-194.5" font-family="FreeSans" font-size="10.00" fill="#000000">potentially recruiting Target</text>
<text text-anchor="middle" x="825.5" y="-183.5" font-family="FreeSans" font-size="10.00" fill="#000000">B (Fadhlan Mangunsong) into</text>
<text text-anchor="middle" x="825.5" y="-172.5" font-family="FreeSans" font-size="10.00" fill="#000000">the militant organisation</text>
</g>
<!-- 610762&#45;&gt;610585 -->
<g id="edge10" class="edge">
<title>610762&#45;&gt;610585</title>
<path fill="none" stroke="#000000" d="M825.5,-258.5848C825.5,-246.5831 825.5,-230.6283 825.5,-216.734"/>
<polygon fill="#000000" stroke="#000000" points="829.0001,-216.6102 825.5,-206.6102 822.0001,-216.6102 829.0001,-216.6102"/>
</g>
<!-- 610597 -->
<g id="node14" class="node">
<title>610597</title>
<polygon fill="#ebf3ff" stroke="#6666cc" points="169,-394 0,-394 0,-331 169,-331 169,-394"/>
<text text-anchor="middle" x="84.5" y="-382" font-family="FreeSans" font-size="10.00" fill="#000000">the relationship between</text>
<text text-anchor="middle" x="84.5" y="-371" font-family="FreeSans" font-size="10.00" fill="#000000">Target A (Muhamad Sadili</text>
<text text-anchor="middle" x="84.5" y="-360" font-family="FreeSans" font-size="10.00" fill="#000000">Nazrin bin Aizad) and Target B</text>
<text text-anchor="middle" x="84.5" y="-349" font-family="FreeSans" font-size="10.00" fill="#000000">(Fadhlan Mangunsong) remains</text>
<text text-anchor="middle" x="84.5" y="-338" font-family="FreeSans" font-size="10.00" fill="#000000">an intelligence gap</text>
</g>
<!-- 610765 -->
<g id="node15" class="node">
<title>610765</title>
<polygon fill="#eeeeee" stroke="#cccccc" points="84.5,-295 .3359,-277 84.5,-259 168.6641,-277 84.5,-295"/>
<text text-anchor="middle" x="84.5" y="-274.5" font-family="FreeSans" font-size="10.00" fill="#000000">Default Rephrase</text>
</g>
<!-- 610597&#45;&gt;610765 -->
<g id="edge6" class="edge">
<title>610597&#45;&gt;610765</title>
<path fill="none" stroke="#000000" d="M84.5,-330.663C84.5,-322.3439 84.5,-313.4339 84.5,-305.3118"/>
<polygon fill="#000000" stroke="#000000" points="88.0001,-305.2043 84.5,-295.2043 81.0001,-305.2043 88.0001,-305.2043"/>
</g>
<!-- 610765&#45;&gt;610192 -->
<g id="edge11" class="edge">
<title>610765&#45;&gt;610192</title>
<path fill="none" stroke="#000000" d="M84.5,-258.5848C84.5,-248.1979 84.5,-234.8502 84.5,-222.4397"/>
<polygon fill="#000000" stroke="#000000" points="88.0001,-222.3209 84.5,-212.321 81.0001,-222.321 88.0001,-222.3209"/>
</g>
</g>
</svg>
