<?xml version="1.0" encoding="UTF-8" standalone="no"?>
<!DOCTYPE svg PUBLIC "-//W3C//DTD SVG 1.1//EN"
 "http://www.w3.org/Graphics/SVG/1.1/DTD/svg11.dtd">
<!-- Generated by graphviz version 2.40.1 (20161225.0304)
 -->
<!-- Title: nodeset19405 Pages: 1 -->
<svg width="2224pt" height="678pt"
 viewBox="0.00 0.00 2223.58 678.00" xmlns="http://www.w3.org/2000/svg" xmlns:xlink="http://www.w3.org/1999/xlink">
<g id="graph0" class="graph" transform="scale(1 1) rotate(0) translate(4 674)">
<title>nodeset19405</title>
<polygon fill="#ffffff" stroke="transparent" points="-4,4 -4,-674 2219.582,-674 2219.582,4 -4,4"/>
<!-- 611178 -->
<g id="node1" class="node">
<title>611178</title>
<polygon fill="#ebf3ff" stroke="#6666cc" points="360.082,-289.5 180.082,-289.5 180.082,-237.5 360.082,-237.5 360.082,-289.5"/>
<text text-anchor="middle" x="270.082" y="-277.5" font-family="FreeSans" font-size="10.00" fill="#000000">there are some links between</text>
<text text-anchor="middle" x="270.082" y="-266.5" font-family="FreeSans" font-size="10.00" fill="#000000">the targets (Fadhlan</text>
<text text-anchor="middle" x="270.082" y="-255.5" font-family="FreeSans" font-size="10.00" fill="#000000">Mangunsong and Muhamad Sadili</text>
<text text-anchor="middle" x="270.082" y="-244.5" font-family="FreeSans" font-size="10.00" fill="#000000">Nazrin bin Aizad)</text>
</g>
<!-- 611182 -->
<g id="node2" class="node">
<title>611182</title>
<polygon fill="#ebf3ff" stroke="#6666cc" points="157.582,-488 10.582,-488 10.582,-403 157.582,-403 157.582,-488"/>
<text text-anchor="middle" x="84.082" y="-476" font-family="FreeSans" font-size="10.00" fill="#000000">link from HUMINT (human</text>
<text text-anchor="middle" x="84.082" y="-465" font-family="FreeSans" font-size="10.00" fill="#000000">intelligence) – targets</text>
<text text-anchor="middle" x="84.082" y="-454" font-family="FreeSans" font-size="10.00" fill="#000000">(Fadhlan Mangunsong and</text>
<text text-anchor="middle" x="84.082" y="-443" font-family="FreeSans" font-size="10.00" fill="#000000">Muhamad Sadili Nazrin bin</text>
<text text-anchor="middle" x="84.082" y="-432" font-family="FreeSans" font-size="10.00" fill="#000000">Aizad) were seen in long</text>
<text text-anchor="middle" x="84.082" y="-421" font-family="FreeSans" font-size="10.00" fill="#000000">conversations on multiple</text>
<text text-anchor="middle" x="84.082" y="-410" font-family="FreeSans" font-size="10.00" fill="#000000">occasions</text>
</g>
<!-- 611185 -->
<g id="node3" class="node">
<title>611185</title>
<polygon fill="#e6ffe6" stroke="#66cc66" points="84.082,-367 -.0821,-349 84.082,-331 168.2461,-349 84.082,-367"/>
<text text-anchor="middle" x="84.082" y="-346.5" font-family="FreeSans" font-size="10.00" fill="#000000">Default Inference</text>
</g>
<!-- 611182&#45;&gt;611185 -->
<g id="edge1" class="edge">
<title>611182&#45;&gt;611185</title>
<path fill="none" stroke="#000000" d="M84.082,-402.8928C84.082,-394.2842 84.082,-385.4327 84.082,-377.4546"/>
<polygon fill="#000000" stroke="#000000" points="87.5821,-377.2218 84.082,-367.2218 80.5821,-377.2218 87.5821,-377.2218"/>
</g>
<!-- 611185&#45;&gt;611178 -->
<g id="edge2" class="edge">
<title>611185&#45;&gt;611178</title>
<path fill="none" stroke="#000000" d="M111.128,-336.5676C135.4293,-325.3968 172.1091,-308.536 204.1121,-293.8249"/>
<polygon fill="#000000" stroke="#000000" points="205.8121,-296.8956 213.4363,-289.5388 202.8884,-290.5353 205.8121,-296.8956"/>
</g>
<!-- 611188 -->
<g id="node4" class="node">
<title>611188</title>
<polygon fill="#ebf3ff" stroke="#6666cc" points="350.582,-477 189.582,-477 189.582,-414 350.582,-414 350.582,-477"/>
<text text-anchor="middle" x="270.082" y="-465" font-family="FreeSans" font-size="10.00" fill="#000000">link from searches – matched</text>
<text text-anchor="middle" x="270.082" y="-454" font-family="FreeSans" font-size="10.00" fill="#000000">pamphlets in both targets</text>
<text text-anchor="middle" x="270.082" y="-443" font-family="FreeSans" font-size="10.00" fill="#000000">(Fadhlan Mangunsong and</text>
<text text-anchor="middle" x="270.082" y="-432" font-family="FreeSans" font-size="10.00" fill="#000000">Muhamad Sadili Nazrin bin</text>
<text text-anchor="middle" x="270.082" y="-421" font-family="FreeSans" font-size="10.00" fill="#000000">Aizad) possessions</text>
</g>
<!-- 611190 -->
<g id="node5" class="node">
<title>611190</title>
<polygon fill="#e6ffe6" stroke="#66cc66" points="270.082,-367 185.9179,-349 270.082,-331 354.2461,-349 270.082,-367"/>
<text text-anchor="middle" x="270.082" y="-346.5" font-family="FreeSans" font-size="10.00" fill="#000000">Default Inference</text>
</g>
<!-- 611188&#45;&gt;611190 -->
<g id="edge3" class="edge">
<title>611188&#45;&gt;611190</title>
<path fill="none" stroke="#000000" d="M270.082,-413.9023C270.082,-402.1555 270.082,-388.9078 270.082,-377.4586"/>
<polygon fill="#000000" stroke="#000000" points="273.5821,-377.1403 270.082,-367.1403 266.5821,-377.1403 273.5821,-377.1403"/>
</g>
<!-- 611190&#45;&gt;611178 -->
<g id="edge4" class="edge">
<title>611190&#45;&gt;611178</title>
<path fill="none" stroke="#000000" d="M270.082,-330.8676C270.082,-321.8037 270.082,-310.5001 270.082,-299.7567"/>
<polygon fill="#000000" stroke="#000000" points="273.5821,-299.7193 270.082,-289.7193 266.5821,-299.7193 273.5821,-299.7193"/>
</g>
<!-- 611196 -->
<g id="node6" class="node">
<title>611196</title>
<polygon fill="#ebf3ff" stroke="#6666cc" points="542.582,-477 369.582,-477 369.582,-414 542.582,-414 542.582,-477"/>
<text text-anchor="middle" x="456.082" y="-465" font-family="FreeSans" font-size="10.00" fill="#000000">link from path – Both</text>
<text text-anchor="middle" x="456.082" y="-454" font-family="FreeSans" font-size="10.00" fill="#000000">targets (Fadhlan Mangunsong</text>
<text text-anchor="middle" x="456.082" y="-443" font-family="FreeSans" font-size="10.00" fill="#000000">and Muhamad Sadili Nazrin bin</text>
<text text-anchor="middle" x="456.082" y="-432" font-family="FreeSans" font-size="10.00" fill="#000000">Aizad) were in Zamboagna prior</text>
<text text-anchor="middle" x="456.082" y="-421" font-family="FreeSans" font-size="10.00" fill="#000000">to Dakak</text>
</g>
<!-- 611199 -->
<g id="node7" class="node">
<title>611199</title>
<polygon fill="#e6ffe6" stroke="#66cc66" points="456.082,-367 371.9179,-349 456.082,-331 540.2461,-349 456.082,-367"/>
<text text-anchor="middle" x="456.082" y="-346.5" font-family="FreeSans" font-size="10.00" fill="#000000">Default Inference</text>
</g>
<!-- 611196&#45;&gt;611199 -->
<g id="edge5" class="edge">
<title>611196&#45;&gt;611199</title>
<path fill="none" stroke="#000000" d="M456.082,-413.9023C456.082,-402.1555 456.082,-388.9078 456.082,-377.4586"/>
<polygon fill="#000000" stroke="#000000" points="459.5821,-377.1403 456.082,-367.1403 452.5821,-377.1403 459.5821,-377.1403"/>
</g>
<!-- 611199&#45;&gt;611178 -->
<g id="edge6" class="edge">
<title>611199&#45;&gt;611178</title>
<path fill="none" stroke="#000000" d="M429.036,-336.5676C404.7347,-325.3968 368.055,-308.536 336.0519,-293.8249"/>
<polygon fill="#000000" stroke="#000000" points="337.2756,-290.5353 326.7277,-289.5388 334.3519,-296.8956 337.2756,-290.5353"/>
</g>
<!-- 611203 -->
<g id="node8" class="node">
<title>611203</title>
<polygon fill="#ebf3ff" stroke="#6666cc" points="351.082,-653.5 191.082,-653.5 191.082,-612.5 351.082,-612.5 351.082,-653.5"/>
<text text-anchor="middle" x="271.082" y="-641.5" font-family="FreeSans" font-size="10.00" fill="#000000">Target A (Muhamad Sadili</text>
<text text-anchor="middle" x="271.082" y="-630.5" font-family="FreeSans" font-size="10.00" fill="#000000">Nazrin bin Aizad) has a photo</text>
<text text-anchor="middle" x="271.082" y="-619.5" font-family="FreeSans" font-size="10.00" fill="#000000">from the city</text>
</g>
<!-- 611205 -->
<g id="node9" class="node">
<title>611205</title>
<polygon fill="#e6ffe6" stroke="#66cc66" points="271.082,-560 186.9179,-542 271.082,-524 355.2461,-542 271.082,-560"/>
<text text-anchor="middle" x="271.082" y="-539.5" font-family="FreeSans" font-size="10.00" fill="#000000">Default Inference</text>
</g>
<!-- 611203&#45;&gt;611205 -->
<g id="edge7" class="edge">
<title>611203&#45;&gt;611205</title>
<path fill="none" stroke="#000000" d="M271.082,-612.3507C271.082,-599.9374 271.082,-583.9643 271.082,-570.3766"/>
<polygon fill="#000000" stroke="#000000" points="274.5821,-570.1045 271.082,-560.1045 267.5821,-570.1045 274.5821,-570.1045"/>
</g>
<!-- 611205&#45;&gt;611196 -->
<g id="edge8" class="edge">
<title>611205&#45;&gt;611196</title>
<path fill="none" stroke="#000000" d="M295.6486,-529.1855C318.8277,-517.0948 354.6908,-498.3879 386.6357,-481.7247"/>
<polygon fill="#000000" stroke="#000000" points="388.2805,-484.8143 395.5281,-477.0862 385.0431,-478.6079 388.2805,-484.8143"/>
</g>
<!-- 611210 -->
<g id="node10" class="node">
<title>611210</title>
<polygon fill="#ebf3ff" stroke="#6666cc" points="541.582,-653.5 372.582,-653.5 372.582,-612.5 541.582,-612.5 541.582,-653.5"/>
<text text-anchor="middle" x="457.082" y="-641.5" font-family="FreeSans" font-size="10.00" fill="#000000">Target B (Fadhlan Mangunsong)</text>
<text text-anchor="middle" x="457.082" y="-630.5" font-family="FreeSans" font-size="10.00" fill="#000000">has marked a path on his map</text>
<text text-anchor="middle" x="457.082" y="-619.5" font-family="FreeSans" font-size="10.00" fill="#000000">from Zamboagna to Dakak</text>
</g>
<!-- 611212 -->
<g id="node11" class="node">
<title>611212</title>
<polygon fill="#e6ffe6" stroke="#66cc66" points="457.082,-560 372.9179,-542 457.082,-524 541.2461,-542 457.082,-560"/>
<text text-anchor="middle" x="457.082" y="-539.5" font-family="FreeSans" font-size="10.00" fill="#000000">Default Inference</text>
</g>
<!-- 611210&#45;&gt;611212 -->
<g id="edge9" class="edge">
<title>611210&#45;&gt;611212</title>
<path fill="none" stroke="#000000" d="M457.082,-612.3507C457.082,-599.9374 457.082,-583.9643 457.082,-570.3766"/>
<polygon fill="#000000" stroke="#000000" points="460.5821,-570.1045 457.082,-560.1045 453.5821,-570.1045 460.5821,-570.1045"/>
</g>
<!-- 611212&#45;&gt;611196 -->
<g id="edge10" class="edge">
<title>611212&#45;&gt;611196</title>
<path fill="none" stroke="#000000" d="M456.8939,-523.8491C456.7868,-513.5098 456.6478,-500.1003 456.5152,-487.3063"/>
<polygon fill="#000000" stroke="#000000" points="460.0145,-487.2112 456.411,-477.2481 453.0149,-487.2838 460.0145,-487.2112"/>
</g>
<!-- 611217 -->
<g id="node12" class="node">
<title>611217</title>
<polygon fill="#ebf3ff" stroke="#6666cc" points="1236.082,-295 1068.082,-295 1068.082,-232 1236.082,-232 1236.082,-295"/>
<text text-anchor="middle" x="1152.082" y="-283" font-family="FreeSans" font-size="10.00" fill="#000000">there are several</text>
<text text-anchor="middle" x="1152.082" y="-272" font-family="FreeSans" font-size="10.00" fill="#000000">possibilities for the</text>
<text text-anchor="middle" x="1152.082" y="-261" font-family="FreeSans" font-size="10.00" fill="#000000">targets&#39; (Fadhlan Mangunsong</text>
<text text-anchor="middle" x="1152.082" y="-250" font-family="FreeSans" font-size="10.00" fill="#000000">and Muhamad Sadili Nazrin bin</text>
<text text-anchor="middle" x="1152.082" y="-239" font-family="FreeSans" font-size="10.00" fill="#000000">Aizad) relationship</text>
</g>
<!-- 611222 -->
<g id="node13" class="node">
<title>611222</title>
<polygon fill="#ebf3ff" stroke="#6666cc" points="1319.582,-471.5 1170.582,-471.5 1170.582,-419.5 1319.582,-419.5 1319.582,-471.5"/>
<text text-anchor="middle" x="1245.082" y="-459.5" font-family="FreeSans" font-size="10.00" fill="#000000">the first possibility for the</text>
<text text-anchor="middle" x="1245.082" y="-448.5" font-family="FreeSans" font-size="10.00" fill="#000000">targets&#39; relationship is that</text>
<text text-anchor="middle" x="1245.082" y="-437.5" font-family="FreeSans" font-size="10.00" fill="#000000">they have met for the first</text>
<text text-anchor="middle" x="1245.082" y="-426.5" font-family="FreeSans" font-size="10.00" fill="#000000">time at the bungalows</text>
</g>
<!-- 611225 -->
<g id="node14" class="node">
<title>611225</title>
<polygon fill="#e6ffe6" stroke="#66cc66" points="1245.082,-367 1160.9179,-349 1245.082,-331 1329.2461,-349 1245.082,-367"/>
<text text-anchor="middle" x="1245.082" y="-346.5" font-family="FreeSans" font-size="10.00" fill="#000000">Default Inference</text>
</g>
<!-- 611222&#45;&gt;611225 -->
<g id="edge11" class="edge">
<title>611222&#45;&gt;611225</title>
<path fill="none" stroke="#000000" d="M1245.082,-419.3857C1245.082,-406.3487 1245.082,-390.559 1245.082,-377.2409"/>
<polygon fill="#000000" stroke="#000000" points="1248.5821,-377.1898 1245.082,-367.1899 1241.5821,-377.1899 1248.5821,-377.1898"/>
</g>
<!-- 611225&#45;&gt;611217 -->
<g id="edge12" class="edge">
<title>611225&#45;&gt;611217</title>
<path fill="none" stroke="#000000" d="M1228.8826,-334.107C1219.229,-325.2319 1206.4893,-313.5196 1194.1668,-302.1909"/>
<polygon fill="#000000" stroke="#000000" points="1196.3101,-299.407 1186.5796,-295.2155 1191.5725,-304.5602 1196.3101,-299.407"/>
</g>
<!-- 611230 -->
<g id="node15" class="node">
<title>611230</title>
<polygon fill="#ebf3ff" stroke="#6666cc" points="1052.082,-659 884.082,-659 884.082,-607 1052.082,-607 1052.082,-659"/>
<text text-anchor="middle" x="968.082" y="-647" font-family="FreeSans" font-size="10.00" fill="#000000">targets (Fadhlan Mangunsong</text>
<text text-anchor="middle" x="968.082" y="-636" font-family="FreeSans" font-size="10.00" fill="#000000">and Muhamad Sadili Nazrin bin</text>
<text text-anchor="middle" x="968.082" y="-625" font-family="FreeSans" font-size="10.00" fill="#000000">Aizad) had shared previous</text>
<text text-anchor="middle" x="968.082" y="-614" font-family="FreeSans" font-size="10.00" fill="#000000">point and literature</text>
</g>
<!-- 611237 -->
<g id="node16" class="node">
<title>611237</title>
<polygon fill="#e6ffe6" stroke="#66cc66" points="968.082,-560 883.9179,-542 968.082,-524 1052.2461,-542 968.082,-560"/>
<text text-anchor="middle" x="968.082" y="-539.5" font-family="FreeSans" font-size="10.00" fill="#000000">Default Inference</text>
</g>
<!-- 611230&#45;&gt;611237 -->
<g id="edge13" class="edge">
<title>611230&#45;&gt;611237</title>
<path fill="none" stroke="#000000" d="M968.082,-606.679C968.082,-595.2654 968.082,-581.8809 968.082,-570.258"/>
<polygon fill="#000000" stroke="#000000" points="971.5821,-570.1862 968.082,-560.1863 964.5821,-570.1863 971.5821,-570.1862"/>
</g>
<!-- 611235 -->
<g id="node17" class="node">
<title>611235</title>
<polygon fill="#ebf3ff" stroke="#6666cc" points="1052.082,-471.5 884.082,-471.5 884.082,-419.5 1052.082,-419.5 1052.082,-471.5"/>
<text text-anchor="middle" x="968.082" y="-459.5" font-family="FreeSans" font-size="10.00" fill="#000000">it is also possible that the</text>
<text text-anchor="middle" x="968.082" y="-448.5" font-family="FreeSans" font-size="10.00" fill="#000000">targets (Fadhlan Mangunsong</text>
<text text-anchor="middle" x="968.082" y="-437.5" font-family="FreeSans" font-size="10.00" fill="#000000">and Muhamad Sadili Nazrin bin</text>
<text text-anchor="middle" x="968.082" y="-426.5" font-family="FreeSans" font-size="10.00" fill="#000000">Aizad) had previously met</text>
</g>
<!-- 611237&#45;&gt;611235 -->
<g id="edge16" class="edge">
<title>611237&#45;&gt;611235</title>
<path fill="none" stroke="#000000" d="M968.082,-523.8491C968.082,-511.987 968.082,-496.0839 968.082,-481.7053"/>
<polygon fill="#000000" stroke="#000000" points="971.5821,-481.5844 968.082,-471.5845 964.5821,-481.5845 971.5821,-481.5844"/>
</g>
<!-- 611238 -->
<g id="node18" class="node">
<title>611238</title>
<polygon fill="#e6ffe6" stroke="#66cc66" points="1059.082,-367 974.9179,-349 1059.082,-331 1143.2461,-349 1059.082,-367"/>
<text text-anchor="middle" x="1059.082" y="-346.5" font-family="FreeSans" font-size="10.00" fill="#000000">Default Inference</text>
</g>
<!-- 611235&#45;&gt;611238 -->
<g id="edge14" class="edge">
<title>611235&#45;&gt;611238</title>
<path fill="none" stroke="#000000" d="M992.7079,-419.3857C1006.831,-404.409 1024.3798,-385.7996 1037.8853,-371.4778"/>
<polygon fill="#000000" stroke="#000000" points="1040.6106,-373.6894 1044.9249,-364.0127 1035.5178,-368.8869 1040.6106,-373.6894"/>
</g>
<!-- 611325 -->
<g id="node19" class="node">
<title>611325</title>
<polygon fill="#e6ffe6" stroke="#66cc66" points="873.082,-367 788.9179,-349 873.082,-331 957.2461,-349 873.082,-367"/>
<text text-anchor="middle" x="873.082" y="-346.5" font-family="FreeSans" font-size="10.00" fill="#000000">Default Inference</text>
</g>
<!-- 611235&#45;&gt;611325 -->
<g id="edge15" class="edge">
<title>611235&#45;&gt;611325</title>
<path fill="none" stroke="#000000" d="M942.3736,-419.3857C927.6297,-404.409 909.3096,-385.7996 895.2104,-371.4778"/>
<polygon fill="#000000" stroke="#000000" points="897.3711,-368.6836 887.8614,-364.0127 892.3827,-373.5944 897.3711,-368.6836"/>
</g>
<!-- 611238&#45;&gt;611217 -->
<g id="edge17" class="edge">
<title>611238&#45;&gt;611217</title>
<path fill="none" stroke="#000000" d="M1075.2814,-334.107C1084.935,-325.2319 1097.6748,-313.5196 1109.9972,-302.1909"/>
<polygon fill="#000000" stroke="#000000" points="1112.5915,-304.5602 1117.5844,-295.2155 1107.8539,-299.407 1112.5915,-304.5602"/>
</g>
<!-- 611245 -->
<g id="node20" class="node">
<title>611245</title>
<polygon fill="#ebf3ff" stroke="#6666cc" points="892.082,-289.5 712.082,-289.5 712.082,-237.5 892.082,-237.5 892.082,-289.5"/>
<text text-anchor="middle" x="802.082" y="-277.5" font-family="FreeSans" font-size="10.00" fill="#000000">the targets&#39; (Fadhlan</text>
<text text-anchor="middle" x="802.082" y="-266.5" font-family="FreeSans" font-size="10.00" fill="#000000">Mangunsong and Muhamad Sadili</text>
<text text-anchor="middle" x="802.082" y="-255.5" font-family="FreeSans" font-size="10.00" fill="#000000">Nazrin bin Aizad) history may</text>
<text text-anchor="middle" x="802.082" y="-244.5" font-family="FreeSans" font-size="10.00" fill="#000000">extend back further</text>
</g>
<!-- 611325&#45;&gt;611245 -->
<g id="edge40" class="edge">
<title>611325&#45;&gt;611245</title>
<path fill="none" stroke="#000000" d="M860.3886,-333.7143C852.0778,-323.7062 840.875,-310.2156 830.5105,-297.7343"/>
<polygon fill="#000000" stroke="#000000" points="832.9405,-295.182 823.8593,-289.7248 827.5552,-299.6541 832.9405,-295.182"/>
</g>
<!-- 611251 -->
<g id="node21" class="node">
<title>611251</title>
<polygon fill="#ffe6e6" stroke="#cc6666" points="750.082,-196 673.4028,-178 750.082,-160 826.7612,-178 750.082,-196"/>
<text text-anchor="middle" x="750.082" y="-175.5" font-family="FreeSans" font-size="10.00" fill="#000000">Default Conflict</text>
</g>
<!-- 611245&#45;&gt;611251 -->
<g id="edge18" class="edge">
<title>611245&#45;&gt;611251</title>
<path fill="none" stroke="#000000" d="M786.1977,-237.3826C779.4775,-226.333 771.6891,-213.527 765.0691,-202.6423"/>
<polygon fill="#000000" stroke="#000000" points="768.019,-200.7569 759.8323,-194.0317 762.0383,-204.3944 768.019,-200.7569"/>
</g>
<!-- 611248 -->
<g id="node22" class="node">
<title>611248</title>
<polygon fill="#ebf3ff" stroke="#6666cc" points="827.082,-124 647.082,-124 647.082,-72 827.082,-72 827.082,-124"/>
<text text-anchor="middle" x="737.082" y="-112" font-family="FreeSans" font-size="10.00" fill="#000000">the targets&#39; (Fadhlan</text>
<text text-anchor="middle" x="737.082" y="-101" font-family="FreeSans" font-size="10.00" fill="#000000">Mangunsong and Muhamad Sadili</text>
<text text-anchor="middle" x="737.082" y="-90" font-family="FreeSans" font-size="10.00" fill="#000000">Nazrin bin Aizad) history may</text>
<text text-anchor="middle" x="737.082" y="-79" font-family="FreeSans" font-size="10.00" fill="#000000">not extend back further</text>
</g>
<!-- 611251&#45;&gt;611248 -->
<g id="edge21" class="edge">
<title>611251&#45;&gt;611248</title>
<path fill="none" stroke="#000000" d="M747.2612,-160.6412C746.0024,-152.895 744.4692,-143.4597 742.9787,-134.2871"/>
<polygon fill="#000000" stroke="#000000" points="746.3895,-133.4557 741.3308,-124.1465 739.4802,-134.5785 746.3895,-133.4557"/>
</g>
<!-- 611250 -->
<g id="node23" class="node">
<title>611250</title>
<polygon fill="#ffe6e6" stroke="#cc6666" points="796.082,-36 719.4028,-18 796.082,0 872.7612,-18 796.082,-36"/>
<text text-anchor="middle" x="796.082" y="-15.5" font-family="FreeSans" font-size="10.00" fill="#000000">Default Conflict</text>
</g>
<!-- 611248&#45;&gt;611250 -->
<g id="edge19" class="edge">
<title>611248&#45;&gt;611250</title>
<path fill="none" stroke="#000000" d="M756.4008,-71.805C763.5024,-62.1757 771.5013,-51.3298 778.4471,-41.9117"/>
<polygon fill="#000000" stroke="#000000" points="781.3553,-43.8652 784.4739,-33.7398 775.7216,-39.7104 781.3553,-43.8652"/>
</g>
<!-- 611250&#45;&gt;611245 -->
<g id="edge20" class="edge">
<title>611250&#45;&gt;611245</title>
<path fill="none" stroke="#000000" d="M810.9315,-32.5398C820.131,-42.6339 831.1093,-56.9324 836.082,-72 853.354,-124.3346 848.8233,-142.382 836.082,-196 833.4575,-207.0445 828.7237,-218.3333 823.6061,-228.4398"/>
<polygon fill="#000000" stroke="#000000" points="820.4721,-226.8784 818.8478,-237.348 826.6465,-230.1765 820.4721,-226.8784"/>
</g>
<!-- 611254 -->
<g id="node24" class="node">
<title>611254</title>
<polygon fill="#ebf3ff" stroke="#6666cc" points="1234.082,-653.5 1070.082,-653.5 1070.082,-612.5 1234.082,-612.5 1234.082,-653.5"/>
<text text-anchor="middle" x="1152.082" y="-641.5" font-family="FreeSans" font-size="10.00" fill="#000000">it is likely that Target B</text>
<text text-anchor="middle" x="1152.082" y="-630.5" font-family="FreeSans" font-size="10.00" fill="#000000">(Fadhlan Mangunsong) is from</text>
<text text-anchor="middle" x="1152.082" y="-619.5" font-family="FreeSans" font-size="10.00" fill="#000000">Indonesia</text>
</g>
<!-- 611259 -->
<g id="node25" class="node">
<title>611259</title>
<polygon fill="#ebf3ff" stroke="#6666cc" points="775.082,-471.5 599.082,-471.5 599.082,-419.5 775.082,-419.5 775.082,-471.5"/>
<text text-anchor="middle" x="687.082" y="-459.5" font-family="FreeSans" font-size="10.00" fill="#000000">Target B (Fadhlan Mangunsong)</text>
<text text-anchor="middle" x="687.082" y="-448.5" font-family="FreeSans" font-size="10.00" fill="#000000">may have travelled on the same</text>
<text text-anchor="middle" x="687.082" y="-437.5" font-family="FreeSans" font-size="10.00" fill="#000000">boats as Target A on the way</text>
<text text-anchor="middle" x="687.082" y="-426.5" font-family="FreeSans" font-size="10.00" fill="#000000">to Dekak</text>
</g>
<!-- 611261 -->
<g id="node26" class="node">
<title>611261</title>
<polygon fill="#e6ffe6" stroke="#66cc66" points="687.082,-367 602.9179,-349 687.082,-331 771.2461,-349 687.082,-367"/>
<text text-anchor="middle" x="687.082" y="-346.5" font-family="FreeSans" font-size="10.00" fill="#000000">Default Inference</text>
</g>
<!-- 611259&#45;&gt;611261 -->
<g id="edge22" class="edge">
<title>611259&#45;&gt;611261</title>
<path fill="none" stroke="#000000" d="M687.082,-419.3857C687.082,-406.3487 687.082,-390.559 687.082,-377.2409"/>
<polygon fill="#000000" stroke="#000000" points="690.5821,-377.1898 687.082,-367.1899 683.5821,-377.1899 690.5821,-377.1898"/>
</g>
<!-- 611261&#45;&gt;611245 -->
<g id="edge23" class="edge">
<title>611261&#45;&gt;611245</title>
<path fill="none" stroke="#000000" d="M706.0719,-334.8814C720.3451,-324.2696 740.4775,-309.3016 758.6228,-295.811"/>
<polygon fill="#000000" stroke="#000000" points="760.855,-298.5128 766.7918,-289.7375 756.6784,-292.8952 760.855,-298.5128"/>
</g>
<!-- 611266 -->
<g id="node27" class="node">
<title>611266</title>
<polygon fill="#ebf3ff" stroke="#6666cc" points="748.582,-659 577.582,-659 577.582,-607 748.582,-607 748.582,-659"/>
<text text-anchor="middle" x="663.082" y="-647" font-family="FreeSans" font-size="10.00" fill="#000000">team kosciuszko00219 have no</text>
<text text-anchor="middle" x="663.082" y="-636" font-family="FreeSans" font-size="10.00" fill="#000000">solid intelligence on whether</text>
<text text-anchor="middle" x="663.082" y="-625" font-family="FreeSans" font-size="10.00" fill="#000000">Target B and Target A</text>
<text text-anchor="middle" x="663.082" y="-614" font-family="FreeSans" font-size="10.00" fill="#000000">travelled on the same boats</text>
</g>
<!-- 611268 -->
<g id="node28" class="node">
<title>611268</title>
<polygon fill="#ffe6e6" stroke="#cc6666" points="682.082,-560 605.4028,-542 682.082,-524 758.7612,-542 682.082,-560"/>
<text text-anchor="middle" x="682.082" y="-539.5" font-family="FreeSans" font-size="10.00" fill="#000000">Default Conflict</text>
</g>
<!-- 611266&#45;&gt;611268 -->
<g id="edge24" class="edge">
<title>611266&#45;&gt;611268</title>
<path fill="none" stroke="#000000" d="M668.5776,-606.679C671.0358,-594.9053 673.932,-581.0344 676.4105,-569.1634"/>
<polygon fill="#000000" stroke="#000000" points="679.8419,-569.8533 678.4597,-559.3491 672.9896,-568.4226 679.8419,-569.8533"/>
</g>
<!-- 611271 -->
<g id="node29" class="node">
<title>611271</title>
<polygon fill="#e6ffe6" stroke="#66cc66" points="571.082,-196 486.9179,-178 571.082,-160 655.2461,-178 571.082,-196"/>
<text text-anchor="middle" x="571.082" y="-175.5" font-family="FreeSans" font-size="10.00" fill="#000000">Default Inference</text>
</g>
<!-- 611266&#45;&gt;611271 -->
<g id="edge25" class="edge">
<title>611266&#45;&gt;611271</title>
<path fill="none" stroke="#000000" d="M632.7902,-606.9382C619.6417,-594.073 605.1956,-577.5585 596.082,-560 572.0859,-513.7688 571.082,-497.5878 571.082,-445.5 571.082,-445.5 571.082,-445.5 571.082,-349 571.082,-298.7719 571.082,-240.2449 571.082,-206.3272"/>
<polygon fill="#000000" stroke="#000000" points="574.5821,-206.2214 571.082,-196.2214 567.5821,-206.2215 574.5821,-206.2214"/>
</g>
<!-- 611268&#45;&gt;611259 -->
<g id="edge26" class="edge">
<title>611268&#45;&gt;611259</title>
<path fill="none" stroke="#000000" d="M683.0225,-523.8491C683.6371,-511.987 684.4611,-496.0839 685.2061,-481.7053"/>
<polygon fill="#000000" stroke="#000000" points="688.7083,-481.7522 685.7305,-471.5845 681.7176,-481.3899 688.7083,-481.7522"/>
</g>
<!-- 611271&#45;&gt;611248 -->
<g id="edge27" class="edge">
<title>611271&#45;&gt;611248</title>
<path fill="none" stroke="#000000" d="M597.0195,-165.5C617.4934,-155.6331 646.9456,-141.4392 673.5644,-128.6109"/>
<polygon fill="#000000" stroke="#000000" points="675.3533,-131.6341 682.8423,-124.1396 672.3143,-125.3281 675.3533,-131.6341"/>
</g>
<!-- 611276 -->
<g id="node30" class="node">
<title>611276</title>
<polygon fill="#ebf3ff" stroke="#6666cc" points="1421.582,-653.5 1252.582,-653.5 1252.582,-612.5 1421.582,-612.5 1421.582,-653.5"/>
<text text-anchor="middle" x="1337.082" y="-641.5" font-family="FreeSans" font-size="10.00" fill="#000000">according to evidence from</text>
<text text-anchor="middle" x="1337.082" y="-630.5" font-family="FreeSans" font-size="10.00" fill="#000000">Target B (Fadhlan Mangunsong)</text>
<text text-anchor="middle" x="1337.082" y="-619.5" font-family="FreeSans" font-size="10.00" fill="#000000">he is likely on a holiday</text>
</g>
<!-- 611281 -->
<g id="node31" class="node">
<title>611281</title>
<polygon fill="#ebf3ff" stroke="#6666cc" points="1594.582,-659 1439.582,-659 1439.582,-607 1594.582,-607 1594.582,-659"/>
<text text-anchor="middle" x="1517.082" y="-647" font-family="FreeSans" font-size="10.00" fill="#000000">Target A (Muhamad Sadili</text>
<text text-anchor="middle" x="1517.082" y="-636" font-family="FreeSans" font-size="10.00" fill="#000000">Nazrin bin Aizad) is</text>
<text text-anchor="middle" x="1517.082" y="-625" font-family="FreeSans" font-size="10.00" fill="#000000">unambiguously prepared for</text>
<text text-anchor="middle" x="1517.082" y="-614" font-family="FreeSans" font-size="10.00" fill="#000000">martyrdom</text>
</g>
<!-- 611286 -->
<g id="node32" class="node">
<title>611286</title>
<polygon fill="#ebf3ff" stroke="#6666cc" points="2043.582,-477 1886.582,-477 1886.582,-414 2043.582,-414 2043.582,-477"/>
<text text-anchor="middle" x="1965.082" y="-465" font-family="FreeSans" font-size="10.00" fill="#000000">it is likely that Target A</text>
<text text-anchor="middle" x="1965.082" y="-454" font-family="FreeSans" font-size="10.00" fill="#000000">(Muhamad Sadili Nazrin bin</text>
<text text-anchor="middle" x="1965.082" y="-443" font-family="FreeSans" font-size="10.00" fill="#000000">Aizad) may be attempting to</text>
<text text-anchor="middle" x="1965.082" y="-432" font-family="FreeSans" font-size="10.00" fill="#000000">recruit Target B (Fadlan</text>
<text text-anchor="middle" x="1965.082" y="-421" font-family="FreeSans" font-size="10.00" fill="#000000">Mangunsong) to the cause</text>
</g>
<!-- 611298 -->
<g id="node33" class="node">
<title>611298</title>
<polygon fill="#ffe6e6" stroke="#cc6666" points="1859.082,-367 1782.4028,-349 1859.082,-331 1935.7612,-349 1859.082,-367"/>
<text text-anchor="middle" x="1859.082" y="-346.5" font-family="FreeSans" font-size="10.00" fill="#000000">Default Conflict</text>
</g>
<!-- 611286&#45;&gt;611298 -->
<g id="edge28" class="edge">
<title>611286&#45;&gt;611298</title>
<path fill="none" stroke="#000000" d="M1930.3736,-413.9023C1914.727,-399.6579 1896.656,-383.2065 1882.6231,-370.4312"/>
<polygon fill="#000000" stroke="#000000" points="1884.627,-367.5224 1874.8761,-363.3786 1879.9146,-372.6987 1884.627,-367.5224"/>
</g>
<!-- 611296 -->
<g id="node36" class="node">
<title>611296</title>
<polygon fill="#ebf3ff" stroke="#6666cc" points="1936.582,-295 1779.582,-295 1779.582,-232 1936.582,-232 1936.582,-295"/>
<text text-anchor="middle" x="1858.082" y="-283" font-family="FreeSans" font-size="10.00" fill="#000000">it is not likely that Target A</text>
<text text-anchor="middle" x="1858.082" y="-272" font-family="FreeSans" font-size="10.00" fill="#000000">(Muhamad Sadili Nazrin bin</text>
<text text-anchor="middle" x="1858.082" y="-261" font-family="FreeSans" font-size="10.00" fill="#000000">Aizad) may be attempting to</text>
<text text-anchor="middle" x="1858.082" y="-250" font-family="FreeSans" font-size="10.00" fill="#000000">recruit Target B (Fadlan</text>
<text text-anchor="middle" x="1858.082" y="-239" font-family="FreeSans" font-size="10.00" fill="#000000">Mangunsong) to the cause</text>
</g>
<!-- 611298&#45;&gt;611296 -->
<g id="edge33" class="edge">
<title>611298&#45;&gt;611296</title>
<path fill="none" stroke="#000000" d="M1858.8699,-330.8676C1858.7816,-323.3172 1858.6751,-314.2125 1858.5694,-305.1722"/>
<polygon fill="#000000" stroke="#000000" points="1862.0682,-305.0373 1858.4514,-295.079 1855.0686,-305.1192 1862.0682,-305.0373"/>
</g>
<!-- 611291 -->
<g id="node34" class="node">
<title>611291</title>
<polygon fill="#ebf3ff" stroke="#6666cc" points="2048.582,-670 1897.582,-670 1897.582,-596 2048.582,-596 2048.582,-670"/>
<text text-anchor="middle" x="1973.082" y="-658" font-family="FreeSans" font-size="10.00" fill="#000000">it is highly likely (70%</text>
<text text-anchor="middle" x="1973.082" y="-647" font-family="FreeSans" font-size="10.00" fill="#000000">probability) that Target A</text>
<text text-anchor="middle" x="1973.082" y="-636" font-family="FreeSans" font-size="10.00" fill="#000000">(Muhamad Sadili Nazrin bin</text>
<text text-anchor="middle" x="1973.082" y="-625" font-family="FreeSans" font-size="10.00" fill="#000000">Aizad) is attempting to</text>
<text text-anchor="middle" x="1973.082" y="-614" font-family="FreeSans" font-size="10.00" fill="#000000">recruit Target B (Fadhlan</text>
<text text-anchor="middle" x="1973.082" y="-603" font-family="FreeSans" font-size="10.00" fill="#000000">Mangunsong)</text>
</g>
<!-- 611293 -->
<g id="node35" class="node">
<title>611293</title>
<polygon fill="#eeeeee" stroke="#cccccc" points="1973.082,-560 1888.9179,-542 1973.082,-524 2057.2461,-542 1973.082,-560"/>
<text text-anchor="middle" x="1973.082" y="-539.5" font-family="FreeSans" font-size="10.00" fill="#000000">Default Rephrase</text>
</g>
<!-- 611291&#45;&gt;611293 -->
<g id="edge29" class="edge">
<title>611291&#45;&gt;611293</title>
<path fill="none" stroke="#000000" d="M1973.082,-595.9868C1973.082,-587.3649 1973.082,-578.3214 1973.082,-570.1547"/>
<polygon fill="#000000" stroke="#000000" points="1976.5821,-570.033 1973.082,-560.033 1969.5821,-570.0331 1976.5821,-570.033"/>
</g>
<!-- 611293&#45;&gt;611286 -->
<g id="edge30" class="edge">
<title>611293&#45;&gt;611286</title>
<path fill="none" stroke="#000000" d="M1971.6147,-524.3004C1970.7533,-513.9104 1969.6258,-500.3095 1968.5505,-487.3381"/>
<polygon fill="#000000" stroke="#000000" points="1972.0196,-486.8203 1967.7053,-477.1436 1965.0436,-487.3986 1972.0196,-486.8203"/>
</g>
<!-- 611297 -->
<g id="node37" class="node">
<title>611297</title>
<polygon fill="#ffe6e6" stroke="#cc6666" points="1911.082,-196 1834.4028,-178 1911.082,-160 1987.7612,-178 1911.082,-196"/>
<text text-anchor="middle" x="1911.082" y="-175.5" font-family="FreeSans" font-size="10.00" fill="#000000">Default Conflict</text>
</g>
<!-- 611296&#45;&gt;611297 -->
<g id="edge31" class="edge">
<title>611296&#45;&gt;611297</title>
<path fill="none" stroke="#000000" d="M1877.8173,-231.663C1883.8212,-221.9774 1890.3216,-211.4909 1895.9697,-202.3793"/>
<polygon fill="#000000" stroke="#000000" points="1898.9899,-204.1501 1901.2838,-193.8066 1893.0402,-200.462 1898.9899,-204.1501"/>
</g>
<!-- 611297&#45;&gt;611286 -->
<g id="edge32" class="edge">
<title>611297&#45;&gt;611286</title>
<path fill="none" stroke="#000000" d="M1923.6324,-193.5265C1931.2128,-203.8082 1940.3044,-217.9446 1945.082,-232 1964.5484,-289.2684 1967.3615,-359.8423 1966.8188,-403.7647"/>
<polygon fill="#000000" stroke="#000000" points="1963.3189,-403.7299 1966.6304,-413.7939 1970.3177,-403.8614 1963.3189,-403.7299"/>
</g>
<!-- 611301 -->
<g id="node38" class="node">
<title>611301</title>
<polygon fill="#ebf3ff" stroke="#6666cc" points="2215.582,-659 2066.582,-659 2066.582,-607 2215.582,-607 2215.582,-659"/>
<text text-anchor="middle" x="2141.082" y="-647" font-family="FreeSans" font-size="10.00" fill="#000000">Target B&#39;s (Fadhlan</text>
<text text-anchor="middle" x="2141.082" y="-636" font-family="FreeSans" font-size="10.00" fill="#000000">Mangunsong) possible</text>
<text text-anchor="middle" x="2141.082" y="-625" font-family="FreeSans" font-size="10.00" fill="#000000">radicalisation has not been</text>
<text text-anchor="middle" x="2141.082" y="-614" font-family="FreeSans" font-size="10.00" fill="#000000">determined</text>
</g>
<!-- 611306 -->
<g id="node39" class="node">
<title>611306</title>
<polygon fill="#ebf3ff" stroke="#6666cc" points="1693.082,-488 1529.082,-488 1529.082,-403 1693.082,-403 1693.082,-488"/>
<text text-anchor="middle" x="1611.082" y="-476" font-family="FreeSans" font-size="10.00" fill="#000000">an alternate hypothesis is</text>
<text text-anchor="middle" x="1611.082" y="-465" font-family="FreeSans" font-size="10.00" fill="#000000">that both targets (Muhamad</text>
<text text-anchor="middle" x="1611.082" y="-454" font-family="FreeSans" font-size="10.00" fill="#000000">Sadili Nazrin bin Aizad and</text>
<text text-anchor="middle" x="1611.082" y="-443" font-family="FreeSans" font-size="10.00" fill="#000000">Fadhlan Mangunsong) are part</text>
<text text-anchor="middle" x="1611.082" y="-432" font-family="FreeSans" font-size="10.00" fill="#000000">of a cell attempting to make</text>
<text text-anchor="middle" x="1611.082" y="-421" font-family="FreeSans" font-size="10.00" fill="#000000">their way to fight in the</text>
<text text-anchor="middle" x="1611.082" y="-410" font-family="FreeSans" font-size="10.00" fill="#000000">Philippines ~25% possibility</text>
</g>
<!-- 611308 -->
<g id="node40" class="node">
<title>611308</title>
<polygon fill="#e6ffe6" stroke="#66cc66" points="1645.082,-367 1560.9179,-349 1645.082,-331 1729.2461,-349 1645.082,-367"/>
<text text-anchor="middle" x="1645.082" y="-346.5" font-family="FreeSans" font-size="10.00" fill="#000000">Default Inference</text>
</g>
<!-- 611306&#45;&gt;611308 -->
<g id="edge34" class="edge">
<title>611306&#45;&gt;611308</title>
<path fill="none" stroke="#000000" d="M1626.0939,-402.8928C1629.3821,-393.56 1632.771,-383.9416 1635.7592,-375.4603"/>
<polygon fill="#000000" stroke="#000000" points="1639.1497,-376.3694 1639.1718,-365.7746 1632.5475,-374.0432 1639.1497,-376.3694"/>
</g>
<!-- 611308&#45;&gt;611296 -->
<g id="edge35" class="edge">
<title>611308&#45;&gt;611296</title>
<path fill="none" stroke="#000000" d="M1674.6987,-337.1116C1699.3575,-327.2134 1735.7909,-312.5887 1769.6996,-298.9774"/>
<polygon fill="#000000" stroke="#000000" points="1771.2084,-302.1433 1779.1848,-295.17 1768.6007,-295.6471 1771.2084,-302.1433"/>
</g>
<!-- 611313 -->
<g id="node41" class="node">
<title>611313</title>
<polygon fill="#ebf3ff" stroke="#6666cc" points="1783.082,-664.5 1613.082,-664.5 1613.082,-601.5 1783.082,-601.5 1783.082,-664.5"/>
<text text-anchor="middle" x="1698.082" y="-652.5" font-family="FreeSans" font-size="10.00" fill="#000000">it would be unwise for the</text>
<text text-anchor="middle" x="1698.082" y="-641.5" font-family="FreeSans" font-size="10.00" fill="#000000">targets (Muhamad Sadili Nazrin</text>
<text text-anchor="middle" x="1698.082" y="-630.5" font-family="FreeSans" font-size="10.00" fill="#000000">bin Aizad and Fadhlan</text>
<text text-anchor="middle" x="1698.082" y="-619.5" font-family="FreeSans" font-size="10.00" fill="#000000">Mangunsong) to have meeting</text>
<text text-anchor="middle" x="1698.082" y="-608.5" font-family="FreeSans" font-size="10.00" fill="#000000">points prior to an attack</text>
</g>
<!-- 611315 -->
<g id="node42" class="node">
<title>611315</title>
<polygon fill="#ffe6e6" stroke="#cc6666" points="1608.082,-560 1531.4028,-542 1608.082,-524 1684.7612,-542 1608.082,-560"/>
<text text-anchor="middle" x="1608.082" y="-539.5" font-family="FreeSans" font-size="10.00" fill="#000000">Default Conflict</text>
</g>
<!-- 611313&#45;&gt;611315 -->
<g id="edge36" class="edge">
<title>611313&#45;&gt;611315</title>
<path fill="none" stroke="#000000" d="M1666.857,-601.428C1654.6468,-589.0822 1640.9392,-575.2223 1629.8351,-563.9948"/>
<polygon fill="#000000" stroke="#000000" points="1632.1344,-561.3423 1622.6139,-556.6934 1627.1573,-566.2646 1632.1344,-561.3423"/>
</g>
<!-- 611322 -->
<g id="node43" class="node">
<title>611322</title>
<polygon fill="#e6ffe6" stroke="#66cc66" points="1787.082,-560 1702.9179,-542 1787.082,-524 1871.2461,-542 1787.082,-560"/>
<text text-anchor="middle" x="1787.082" y="-539.5" font-family="FreeSans" font-size="10.00" fill="#000000">Default Inference</text>
</g>
<!-- 611313&#45;&gt;611322 -->
<g id="edge37" class="edge">
<title>611313&#45;&gt;611322</title>
<path fill="none" stroke="#000000" d="M1728.9601,-601.428C1740.8714,-589.249 1754.2238,-575.5966 1765.1241,-564.4514"/>
<polygon fill="#000000" stroke="#000000" points="1767.7409,-566.7814 1772.2308,-557.1849 1762.7365,-561.8869 1767.7409,-566.7814"/>
</g>
<!-- 611315&#45;&gt;611306 -->
<g id="edge38" class="edge">
<title>611315&#45;&gt;611306</title>
<path fill="none" stroke="#000000" d="M1608.6463,-523.8491C1608.8732,-516.5501 1609.1477,-507.7212 1609.4294,-498.6588"/>
<polygon fill="#000000" stroke="#000000" points="1612.9359,-498.501 1609.7484,-488.3971 1605.9393,-498.2834 1612.9359,-498.501"/>
</g>
<!-- 611320 -->
<g id="node44" class="node">
<title>611320</title>
<polygon fill="#ebf3ff" stroke="#6666cc" points="1860.082,-466 1714.082,-466 1714.082,-425 1860.082,-425 1860.082,-466"/>
<text text-anchor="middle" x="1787.082" y="-454" font-family="FreeSans" font-size="10.00" fill="#000000">the targets meeting would</text>
<text text-anchor="middle" x="1787.082" y="-443" font-family="FreeSans" font-size="10.00" fill="#000000">increase their chances of</text>
<text text-anchor="middle" x="1787.082" y="-432" font-family="FreeSans" font-size="10.00" fill="#000000">discovery</text>
</g>
<!-- 611322&#45;&gt;611320 -->
<g id="edge39" class="edge">
<title>611322&#45;&gt;611320</title>
<path fill="none" stroke="#000000" d="M1787.082,-523.8491C1787.082,-510.5411 1787.082,-492.1467 1787.082,-476.5251"/>
<polygon fill="#000000" stroke="#000000" points="1790.5821,-476.2498 1787.082,-466.2498 1783.5821,-476.2499 1790.5821,-476.2498"/>
</g>
</g>
</svg>
