<?xml version="1.0" encoding="UTF-8" standalone="no"?>
<!DOCTYPE svg PUBLIC "-//W3C//DTD SVG 1.1//EN"
 "http://www.w3.org/Graphics/SVG/1.1/DTD/svg11.dtd">
<!-- Generated by graphviz version 2.40.1 (20161225.0304)
 -->
<!-- Title: nodeset19401 Pages: 1 -->
<svg width="2329pt" height="854pt"
 viewBox="0.00 0.00 2328.58 854.00" xmlns="http://www.w3.org/2000/svg" xmlns:xlink="http://www.w3.org/1999/xlink">
<g id="graph0" class="graph" transform="scale(1 1) rotate(0) translate(4 850)">
<title>nodeset19401</title>
<polygon fill="#ffffff" stroke="transparent" points="-4,4 -4,-850 2324.582,-850 2324.582,4 -4,4"/>
<!-- 610819 -->
<g id="node1" class="node">
<title>610819</title>
<polygon fill="#ebf3ff" stroke="#6666cc" points="531.5,-317 381.5,-317 381.5,-265 531.5,-265 531.5,-317"/>
<text text-anchor="middle" x="456.5" y="-305" font-family="FreeSans" font-size="10.00" fill="#000000">it is assessed as unlikely</text>
<text text-anchor="middle" x="456.5" y="-294" font-family="FreeSans" font-size="10.00" fill="#000000">that Target B (Fadhlan</text>
<text text-anchor="middle" x="456.5" y="-283" font-family="FreeSans" font-size="10.00" fill="#000000">Mangunsong) is involved in</text>
<text text-anchor="middle" x="456.5" y="-272" font-family="FreeSans" font-size="10.00" fill="#000000">militant activities</text>
</g>
<!-- 610823 -->
<g id="node2" class="node">
<title>610823</title>
<polygon fill="#ffe6e6" stroke="#cc6666" points="404.5,-218 327.8208,-200 404.5,-182 481.1792,-200 404.5,-218"/>
<text text-anchor="middle" x="404.5" y="-197.5" font-family="FreeSans" font-size="10.00" fill="#000000">Default Conflict</text>
</g>
<!-- 610819&#45;&gt;610823 -->
<g id="edge1" class="edge">
<title>610819&#45;&gt;610823</title>
<path fill="none" stroke="#000000" d="M441.4594,-264.679C434.2887,-252.1302 425.7566,-237.1991 418.6978,-224.8461"/>
<polygon fill="#000000" stroke="#000000" points="421.6343,-222.9304 413.634,-215.9845 415.5566,-226.4034 421.6343,-222.9304"/>
</g>
<!-- 610821 -->
<g id="node3" class="node">
<title>610821</title>
<polygon fill="#ebf3ff" stroke="#6666cc" points="473,-135 336,-135 336,-83 473,-83 473,-135"/>
<text text-anchor="middle" x="404.5" y="-123" font-family="FreeSans" font-size="10.00" fill="#000000">it is likely that Target B</text>
<text text-anchor="middle" x="404.5" y="-112" font-family="FreeSans" font-size="10.00" fill="#000000">(Fadhlan Mangunsong) is</text>
<text text-anchor="middle" x="404.5" y="-101" font-family="FreeSans" font-size="10.00" fill="#000000">involved in militant</text>
<text text-anchor="middle" x="404.5" y="-90" font-family="FreeSans" font-size="10.00" fill="#000000">activities</text>
</g>
<!-- 610823&#45;&gt;610821 -->
<g id="edge4" class="edge">
<title>610823&#45;&gt;610821</title>
<path fill="none" stroke="#000000" d="M404.5,-181.5848C404.5,-171.1979 404.5,-157.8502 404.5,-145.4397"/>
<polygon fill="#000000" stroke="#000000" points="408.0001,-145.3209 404.5,-135.321 401.0001,-145.321 408.0001,-145.3209"/>
</g>
<!-- 610822 -->
<g id="node4" class="node">
<title>610822</title>
<polygon fill="#ffe6e6" stroke="#cc6666" points="457.5,-36 380.8208,-18 457.5,0 534.1792,-18 457.5,-36"/>
<text text-anchor="middle" x="457.5" y="-15.5" font-family="FreeSans" font-size="10.00" fill="#000000">Default Conflict</text>
</g>
<!-- 610821&#45;&gt;610822 -->
<g id="edge2" class="edge">
<title>610821&#45;&gt;610822</title>
<path fill="none" stroke="#000000" d="M419.8298,-82.679C427.1384,-70.1302 435.8346,-55.1991 443.0292,-42.8461"/>
<polygon fill="#000000" stroke="#000000" points="446.182,-44.3872 448.1904,-33.9845 440.1331,-40.8642 446.182,-44.3872"/>
</g>
<!-- 610822&#45;&gt;610819 -->
<g id="edge3" class="edge">
<title>610822&#45;&gt;610819</title>
<path fill="none" stroke="#000000" d="M466.3402,-34.0274C471.6835,-44.5089 478.0998,-58.6798 481.5,-72 490.3755,-106.7695 497.7348,-185.3306 490.5,-218 487.6377,-230.9249 482.2414,-244.2756 476.5771,-255.9687"/>
<polygon fill="#000000" stroke="#000000" points="473.4231,-254.4497 472.0204,-264.9513 479.6658,-257.6166 473.4231,-254.4497"/>
</g>
<!-- 610827 -->
<g id="node5" class="node">
<title>610827</title>
<polygon fill="#ebf3ff" stroke="#6666cc" points="169,-537.5 0,-537.5 0,-485.5 169,-485.5 169,-537.5"/>
<text text-anchor="middle" x="84.5" y="-525.5" font-family="FreeSans" font-size="10.00" fill="#000000">known intelligence at this</text>
<text text-anchor="middle" x="84.5" y="-514.5" font-family="FreeSans" font-size="10.00" fill="#000000">point does not indicate any</text>
<text text-anchor="middle" x="84.5" y="-503.5" font-family="FreeSans" font-size="10.00" fill="#000000">extremist motivation for</text>
<text text-anchor="middle" x="84.5" y="-492.5" font-family="FreeSans" font-size="10.00" fill="#000000">Target B (Fadhlan Mangunsong)</text>
</g>
<!-- 610829 -->
<g id="node6" class="node">
<title>610829</title>
<polygon fill="#e6ffe6" stroke="#66cc66" points="84.5,-400 .3359,-382 84.5,-364 168.6641,-382 84.5,-400"/>
<text text-anchor="middle" x="84.5" y="-379.5" font-family="FreeSans" font-size="10.00" fill="#000000">Default Inference</text>
</g>
<!-- 610827&#45;&gt;610829 -->
<g id="edge5" class="edge">
<title>610827&#45;&gt;610829</title>
<path fill="none" stroke="#000000" d="M84.5,-485.2937C84.5,-463.5721 84.5,-432.7514 84.5,-410.4357"/>
<polygon fill="#000000" stroke="#000000" points="88.0001,-410.241 84.5,-400.241 81.0001,-410.2411 88.0001,-410.241"/>
</g>
<!-- 610829&#45;&gt;610819 -->
<g id="edge6" class="edge">
<title>610829&#45;&gt;610819</title>
<path fill="none" stroke="#000000" d="M126.215,-372.9156C173.2856,-362.5485 252.0815,-344.8435 319.5,-328 336.2838,-323.8068 354.1677,-319.1302 371.2853,-314.5509"/>
<polygon fill="#000000" stroke="#000000" points="372.5121,-317.8454 381.2613,-311.8702 370.6956,-311.0852 372.5121,-317.8454"/>
</g>
<!-- 610835 -->
<g id="node7" class="node">
<title>610835</title>
<polygon fill="#ebf3ff" stroke="#6666cc" points="354,-537.5 187,-537.5 187,-485.5 354,-485.5 354,-537.5"/>
<text text-anchor="middle" x="270.5" y="-525.5" font-family="FreeSans" font-size="10.00" fill="#000000">no firearms or explosives were</text>
<text text-anchor="middle" x="270.5" y="-514.5" font-family="FreeSans" font-size="10.00" fill="#000000">located in Target B’s</text>
<text text-anchor="middle" x="270.5" y="-503.5" font-family="FreeSans" font-size="10.00" fill="#000000">(Fadhlan Mangunsong)</text>
<text text-anchor="middle" x="270.5" y="-492.5" font-family="FreeSans" font-size="10.00" fill="#000000">possession</text>
</g>
<!-- 610837 -->
<g id="node8" class="node">
<title>610837</title>
<polygon fill="#e6ffe6" stroke="#66cc66" points="270.5,-400 186.3359,-382 270.5,-364 354.6641,-382 270.5,-400"/>
<text text-anchor="middle" x="270.5" y="-379.5" font-family="FreeSans" font-size="10.00" fill="#000000">Default Inference</text>
</g>
<!-- 610835&#45;&gt;610837 -->
<g id="edge7" class="edge">
<title>610835&#45;&gt;610837</title>
<path fill="none" stroke="#000000" d="M270.5,-485.2937C270.5,-463.5721 270.5,-432.7514 270.5,-410.4357"/>
<polygon fill="#000000" stroke="#000000" points="274.0001,-410.241 270.5,-400.241 267.0001,-410.2411 274.0001,-410.241"/>
</g>
<!-- 610837&#45;&gt;610819 -->
<g id="edge8" class="edge">
<title>610837&#45;&gt;610819</title>
<path fill="none" stroke="#000000" d="M296.3625,-369.3468C321.5452,-357.0263 360.7907,-337.8255 394.1264,-321.5161"/>
<polygon fill="#000000" stroke="#000000" points="395.9111,-324.5395 403.3555,-317.0008 392.8347,-318.2517 395.9111,-324.5395"/>
</g>
<!-- 610842 -->
<g id="node9" class="node">
<title>610842</title>
<polygon fill="#ebf3ff" stroke="#6666cc" points="1657,-532 1488,-532 1488,-491 1657,-491 1657,-532"/>
<text text-anchor="middle" x="1572.5" y="-520" font-family="FreeSans" font-size="10.00" fill="#000000">Target B (Fadhlan Mangunsong)</text>
<text text-anchor="middle" x="1572.5" y="-509" font-family="FreeSans" font-size="10.00" fill="#000000">is likely Indonesian and a</text>
<text text-anchor="middle" x="1572.5" y="-498" font-family="FreeSans" font-size="10.00" fill="#000000">Muslim</text>
</g>
<!-- 610847 -->
<g id="node10" class="node">
<title>610847</title>
<polygon fill="#ebf3ff" stroke="#6666cc" points="1657.5,-791 1487.5,-791 1487.5,-750 1657.5,-750 1657.5,-791"/>
<text text-anchor="middle" x="1572.5" y="-779" font-family="FreeSans" font-size="10.00" fill="#000000">Target B (Fadhlan Mangunsong)</text>
<text text-anchor="middle" x="1572.5" y="-768" font-family="FreeSans" font-size="10.00" fill="#000000">has a passport and Koran found</text>
<text text-anchor="middle" x="1572.5" y="-757" font-family="FreeSans" font-size="10.00" fill="#000000">in his possession</text>
</g>
<!-- 610850 -->
<g id="node11" class="node">
<title>610850</title>
<polygon fill="#e6ffe6" stroke="#66cc66" points="1572.5,-659 1488.3359,-641 1572.5,-623 1656.6641,-641 1572.5,-659"/>
<text text-anchor="middle" x="1572.5" y="-638.5" font-family="FreeSans" font-size="10.00" fill="#000000">Default Inference</text>
</g>
<!-- 610847&#45;&gt;610850 -->
<g id="edge9" class="edge">
<title>610847&#45;&gt;610850</title>
<path fill="none" stroke="#000000" d="M1572.5,-749.9803C1572.5,-728.2363 1572.5,-693.745 1572.5,-669.398"/>
<polygon fill="#000000" stroke="#000000" points="1576.0001,-669.3298 1572.5,-659.3298 1569.0001,-669.3299 1576.0001,-669.3298"/>
</g>
<!-- 610850&#45;&gt;610842 -->
<g id="edge10" class="edge">
<title>610850&#45;&gt;610842</title>
<path fill="none" stroke="#000000" d="M1572.5,-622.9936C1572.5,-602.1963 1572.5,-567.6227 1572.5,-542.4812"/>
<polygon fill="#000000" stroke="#000000" points="1576.0001,-542.3513 1572.5,-532.3514 1569.0001,-542.3514 1576.0001,-542.3513"/>
</g>
<!-- 610854 -->
<g id="node12" class="node">
<title>610854</title>
<polygon fill="#ebf3ff" stroke="#6666cc" points="540,-537.5 373,-537.5 373,-485.5 540,-485.5 540,-537.5"/>
<text text-anchor="middle" x="456.5" y="-525.5" font-family="FreeSans" font-size="10.00" fill="#000000">the items found in Target B&#39;s</text>
<text text-anchor="middle" x="456.5" y="-514.5" font-family="FreeSans" font-size="10.00" fill="#000000">(Fadhlan Mangunsong)</text>
<text text-anchor="middle" x="456.5" y="-503.5" font-family="FreeSans" font-size="10.00" fill="#000000">possession are consistent with</text>
<text text-anchor="middle" x="456.5" y="-492.5" font-family="FreeSans" font-size="10.00" fill="#000000">a sightseeing holiday</text>
</g>
<!-- 610856 -->
<g id="node13" class="node">
<title>610856</title>
<polygon fill="#e6ffe6" stroke="#66cc66" points="456.5,-400 372.3359,-382 456.5,-364 540.6641,-382 456.5,-400"/>
<text text-anchor="middle" x="456.5" y="-379.5" font-family="FreeSans" font-size="10.00" fill="#000000">Default Inference</text>
</g>
<!-- 610854&#45;&gt;610856 -->
<g id="edge11" class="edge">
<title>610854&#45;&gt;610856</title>
<path fill="none" stroke="#000000" d="M456.5,-485.2937C456.5,-463.5721 456.5,-432.7514 456.5,-410.4357"/>
<polygon fill="#000000" stroke="#000000" points="460.0001,-410.241 456.5,-400.241 453.0001,-410.2411 460.0001,-410.241"/>
</g>
<!-- 610856&#45;&gt;610819 -->
<g id="edge12" class="edge">
<title>610856&#45;&gt;610819</title>
<path fill="none" stroke="#000000" d="M456.5,-363.5848C456.5,-353.1979 456.5,-339.8502 456.5,-327.4397"/>
<polygon fill="#000000" stroke="#000000" points="460.0001,-327.3209 456.5,-317.321 453.0001,-327.321 460.0001,-327.3209"/>
</g>
<!-- 610861 -->
<g id="node14" class="node">
<title>610861</title>
<polygon fill="#ebf3ff" stroke="#6666cc" points="450,-813 285,-813 285,-728 450,-728 450,-813"/>
<text text-anchor="middle" x="367.5" y="-801" font-family="FreeSans" font-size="10.00" fill="#000000">the island of Camaguin,</text>
<text text-anchor="middle" x="367.5" y="-790" font-family="FreeSans" font-size="10.00" fill="#000000">circled and marked with a star</text>
<text text-anchor="middle" x="367.5" y="-779" font-family="FreeSans" font-size="10.00" fill="#000000">on the map found in Target</text>
<text text-anchor="middle" x="367.5" y="-768" font-family="FreeSans" font-size="10.00" fill="#000000">B&#39;s (Fadhlan Mangunsong)</text>
<text text-anchor="middle" x="367.5" y="-757" font-family="FreeSans" font-size="10.00" fill="#000000">possession, is known to be a</text>
<text text-anchor="middle" x="367.5" y="-746" font-family="FreeSans" font-size="10.00" fill="#000000">nature lover’s theme park</text>
<text text-anchor="middle" x="367.5" y="-735" font-family="FreeSans" font-size="10.00" fill="#000000">for trekking</text>
</g>
<!-- 610863 -->
<g id="node15" class="node">
<title>610863</title>
<polygon fill="#e6ffe6" stroke="#66cc66" points="456.5,-659 372.3359,-641 456.5,-623 540.6641,-641 456.5,-659"/>
<text text-anchor="middle" x="456.5" y="-638.5" font-family="FreeSans" font-size="10.00" fill="#000000">Default Inference</text>
</g>
<!-- 610861&#45;&gt;610863 -->
<g id="edge13" class="edge">
<title>610861&#45;&gt;610863</title>
<path fill="none" stroke="#000000" d="M396.8886,-727.738C411.117,-707.0347 427.6844,-682.9284 439.7369,-665.3913"/>
<polygon fill="#000000" stroke="#000000" points="442.8122,-667.0959 445.5917,-656.8722 437.0433,-663.1311 442.8122,-667.0959"/>
</g>
<!-- 610863&#45;&gt;610854 -->
<g id="edge14" class="edge">
<title>610863&#45;&gt;610854</title>
<path fill="none" stroke="#000000" d="M456.5,-622.9936C456.5,-603.6557 456.5,-572.4073 456.5,-547.9055"/>
<polygon fill="#000000" stroke="#000000" points="460.0001,-547.8721 456.5,-537.8721 453.0001,-547.8721 460.0001,-547.8721"/>
</g>
<!-- 610866 -->
<g id="node16" class="node">
<title>610866</title>
<polygon fill="#ebf3ff" stroke="#6666cc" points="623,-796.5 468,-796.5 468,-744.5 623,-744.5 623,-796.5"/>
<text text-anchor="middle" x="545.5" y="-784.5" font-family="FreeSans" font-size="10.00" fill="#000000">the compass found in Target</text>
<text text-anchor="middle" x="545.5" y="-773.5" font-family="FreeSans" font-size="10.00" fill="#000000">B&#39;s (Fadhlan Mangunsong) </text>
<text text-anchor="middle" x="545.5" y="-762.5" font-family="FreeSans" font-size="10.00" fill="#000000">possession is also used as a</text>
<text text-anchor="middle" x="545.5" y="-751.5" font-family="FreeSans" font-size="10.00" fill="#000000">speciality diving equipment</text>
</g>
<!-- 610866&#45;&gt;610863 -->
<g id="edge15" class="edge">
<title>610866&#45;&gt;610863</title>
<path fill="none" stroke="#000000" d="M527.4895,-744.2937C511.6159,-721.1967 488.6719,-687.8119 473.2028,-665.3035"/>
<polygon fill="#000000" stroke="#000000" points="476.0202,-663.2234 467.4717,-656.9644 470.2512,-667.1882 476.0202,-663.2234"/>
</g>
<!-- 610873 -->
<g id="node17" class="node">
<title>610873</title>
<polygon fill="#ebf3ff" stroke="#6666cc" points="997,-548.5 846,-548.5 846,-474.5 997,-474.5 997,-548.5"/>
<text text-anchor="middle" x="921.5" y="-536.5" font-family="FreeSans" font-size="10.00" fill="#000000">it is assessed that Target</text>
<text text-anchor="middle" x="921.5" y="-525.5" font-family="FreeSans" font-size="10.00" fill="#000000">B’s (Fadhlan Mangunsong)</text>
<text text-anchor="middle" x="921.5" y="-514.5" font-family="FreeSans" font-size="10.00" fill="#000000">presence at the resort was</text>
<text text-anchor="middle" x="921.5" y="-503.5" font-family="FreeSans" font-size="10.00" fill="#000000">coincidental to Target A</text>
<text text-anchor="middle" x="921.5" y="-492.5" font-family="FreeSans" font-size="10.00" fill="#000000">(Muhamad Sadili Nazrin bin</text>
<text text-anchor="middle" x="921.5" y="-481.5" font-family="FreeSans" font-size="10.00" fill="#000000">Aizad)</text>
</g>
<!-- 610875 -->
<g id="node18" class="node">
<title>610875</title>
<polygon fill="#e6ffe6" stroke="#66cc66" points="828.5,-400 744.3359,-382 828.5,-364 912.6641,-382 828.5,-400"/>
<text text-anchor="middle" x="828.5" y="-379.5" font-family="FreeSans" font-size="10.00" fill="#000000">Default Inference</text>
</g>
<!-- 610873&#45;&gt;610875 -->
<g id="edge16" class="edge">
<title>610873&#45;&gt;610875</title>
<path fill="none" stroke="#000000" d="M894.8499,-474.3905C879.0244,-452.3538 859.4225,-425.0587 845.6417,-405.8694"/>
<polygon fill="#000000" stroke="#000000" points="848.4302,-403.752 839.7541,-397.6711 842.7444,-407.8352 848.4302,-403.752"/>
</g>
<!-- 610882 -->
<g id="node19" class="node">
<title>610882</title>
<polygon fill="#e6ffe6" stroke="#66cc66" points="1014.5,-400 930.3359,-382 1014.5,-364 1098.6641,-382 1014.5,-400"/>
<text text-anchor="middle" x="1014.5" y="-379.5" font-family="FreeSans" font-size="10.00" fill="#000000">Default Inference</text>
</g>
<!-- 610873&#45;&gt;610882 -->
<g id="edge17" class="edge">
<title>610873&#45;&gt;610882</title>
<path fill="none" stroke="#000000" d="M948.1501,-474.3905C963.9756,-452.3538 983.5775,-425.0587 997.3583,-405.8694"/>
<polygon fill="#000000" stroke="#000000" points="1000.2556,-407.8352 1003.2459,-397.6711 994.5698,-403.752 1000.2556,-407.8352"/>
</g>
<!-- 610875&#45;&gt;610819 -->
<g id="edge18" class="edge">
<title>610875&#45;&gt;610819</title>
<path fill="none" stroke="#000000" d="M789.0417,-372.3476C730.4936,-358.0253 619.1903,-330.7979 541.5514,-311.8056"/>
<polygon fill="#000000" stroke="#000000" points="542.3263,-308.392 531.7811,-309.4155 540.663,-315.1915 542.3263,-308.392"/>
</g>
<!-- 610880 -->
<g id="node20" class="node">
<title>610880</title>
<polygon fill="#ebf3ff" stroke="#6666cc" points="1285,-328 1116,-328 1116,-254 1285,-254 1285,-328"/>
<text text-anchor="middle" x="1200.5" y="-316" font-family="FreeSans" font-size="10.00" fill="#000000">it is possible that Target A</text>
<text text-anchor="middle" x="1200.5" y="-305" font-family="FreeSans" font-size="10.00" fill="#000000">(Muhamad Sadili Nazrin bin</text>
<text text-anchor="middle" x="1200.5" y="-294" font-family="FreeSans" font-size="10.00" fill="#000000">Aizad) was trying to recruit</text>
<text text-anchor="middle" x="1200.5" y="-283" font-family="FreeSans" font-size="10.00" fill="#000000">Target B (Fadhlan Mangunsong)</text>
<text text-anchor="middle" x="1200.5" y="-272" font-family="FreeSans" font-size="10.00" fill="#000000">after a chance meeting at the</text>
<text text-anchor="middle" x="1200.5" y="-261" font-family="FreeSans" font-size="10.00" fill="#000000">resort</text>
</g>
<!-- 610882&#45;&gt;610880 -->
<g id="edge20" class="edge">
<title>610882&#45;&gt;610880</title>
<path fill="none" stroke="#000000" d="M1040.3625,-369.3468C1060.0028,-359.7379 1088.1971,-345.9439 1115.4704,-332.6005"/>
<polygon fill="#000000" stroke="#000000" points="1117.2262,-335.638 1124.6706,-328.0993 1114.1499,-329.3502 1117.2262,-335.638"/>
</g>
<!-- 610888 -->
<g id="node21" class="node">
<title>610888</title>
<polygon fill="#ffe6e6" stroke="#cc6666" points="1255.5,-218 1178.8208,-200 1255.5,-182 1332.1792,-200 1255.5,-218"/>
<text text-anchor="middle" x="1255.5" y="-197.5" font-family="FreeSans" font-size="10.00" fill="#000000">Default Conflict</text>
</g>
<!-- 610880&#45;&gt;610888 -->
<g id="edge19" class="edge">
<title>610880&#45;&gt;610888</title>
<path fill="none" stroke="#000000" d="M1222.8706,-253.9868C1228.7861,-244.1993 1235.03,-233.8686 1240.4543,-224.8939"/>
<polygon fill="#000000" stroke="#000000" points="1243.5849,-226.4805 1245.7621,-216.1118 1237.5941,-222.8597 1243.5849,-226.4805"/>
</g>
<!-- 610885 -->
<g id="node22" class="node">
<title>610885</title>
<polygon fill="#ebf3ff" stroke="#6666cc" points="1343,-146 1174,-146 1174,-72 1343,-72 1343,-146"/>
<text text-anchor="middle" x="1258.5" y="-134" font-family="FreeSans" font-size="10.00" fill="#000000">it is not possible that Target</text>
<text text-anchor="middle" x="1258.5" y="-123" font-family="FreeSans" font-size="10.00" fill="#000000">A (Muhamad Sadili Nazrin bin</text>
<text text-anchor="middle" x="1258.5" y="-112" font-family="FreeSans" font-size="10.00" fill="#000000">Aizad) was trying to recruit</text>
<text text-anchor="middle" x="1258.5" y="-101" font-family="FreeSans" font-size="10.00" fill="#000000">Target B (Fadhlan Mangunsong)</text>
<text text-anchor="middle" x="1258.5" y="-90" font-family="FreeSans" font-size="10.00" fill="#000000">after a chance meeting at the</text>
<text text-anchor="middle" x="1258.5" y="-79" font-family="FreeSans" font-size="10.00" fill="#000000">resort</text>
</g>
<!-- 610888&#45;&gt;610885 -->
<g id="edge23" class="edge">
<title>610888&#45;&gt;610885</title>
<path fill="none" stroke="#000000" d="M1256.0927,-182.0213C1256.3384,-174.5698 1256.636,-165.5409 1256.9371,-156.4092"/>
<polygon fill="#000000" stroke="#000000" points="1260.4443,-156.2441 1257.2758,-146.1342 1253.4481,-156.0134 1260.4443,-156.2441"/>
</g>
<!-- 610887 -->
<g id="node23" class="node">
<title>610887</title>
<polygon fill="#ffe6e6" stroke="#cc6666" points="1202.5,-36 1125.8208,-18 1202.5,0 1279.1792,-18 1202.5,-36"/>
<text text-anchor="middle" x="1202.5" y="-15.5" font-family="FreeSans" font-size="10.00" fill="#000000">Default Conflict</text>
</g>
<!-- 610885&#45;&gt;610887 -->
<g id="edge21" class="edge">
<title>610885&#45;&gt;610887</title>
<path fill="none" stroke="#000000" d="M1235.7227,-71.9868C1229.6996,-62.1993 1223.3422,-51.8686 1217.8193,-42.8939"/>
<polygon fill="#000000" stroke="#000000" points="1220.6368,-40.794 1212.4149,-34.1118 1214.6752,-44.4627 1220.6368,-40.794"/>
</g>
<!-- 610887&#45;&gt;610880 -->
<g id="edge22" class="edge">
<title>610887&#45;&gt;610880</title>
<path fill="none" stroke="#000000" d="M1187.9939,-33.1249C1179.3305,-43.2464 1169.1364,-57.3552 1164.5,-72 1144.9036,-133.899 1154.3534,-154.8645 1169.5,-218 1171.6004,-226.7552 1174.6504,-235.8006 1178.0279,-244.4168"/>
<polygon fill="#000000" stroke="#000000" points="1174.8999,-246.0126 1181.9471,-253.9239 1181.3716,-243.3447 1174.8999,-246.0126"/>
</g>
<!-- 610891 -->
<g id="node24" class="node">
<title>610891</title>
<polygon fill="#ebf3ff" stroke="#6666cc" points="1469.5,-565 1303.5,-565 1303.5,-458 1469.5,-458 1469.5,-565"/>
<text text-anchor="middle" x="1386.5" y="-553" font-family="FreeSans" font-size="10.00" fill="#000000">HUMINT (resort staff) advised</text>
<text text-anchor="middle" x="1386.5" y="-542" font-family="FreeSans" font-size="10.00" fill="#000000">that Target B (Fadhlan</text>
<text text-anchor="middle" x="1386.5" y="-531" font-family="FreeSans" font-size="10.00" fill="#000000">Mangunson) had arrived at the</text>
<text text-anchor="middle" x="1386.5" y="-520" font-family="FreeSans" font-size="10.00" fill="#000000">resort three days ago and that</text>
<text text-anchor="middle" x="1386.5" y="-509" font-family="FreeSans" font-size="10.00" fill="#000000">Target B had been observed in</text>
<text text-anchor="middle" x="1386.5" y="-498" font-family="FreeSans" font-size="10.00" fill="#000000">long conversations with Target</text>
<text text-anchor="middle" x="1386.5" y="-487" font-family="FreeSans" font-size="10.00" fill="#000000">A (Muhamad Sadili Nazrin bin</text>
<text text-anchor="middle" x="1386.5" y="-476" font-family="FreeSans" font-size="10.00" fill="#000000">Aizad) multiple times over the</text>
<text text-anchor="middle" x="1386.5" y="-465" font-family="FreeSans" font-size="10.00" fill="#000000">last few days</text>
</g>
<!-- 610893 -->
<g id="node25" class="node">
<title>610893</title>
<polygon fill="#e6ffe6" stroke="#66cc66" points="1386.5,-400 1302.3359,-382 1386.5,-364 1470.6641,-382 1386.5,-400"/>
<text text-anchor="middle" x="1386.5" y="-379.5" font-family="FreeSans" font-size="10.00" fill="#000000">Default Inference</text>
</g>
<!-- 610891&#45;&gt;610893 -->
<g id="edge24" class="edge">
<title>610891&#45;&gt;610893</title>
<path fill="none" stroke="#000000" d="M1386.5,-457.7054C1386.5,-441.4746 1386.5,-424.298 1386.5,-410.416"/>
<polygon fill="#000000" stroke="#000000" points="1390.0001,-410.0703 1386.5,-400.0703 1383.0001,-410.0703 1390.0001,-410.0703"/>
</g>
<!-- 610893&#45;&gt;610880 -->
<g id="edge25" class="edge">
<title>610893&#45;&gt;610880</title>
<path fill="none" stroke="#000000" d="M1360.6375,-369.3468C1340.9972,-359.7379 1312.8029,-345.9439 1285.5296,-332.6005"/>
<polygon fill="#000000" stroke="#000000" points="1286.8501,-329.3502 1276.3294,-328.0993 1283.7738,-335.638 1286.8501,-329.3502"/>
</g>
<!-- 610898 -->
<g id="node26" class="node">
<title>610898</title>
<polygon fill="#ebf3ff" stroke="#6666cc" points="1282,-559.5 1119,-559.5 1119,-463.5 1282,-463.5 1282,-559.5"/>
<text text-anchor="middle" x="1200.5" y="-547.5" font-family="FreeSans" font-size="10.00" fill="#000000">the pamphlets found in Target</text>
<text text-anchor="middle" x="1200.5" y="-536.5" font-family="FreeSans" font-size="10.00" fill="#000000">B’s (Fadhlan Mangunsong)</text>
<text text-anchor="middle" x="1200.5" y="-525.5" font-family="FreeSans" font-size="10.00" fill="#000000">possession were identical to</text>
<text text-anchor="middle" x="1200.5" y="-514.5" font-family="FreeSans" font-size="10.00" fill="#000000">those pamphlets on Islamic</text>
<text text-anchor="middle" x="1200.5" y="-503.5" font-family="FreeSans" font-size="10.00" fill="#000000">ritual, ethics and practice to</text>
<text text-anchor="middle" x="1200.5" y="-492.5" font-family="FreeSans" font-size="10.00" fill="#000000">those found in Target A’s</text>
<text text-anchor="middle" x="1200.5" y="-481.5" font-family="FreeSans" font-size="10.00" fill="#000000">(Muhamad Sadili Nazrin bin</text>
<text text-anchor="middle" x="1200.5" y="-470.5" font-family="FreeSans" font-size="10.00" fill="#000000">Aizad) room</text>
</g>
<!-- 610900 -->
<g id="node27" class="node">
<title>610900</title>
<polygon fill="#e6ffe6" stroke="#66cc66" points="1200.5,-400 1116.3359,-382 1200.5,-364 1284.6641,-382 1200.5,-400"/>
<text text-anchor="middle" x="1200.5" y="-379.5" font-family="FreeSans" font-size="10.00" fill="#000000">Default Inference</text>
</g>
<!-- 610898&#45;&gt;610900 -->
<g id="edge26" class="edge">
<title>610898&#45;&gt;610900</title>
<path fill="none" stroke="#000000" d="M1200.5,-463.279C1200.5,-445.4 1200.5,-425.7191 1200.5,-410.2022"/>
<polygon fill="#000000" stroke="#000000" points="1204.0001,-410.1982 1200.5,-400.1983 1197.0001,-410.1983 1204.0001,-410.1982"/>
</g>
<!-- 610900&#45;&gt;610880 -->
<g id="edge27" class="edge">
<title>610900&#45;&gt;610880</title>
<path fill="none" stroke="#000000" d="M1200.5,-363.5848C1200.5,-356.189 1200.5,-347.2921 1200.5,-338.3013"/>
<polygon fill="#000000" stroke="#000000" points="1204.0001,-338.1854 1200.5,-328.1855 1197.0001,-338.1855 1204.0001,-338.1854"/>
</g>
<!-- 610905 -->
<g id="node28" class="node">
<title>610905</title>
<polygon fill="#ebf3ff" stroke="#6666cc" points="1991.5,-796.5 1821.5,-796.5 1821.5,-744.5 1991.5,-744.5 1991.5,-796.5"/>
<text text-anchor="middle" x="1906.5" y="-784.5" font-family="FreeSans" font-size="10.00" fill="#000000">the staff remembered Target B</text>
<text text-anchor="middle" x="1906.5" y="-773.5" font-family="FreeSans" font-size="10.00" fill="#000000">(Fadhlan Mangunsong) because</text>
<text text-anchor="middle" x="1906.5" y="-762.5" font-family="FreeSans" font-size="10.00" fill="#000000">he arrived bearded, but shaved</text>
<text text-anchor="middle" x="1906.5" y="-751.5" font-family="FreeSans" font-size="10.00" fill="#000000">his beard on the second day</text>
</g>
<!-- 610910 -->
<g id="node29" class="node">
<title>610910</title>
<polygon fill="#ebf3ff" stroke="#6666cc" points="1927.5,-317 1763.5,-317 1763.5,-265 1927.5,-265 1927.5,-317"/>
<text text-anchor="middle" x="1845.5" y="-305" font-family="FreeSans" font-size="10.00" fill="#000000">it is possible that Target B</text>
<text text-anchor="middle" x="1845.5" y="-294" font-family="FreeSans" font-size="10.00" fill="#000000">(Fadhlan Mangunsong) shaved</text>
<text text-anchor="middle" x="1845.5" y="-283" font-family="FreeSans" font-size="10.00" fill="#000000">his beard in order to make it</text>
<text text-anchor="middle" x="1845.5" y="-272" font-family="FreeSans" font-size="10.00" fill="#000000">easier to go snorkelling</text>
</g>
<!-- 610915 -->
<g id="node30" class="node">
<title>610915</title>
<polygon fill="#ffe6e6" stroke="#cc6666" points="1792.5,-218 1715.8208,-200 1792.5,-182 1869.1792,-200 1792.5,-218"/>
<text text-anchor="middle" x="1792.5" y="-197.5" font-family="FreeSans" font-size="10.00" fill="#000000">Default Conflict</text>
</g>
<!-- 610910&#45;&gt;610915 -->
<g id="edge28" class="edge">
<title>610910&#45;&gt;610915</title>
<path fill="none" stroke="#000000" d="M1830.1702,-264.679C1822.8616,-252.1302 1814.1654,-237.1991 1806.9708,-224.8461"/>
<polygon fill="#000000" stroke="#000000" points="1809.8669,-222.8642 1801.8096,-215.9845 1803.818,-226.3872 1809.8669,-222.8642"/>
</g>
<!-- 610913 -->
<g id="node31" class="node">
<title>610913</title>
<polygon fill="#ebf3ff" stroke="#6666cc" points="1874.5,-135 1700.5,-135 1700.5,-83 1874.5,-83 1874.5,-135"/>
<text text-anchor="middle" x="1787.5" y="-123" font-family="FreeSans" font-size="10.00" fill="#000000">it is not possible that Target</text>
<text text-anchor="middle" x="1787.5" y="-112" font-family="FreeSans" font-size="10.00" fill="#000000">B (Fadhlan Mangunsong) shaved</text>
<text text-anchor="middle" x="1787.5" y="-101" font-family="FreeSans" font-size="10.00" fill="#000000">his beard in order to make it</text>
<text text-anchor="middle" x="1787.5" y="-90" font-family="FreeSans" font-size="10.00" fill="#000000">easier to go snorkelling</text>
</g>
<!-- 610915&#45;&gt;610913 -->
<g id="edge31" class="edge">
<title>610915&#45;&gt;610913</title>
<path fill="none" stroke="#000000" d="M1791.5122,-182.0213C1790.9385,-171.5809 1790.1947,-158.0439 1789.5036,-145.4664"/>
<polygon fill="#000000" stroke="#000000" points="1792.9839,-145.0089 1788.9404,-135.216 1785.9944,-145.393 1792.9839,-145.0089"/>
</g>
<!-- 610914 -->
<g id="node32" class="node">
<title>610914</title>
<polygon fill="#ffe6e6" stroke="#cc6666" points="1844.5,-36 1767.8208,-18 1844.5,0 1921.1792,-18 1844.5,-36"/>
<text text-anchor="middle" x="1844.5" y="-15.5" font-family="FreeSans" font-size="10.00" fill="#000000">Default Conflict</text>
</g>
<!-- 610913&#45;&gt;610914 -->
<g id="edge29" class="edge">
<title>610913&#45;&gt;610914</title>
<path fill="none" stroke="#000000" d="M1803.9868,-82.679C1811.977,-69.9227 1821.5092,-54.7046 1829.3195,-42.2355"/>
<polygon fill="#000000" stroke="#000000" points="1832.3135,-44.049 1834.6557,-33.7163 1826.3811,-40.3331 1832.3135,-44.049"/>
</g>
<!-- 610914&#45;&gt;610910 -->
<g id="edge30" class="edge">
<title>610914&#45;&gt;610910</title>
<path fill="none" stroke="#000000" d="M1858.9846,-32.6076C1867.9567,-42.7304 1878.6611,-57.0353 1883.5,-72 1903.476,-133.7775 1894.3711,-155.0427 1878.5,-218 1875.2808,-230.77 1869.9284,-244.0803 1864.4612,-255.7842"/>
<polygon fill="#000000" stroke="#000000" points="1861.3102,-254.2606 1860.0906,-264.785 1867.6071,-257.3183 1861.3102,-254.2606"/>
</g>
<!-- 610919 -->
<g id="node33" class="node">
<title>610919</title>
<polygon fill="#ebf3ff" stroke="#6666cc" points="1829.5,-548.5 1675.5,-548.5 1675.5,-474.5 1829.5,-474.5 1829.5,-548.5"/>
<text text-anchor="middle" x="1752.5" y="-536.5" font-family="FreeSans" font-size="10.00" fill="#000000">there is no indication that</text>
<text text-anchor="middle" x="1752.5" y="-525.5" font-family="FreeSans" font-size="10.00" fill="#000000">the beard was shaved off as</text>
<text text-anchor="middle" x="1752.5" y="-514.5" font-family="FreeSans" font-size="10.00" fill="#000000">part of an Islamic</text>
<text text-anchor="middle" x="1752.5" y="-503.5" font-family="FreeSans" font-size="10.00" fill="#000000">purification process as part</text>
<text text-anchor="middle" x="1752.5" y="-492.5" font-family="FreeSans" font-size="10.00" fill="#000000">of preparing for an act of</text>
<text text-anchor="middle" x="1752.5" y="-481.5" font-family="FreeSans" font-size="10.00" fill="#000000">terrorism</text>
</g>
<!-- 610922 -->
<g id="node34" class="node">
<title>610922</title>
<polygon fill="#e6ffe6" stroke="#66cc66" points="1752.5,-400 1668.3359,-382 1752.5,-364 1836.6641,-382 1752.5,-400"/>
<text text-anchor="middle" x="1752.5" y="-379.5" font-family="FreeSans" font-size="10.00" fill="#000000">Default Inference</text>
</g>
<!-- 610919&#45;&gt;610922 -->
<g id="edge32" class="edge">
<title>610919&#45;&gt;610922</title>
<path fill="none" stroke="#000000" d="M1752.5,-474.3905C1752.5,-453.9274 1752.5,-428.9302 1752.5,-410.0995"/>
<polygon fill="#000000" stroke="#000000" points="1756.0001,-410.0734 1752.5,-400.0735 1749.0001,-410.0735 1756.0001,-410.0734"/>
</g>
<!-- 610922&#45;&gt;610910 -->
<g id="edge33" class="edge">
<title>610922&#45;&gt;610910</title>
<path fill="none" stroke="#000000" d="M1767.8571,-366.9732C1779.7391,-355.3467 1796.6421,-338.8072 1811.6447,-324.1272"/>
<polygon fill="#000000" stroke="#000000" points="1814.1269,-326.5953 1818.8266,-317.0998 1809.2312,-321.592 1814.1269,-326.5953"/>
</g>
<!-- 610926 -->
<g id="node35" class="node">
<title>610926</title>
<polygon fill="#ebf3ff" stroke="#6666cc" points="2265.5,-322.5 2095.5,-322.5 2095.5,-259.5 2265.5,-259.5 2265.5,-322.5"/>
<text text-anchor="middle" x="2180.5" y="-310.5" font-family="FreeSans" font-size="10.00" fill="#000000">the postcard found in Target</text>
<text text-anchor="middle" x="2180.5" y="-299.5" font-family="FreeSans" font-size="10.00" fill="#000000">B&#39;s (Fadhlan Mangunsong)</text>
<text text-anchor="middle" x="2180.5" y="-288.5" font-family="FreeSans" font-size="10.00" fill="#000000">possession has been translated</text>
<text text-anchor="middle" x="2180.5" y="-277.5" font-family="FreeSans" font-size="10.00" fill="#000000">into both Indonesian and</text>
<text text-anchor="middle" x="2180.5" y="-266.5" font-family="FreeSans" font-size="10.00" fill="#000000">Malaysian</text>
</g>
<!-- 610931 -->
<g id="node36" class="node">
<title>610931</title>
<polygon fill="#ebf3ff" stroke="#6666cc" points="2134,-587 1967,-587 1967,-436 2134,-436 2134,-587"/>
<text text-anchor="middle" x="2050.5" y="-575" font-family="FreeSans" font-size="10.00" fill="#000000">the Indonesian translation</text>
<text text-anchor="middle" x="2050.5" y="-564" font-family="FreeSans" font-size="10.00" fill="#000000">reads: “I hope this card</text>
<text text-anchor="middle" x="2050.5" y="-553" font-family="FreeSans" font-size="10.00" fill="#000000">reaches you. I feel very happy</text>
<text text-anchor="middle" x="2050.5" y="-542" font-family="FreeSans" font-size="10.00" fill="#000000">in Mindanao The weather is</text>
<text text-anchor="middle" x="2050.5" y="-531" font-family="FreeSans" font-size="10.00" fill="#000000">perfect. I also snorkel</text>
<text text-anchor="middle" x="2050.5" y="-520" font-family="FreeSans" font-size="10.00" fill="#000000">yesterday, and it was very</text>
<text text-anchor="middle" x="2050.5" y="-509" font-family="FreeSans" font-size="10.00" fill="#000000">impressive &#45; lots of beautiful</text>
<text text-anchor="middle" x="2050.5" y="-498" font-family="FreeSans" font-size="10.00" fill="#000000">fish and coral! Initially a</text>
<text text-anchor="middle" x="2050.5" y="-487" font-family="FreeSans" font-size="10.00" fill="#000000">bit problematic when trying on</text>
<text text-anchor="middle" x="2050.5" y="-476" font-family="FreeSans" font-size="10.00" fill="#000000">the mask, but all resolved</text>
<text text-anchor="middle" x="2050.5" y="-465" font-family="FreeSans" font-size="10.00" fill="#000000">well. &#160;I am planning to dive</text>
<text text-anchor="middle" x="2050.5" y="-454" font-family="FreeSans" font-size="10.00" fill="#000000">maybe I will send you a photo!</text>
<text text-anchor="middle" x="2050.5" y="-443" font-family="FreeSans" font-size="10.00" fill="#000000">Say hello to my family.”</text>
</g>
<!-- 610934 -->
<g id="node37" class="node">
<title>610934</title>
<polygon fill="#e6ffe6" stroke="#66cc66" points="2124.5,-400 2040.3359,-382 2124.5,-364 2208.6641,-382 2124.5,-400"/>
<text text-anchor="middle" x="2124.5" y="-379.5" font-family="FreeSans" font-size="10.00" fill="#000000">Default Inference</text>
</g>
<!-- 610931&#45;&gt;610934 -->
<g id="edge34" class="edge">
<title>610931&#45;&gt;610934</title>
<path fill="none" stroke="#000000" d="M2093.7602,-435.7946C2099.6431,-425.4995 2105.3085,-415.585 2110.1381,-407.1333"/>
<polygon fill="#000000" stroke="#000000" points="2113.2802,-408.6891 2115.2028,-398.2701 2107.2025,-405.2161 2113.2802,-408.6891"/>
</g>
<!-- 610953 -->
<g id="node38" class="node">
<title>610953</title>
<polygon fill="#e6ffe6" stroke="#66cc66" points="1938.5,-400 1854.3359,-382 1938.5,-364 2022.6641,-382 1938.5,-400"/>
<text text-anchor="middle" x="1938.5" y="-379.5" font-family="FreeSans" font-size="10.00" fill="#000000">Default Inference</text>
</g>
<!-- 610931&#45;&gt;610953 -->
<g id="edge35" class="edge">
<title>610931&#45;&gt;610953</title>
<path fill="none" stroke="#000000" d="M1985.0251,-435.7946C1975.3493,-424.607 1966.0622,-413.8688 1958.3649,-404.9688"/>
<polygon fill="#000000" stroke="#000000" points="1960.9661,-402.626 1951.7773,-397.3519 1955.6716,-407.2051 1960.9661,-402.626"/>
</g>
<!-- 610934&#45;&gt;610926 -->
<g id="edge36" class="edge">
<title>610934&#45;&gt;610926</title>
<path fill="none" stroke="#000000" d="M2134.5117,-365.731C2140.4355,-356.1048 2148.2222,-343.4514 2155.7004,-331.2994"/>
<polygon fill="#000000" stroke="#000000" points="2158.7998,-332.9409 2161.06,-322.5899 2152.8382,-329.2722 2158.7998,-332.9409"/>
</g>
<!-- 610953&#45;&gt;610910 -->
<g id="edge43" class="edge">
<title>610953&#45;&gt;610910</title>
<path fill="none" stroke="#000000" d="M1923.1429,-366.9732C1911.2609,-355.3467 1894.3579,-338.8072 1879.3553,-324.1272"/>
<polygon fill="#000000" stroke="#000000" points="1881.7688,-321.592 1872.1734,-317.0998 1876.8731,-326.5953 1881.7688,-321.592"/>
</g>
<!-- 610938 -->
<g id="node39" class="node">
<title>610938</title>
<polygon fill="#ebf3ff" stroke="#6666cc" points="2225.5,-846 2061.5,-846 2061.5,-695 2225.5,-695 2225.5,-846"/>
<text text-anchor="middle" x="2143.5" y="-834" font-family="FreeSans" font-size="10.00" fill="#000000">the Malay translation reads:</text>
<text text-anchor="middle" x="2143.5" y="-823" font-family="FreeSans" font-size="10.00" fill="#000000">“I hope this card is for</text>
<text text-anchor="middle" x="2143.5" y="-812" font-family="FreeSans" font-size="10.00" fill="#000000">you. I feel so happy in</text>
<text text-anchor="middle" x="2143.5" y="-801" font-family="FreeSans" font-size="10.00" fill="#000000">Mindanao. The weather is</text>
<text text-anchor="middle" x="2143.5" y="-790" font-family="FreeSans" font-size="10.00" fill="#000000">perfect. I was snorkelling</text>
<text text-anchor="middle" x="2143.5" y="-779" font-family="FreeSans" font-size="10.00" fill="#000000">yesterday too and it was</text>
<text text-anchor="middle" x="2143.5" y="-768" font-family="FreeSans" font-size="10.00" fill="#000000">amazing &#45; lots of fish and</text>
<text text-anchor="middle" x="2143.5" y="-757" font-family="FreeSans" font-size="10.00" fill="#000000">pretty coral! At first it was</text>
<text text-anchor="middle" x="2143.5" y="-746" font-family="FreeSans" font-size="10.00" fill="#000000">a bit tricky to try on the</text>
<text text-anchor="middle" x="2143.5" y="-735" font-family="FreeSans" font-size="10.00" fill="#000000">mask, but it all worked out.</text>
<text text-anchor="middle" x="2143.5" y="-724" font-family="FreeSans" font-size="10.00" fill="#000000">Planning to dive I may send</text>
<text text-anchor="middle" x="2143.5" y="-713" font-family="FreeSans" font-size="10.00" fill="#000000">you a picture! Say hello to my</text>
<text text-anchor="middle" x="2143.5" y="-702" font-family="FreeSans" font-size="10.00" fill="#000000">family.”</text>
</g>
<!-- 610940 -->
<g id="node40" class="node">
<title>610940</title>
<polygon fill="#e6ffe6" stroke="#66cc66" points="2236.5,-659 2152.3359,-641 2236.5,-623 2320.6641,-641 2236.5,-659"/>
<text text-anchor="middle" x="2236.5" y="-638.5" font-family="FreeSans" font-size="10.00" fill="#000000">Default Inference</text>
</g>
<!-- 610938&#45;&gt;610940 -->
<g id="edge37" class="edge">
<title>610938&#45;&gt;610940</title>
<path fill="none" stroke="#000000" d="M2197.8676,-694.7946C2205.5379,-684.1138 2212.9142,-673.8426 2219.1284,-665.1895"/>
<polygon fill="#000000" stroke="#000000" points="2222.157,-666.9725 2225.1473,-656.8084 2216.4712,-662.8893 2222.157,-666.9725"/>
</g>
<!-- 610950 -->
<g id="node41" class="node">
<title>610950</title>
<polygon fill="#eeeeee" stroke="#cccccc" points="2050.5,-659 1966.3359,-641 2050.5,-623 2134.6641,-641 2050.5,-659"/>
<text text-anchor="middle" x="2050.5" y="-638.5" font-family="FreeSans" font-size="10.00" fill="#000000">Default Rephrase</text>
</g>
<!-- 610938&#45;&gt;610950 -->
<g id="edge38" class="edge">
<title>610938&#45;&gt;610950</title>
<path fill="none" stroke="#000000" d="M2089.1324,-694.7946C2081.4621,-684.1138 2074.0858,-673.8426 2067.8716,-665.1895"/>
<polygon fill="#000000" stroke="#000000" points="2070.5288,-662.8893 2061.8527,-656.8084 2064.843,-666.9725 2070.5288,-662.8893"/>
</g>
<!-- 610940&#45;&gt;610926 -->
<g id="edge39" class="edge">
<title>610940&#45;&gt;610926</title>
<path fill="none" stroke="#000000" d="M2237.6992,-623.0909C2240.1744,-578.4116 2243.6151,-458.8036 2217.5,-364 2214.4954,-353.0927 2209.7804,-341.9083 2204.7097,-331.6743"/>
<polygon fill="#000000" stroke="#000000" points="2207.703,-329.8437 2199.9917,-322.5782 2201.4891,-333.0667 2207.703,-329.8437"/>
</g>
<!-- 610950&#45;&gt;610931 -->
<g id="edge42" class="edge">
<title>610950&#45;&gt;610931</title>
<path fill="none" stroke="#000000" d="M2050.5,-622.9936C2050.5,-615.7723 2050.5,-606.8901 2050.5,-597.3185"/>
<polygon fill="#000000" stroke="#000000" points="2054.0001,-597.1351 2050.5,-587.1351 2047.0001,-597.1352 2054.0001,-597.1351"/>
</g>
<!-- 610945 -->
<g id="node42" class="node">
<title>610945</title>
<polygon fill="#ebf3ff" stroke="#6666cc" points="717.5,-543 567.5,-543 567.5,-480 717.5,-480 717.5,-543"/>
<text text-anchor="middle" x="642.5" y="-531" font-family="FreeSans" font-size="10.00" fill="#000000">the postcard supports the</text>
<text text-anchor="middle" x="642.5" y="-520" font-family="FreeSans" font-size="10.00" fill="#000000">hypothesis that Target B</text>
<text text-anchor="middle" x="642.5" y="-509" font-family="FreeSans" font-size="10.00" fill="#000000">(Fadhlan Mangunson) is not</text>
<text text-anchor="middle" x="642.5" y="-498" font-family="FreeSans" font-size="10.00" fill="#000000">involved in militant</text>
<text text-anchor="middle" x="642.5" y="-487" font-family="FreeSans" font-size="10.00" fill="#000000">activities</text>
</g>
<!-- 610947 -->
<g id="node43" class="node">
<title>610947</title>
<polygon fill="#e6ffe6" stroke="#66cc66" points="642.5,-400 558.3359,-382 642.5,-364 726.6641,-382 642.5,-400"/>
<text text-anchor="middle" x="642.5" y="-379.5" font-family="FreeSans" font-size="10.00" fill="#000000">Default Inference</text>
</g>
<!-- 610945&#45;&gt;610947 -->
<g id="edge40" class="edge">
<title>610945&#45;&gt;610947</title>
<path fill="none" stroke="#000000" d="M642.5,-479.8207C642.5,-458.6211 642.5,-430.9562 642.5,-410.4583"/>
<polygon fill="#000000" stroke="#000000" points="646.0001,-410.1801 642.5,-400.1801 639.0001,-410.1802 646.0001,-410.1801"/>
</g>
<!-- 610947&#45;&gt;610819 -->
<g id="edge41" class="edge">
<title>610947&#45;&gt;610819</title>
<path fill="none" stroke="#000000" d="M616.6375,-369.3468C591.4548,-357.0263 552.2093,-337.8255 518.8736,-321.5161"/>
<polygon fill="#000000" stroke="#000000" points="520.1653,-318.2517 509.6445,-317.0008 517.0889,-324.5395 520.1653,-318.2517"/>
</g>
<!-- 610958 -->
<g id="node44" class="node">
<title>610958</title>
<polygon fill="#ebf3ff" stroke="#6666cc" points="310.5,-328 140.5,-328 140.5,-254 310.5,-254 310.5,-328"/>
<text text-anchor="middle" x="225.5" y="-316" font-family="FreeSans" font-size="10.00" fill="#000000">however, as Target B&#39;s</text>
<text text-anchor="middle" x="225.5" y="-305" font-family="FreeSans" font-size="10.00" fill="#000000">(Fadhlan Mangunsong) phone is</text>
<text text-anchor="middle" x="225.5" y="-294" font-family="FreeSans" font-size="10.00" fill="#000000">still being processed, this is</text>
<text text-anchor="middle" x="225.5" y="-283" font-family="FreeSans" font-size="10.00" fill="#000000">a gap in the intelligence that</text>
<text text-anchor="middle" x="225.5" y="-272" font-family="FreeSans" font-size="10.00" fill="#000000">could possibly change the</text>
<text text-anchor="middle" x="225.5" y="-261" font-family="FreeSans" font-size="10.00" fill="#000000">assessment</text>
</g>
<!-- 610960 -->
<g id="node45" class="node">
<title>610960</title>
<polygon fill="#e6ffe6" stroke="#66cc66" points="225.5,-218 141.3359,-200 225.5,-182 309.6641,-200 225.5,-218"/>
<text text-anchor="middle" x="225.5" y="-197.5" font-family="FreeSans" font-size="10.00" fill="#000000">Default Inference</text>
</g>
<!-- 610958&#45;&gt;610960 -->
<g id="edge44" class="edge">
<title>610958&#45;&gt;610960</title>
<path fill="none" stroke="#000000" d="M225.5,-253.9868C225.5,-245.3649 225.5,-236.3214 225.5,-228.1547"/>
<polygon fill="#000000" stroke="#000000" points="229.0001,-228.033 225.5,-218.033 222.0001,-228.0331 229.0001,-228.033"/>
</g>
<!-- 610960&#45;&gt;610821 -->
<g id="edge45" class="edge">
<title>610960&#45;&gt;610821</title>
<path fill="none" stroke="#000000" d="M250.7667,-187.1549C274.8874,-174.8924 312.164,-155.9418 343.9695,-139.7725"/>
<polygon fill="#000000" stroke="#000000" points="345.8824,-142.7264 353.2105,-135.0746 342.7101,-136.4864 345.8824,-142.7264"/>
</g>
</g>
</svg>
