<?xml version="1.0" encoding="UTF-8" standalone="no"?>
<!DOCTYPE svg PUBLIC "-//W3C//DTD SVG 1.1//EN"
 "http://www.w3.org/Graphics/SVG/1.1/DTD/svg11.dtd">
<!-- Generated by graphviz version 2.40.1 (20161225.0304)
 -->
<!-- Title: nodeset19476 Pages: 1 -->
<svg width="1490pt" height="264pt"
 viewBox="0.00 0.00 1490.00 264.00" xmlns="http://www.w3.org/2000/svg" xmlns:xlink="http://www.w3.org/1999/xlink">
<g id="graph0" class="graph" transform="scale(1 1) rotate(0) translate(4 260)">
<title>nodeset19476</title>
<polygon fill="#ffffff" stroke="transparent" points="-4,4 -4,-260 1486,-260 1486,4 -4,4"/>
<!-- 610185 -->
<g id="node1" class="node">
<title>610185</title>
<polygon fill="#ebf3ff" stroke="#6666cc" points="274.5,-74 90.5,-74 90.5,0 274.5,0 274.5,-74"/>
<text text-anchor="middle" x="182.5" y="-62" font-family="FreeSans" font-size="10.00" fill="#000000">it is unlikely that Target B</text>
<text text-anchor="middle" x="182.5" y="-51" font-family="FreeSans" font-size="10.00" fill="#000000">(MANGUNSONG) presents a threat</text>
<text text-anchor="middle" x="182.5" y="-40" font-family="FreeSans" font-size="10.00" fill="#000000">of committing an act of</text>
<text text-anchor="middle" x="182.5" y="-29" font-family="FreeSans" font-size="10.00" fill="#000000">terrorism in Philippines,</text>
<text text-anchor="middle" x="182.5" y="-18" font-family="FreeSans" font-size="10.00" fill="#000000">based on intelligence</text>
<text text-anchor="middle" x="182.5" y="-7" font-family="FreeSans" font-size="10.00" fill="#000000">available</text>
</g>
<!-- 610196 -->
<g id="node2" class="node">
<title>610196</title>
<polygon fill="#ebf3ff" stroke="#6666cc" points="822.5,-57.5 658.5,-57.5 658.5,-16.5 822.5,-16.5 822.5,-57.5"/>
<text text-anchor="middle" x="740.5" y="-45.5" font-family="FreeSans" font-size="10.00" fill="#000000">it is highly likely that</text>
<text text-anchor="middle" x="740.5" y="-34.5" font-family="FreeSans" font-size="10.00" fill="#000000">Target A (AIZAD) was about to</text>
<text text-anchor="middle" x="740.5" y="-23.5" font-family="FreeSans" font-size="10.00" fill="#000000">commit an act of terrorism</text>
</g>
<!-- 610242 -->
<g id="node3" class="node">
<title>610242</title>
<polygon fill="#ebf3ff" stroke="#6666cc" points="544,-250.5 379,-250.5 379,-187.5 544,-187.5 544,-250.5"/>
<text text-anchor="middle" x="461.5" y="-238.5" font-family="FreeSans" font-size="10.00" fill="#000000">Human Intelligence (HUMINT)</text>
<text text-anchor="middle" x="461.5" y="-227.5" font-family="FreeSans" font-size="10.00" fill="#000000">states Muhamad Sadili Nazrin</text>
<text text-anchor="middle" x="461.5" y="-216.5" font-family="FreeSans" font-size="10.00" fill="#000000">bin AIZAD has ties to militant</text>
<text text-anchor="middle" x="461.5" y="-205.5" font-family="FreeSans" font-size="10.00" fill="#000000">Islamic groups in Minanoa and</text>
<text text-anchor="middle" x="461.5" y="-194.5" font-family="FreeSans" font-size="10.00" fill="#000000">the broader region</text>
</g>
<!-- 615367 -->
<g id="node4" class="node">
<title>615367</title>
<polygon fill="#e6ffe6" stroke="#66cc66" points="461.5,-146 377.3359,-128 461.5,-110 545.6641,-128 461.5,-146"/>
<text text-anchor="middle" x="461.5" y="-125.5" font-family="FreeSans" font-size="10.00" fill="#000000">Default Inference</text>
</g>
<!-- 610242&#45;&gt;615367 -->
<g id="edge1" class="edge">
<title>610242&#45;&gt;615367</title>
<path fill="none" stroke="#000000" d="M461.5,-187.428C461.5,-177.3248 461.5,-166.2077 461.5,-156.3491"/>
<polygon fill="#000000" stroke="#000000" points="465.0001,-156.2528 461.5,-146.2528 458.0001,-156.2528 465.0001,-156.2528"/>
</g>
<!-- 615367&#45;&gt;610196 -->
<g id="edge9" class="edge">
<title>615367&#45;&gt;610196</title>
<path fill="none" stroke="#000000" d="M494.8768,-117.1137C537.3119,-103.2728 611.765,-78.9888 667.6088,-60.7745"/>
<polygon fill="#000000" stroke="#000000" points="669.0337,-63.9914 677.4554,-57.5629 666.863,-57.3364 669.0337,-63.9914"/>
</g>
<!-- 610247 -->
<g id="node5" class="node">
<title>610247</title>
<polygon fill="#ebf3ff" stroke="#6666cc" points="732.5,-239.5 562.5,-239.5 562.5,-198.5 732.5,-198.5 732.5,-239.5"/>
<text text-anchor="middle" x="647.5" y="-227.5" font-family="FreeSans" font-size="10.00" fill="#000000">Philippine authorities suspect</text>
<text text-anchor="middle" x="647.5" y="-216.5" font-family="FreeSans" font-size="10.00" fill="#000000">that Muhamad Sadili Nazrin bin</text>
<text text-anchor="middle" x="647.5" y="-205.5" font-family="FreeSans" font-size="10.00" fill="#000000">AIZAD is a foreign fighter</text>
</g>
<!-- 615370 -->
<g id="node6" class="node">
<title>615370</title>
<polygon fill="#e6ffe6" stroke="#66cc66" points="647.5,-146 563.3359,-128 647.5,-110 731.6641,-128 647.5,-146"/>
<text text-anchor="middle" x="647.5" y="-125.5" font-family="FreeSans" font-size="10.00" fill="#000000">Default Inference</text>
</g>
<!-- 610247&#45;&gt;615370 -->
<g id="edge2" class="edge">
<title>610247&#45;&gt;615370</title>
<path fill="none" stroke="#000000" d="M647.5,-198.3507C647.5,-185.9374 647.5,-169.9643 647.5,-156.3766"/>
<polygon fill="#000000" stroke="#000000" points="651.0001,-156.1045 647.5,-146.1045 644.0001,-156.1045 651.0001,-156.1045"/>
</g>
<!-- 615370&#45;&gt;610196 -->
<g id="edge10" class="edge">
<title>615370&#45;&gt;610196</title>
<path fill="none" stroke="#000000" d="M662.8571,-112.9732C676.2788,-99.8401 696.107,-80.4383 712.366,-64.529"/>
<polygon fill="#000000" stroke="#000000" points="714.8496,-66.9956 719.5493,-57.5002 709.9539,-61.9924 714.8496,-66.9956"/>
</g>
<!-- 610350 -->
<g id="node7" class="node">
<title>610350</title>
<polygon fill="#ebf3ff" stroke="#6666cc" points="179,-245 0,-245 0,-193 179,-193 179,-245"/>
<text text-anchor="middle" x="89.5" y="-233" font-family="FreeSans" font-size="10.00" fill="#000000">it was likely Fadhlan</text>
<text text-anchor="middle" x="89.5" y="-222" font-family="FreeSans" font-size="10.00" fill="#000000">MANGUNSONG shaving his beard</text>
<text text-anchor="middle" x="89.5" y="-211" font-family="FreeSans" font-size="10.00" fill="#000000">was done for ease of</text>
<text text-anchor="middle" x="89.5" y="-200" font-family="FreeSans" font-size="10.00" fill="#000000">snorkelling</text>
</g>
<!-- 615373 -->
<g id="node8" class="node">
<title>615373</title>
<polygon fill="#e6ffe6" stroke="#66cc66" points="89.5,-146 5.3359,-128 89.5,-110 173.6641,-128 89.5,-146"/>
<text text-anchor="middle" x="89.5" y="-125.5" font-family="FreeSans" font-size="10.00" fill="#000000">Default Inference</text>
</g>
<!-- 610350&#45;&gt;615373 -->
<g id="edge3" class="edge">
<title>610350&#45;&gt;615373</title>
<path fill="none" stroke="#000000" d="M89.5,-192.679C89.5,-181.2654 89.5,-167.8809 89.5,-156.258"/>
<polygon fill="#000000" stroke="#000000" points="93.0001,-156.1862 89.5,-146.1863 86.0001,-156.1863 93.0001,-156.1862"/>
</g>
<!-- 615373&#45;&gt;610185 -->
<g id="edge11" class="edge">
<title>615373&#45;&gt;610185</title>
<path fill="none" stroke="#000000" d="M104.8571,-112.9732C113.8291,-104.1941 125.6638,-92.6139 137.3815,-81.1482"/>
<polygon fill="#000000" stroke="#000000" points="139.9359,-83.5456 144.6356,-74.0501 135.0402,-78.5423 139.9359,-83.5456"/>
</g>
<!-- 610416 -->
<g id="node9" class="node">
<title>610416</title>
<polygon fill="#ebf3ff" stroke="#6666cc" points="1290.5,-74 1120.5,-74 1120.5,0 1290.5,0 1290.5,-74"/>
<text text-anchor="middle" x="1205.5" y="-62" font-family="FreeSans" font-size="10.00" fill="#000000">all five Islamic extremist</text>
<text text-anchor="middle" x="1205.5" y="-51" font-family="FreeSans" font-size="10.00" fill="#000000">groups have conducted violent</text>
<text text-anchor="middle" x="1205.5" y="-40" font-family="FreeSans" font-size="10.00" fill="#000000">terrorism related activity in</text>
<text text-anchor="middle" x="1205.5" y="-29" font-family="FreeSans" font-size="10.00" fill="#000000">the last ten years with</text>
<text text-anchor="middle" x="1205.5" y="-18" font-family="FreeSans" font-size="10.00" fill="#000000">varying degrees of success and</text>
<text text-anchor="middle" x="1205.5" y="-7" font-family="FreeSans" font-size="10.00" fill="#000000">proven capability</text>
</g>
<!-- 610421 -->
<g id="node10" class="node">
<title>610421</title>
<polygon fill="#ebf3ff" stroke="#6666cc" points="1285.5,-256 1125.5,-256 1125.5,-182 1285.5,-182 1285.5,-256"/>
<text text-anchor="middle" x="1205.5" y="-244" font-family="FreeSans" font-size="10.00" fill="#000000">Abu Sayyaf Group (ASG) are</text>
<text text-anchor="middle" x="1205.5" y="-233" font-family="FreeSans" font-size="10.00" fill="#000000">currently the most active,</text>
<text text-anchor="middle" x="1205.5" y="-222" font-family="FreeSans" font-size="10.00" fill="#000000">capable and expanding ISIS</text>
<text text-anchor="middle" x="1205.5" y="-211" font-family="FreeSans" font-size="10.00" fill="#000000">affiliate group in the area of</text>
<text text-anchor="middle" x="1205.5" y="-200" font-family="FreeSans" font-size="10.00" fill="#000000">Mindanao Island and the Sulu</text>
<text text-anchor="middle" x="1205.5" y="-189" font-family="FreeSans" font-size="10.00" fill="#000000">Archipelago</text>
</g>
<!-- 615376 -->
<g id="node11" class="node">
<title>615376</title>
<polygon fill="#e6ffe6" stroke="#66cc66" points="1205.5,-146 1121.3359,-128 1205.5,-110 1289.6641,-128 1205.5,-146"/>
<text text-anchor="middle" x="1205.5" y="-125.5" font-family="FreeSans" font-size="10.00" fill="#000000">Default Inference</text>
</g>
<!-- 610421&#45;&gt;615376 -->
<g id="edge4" class="edge">
<title>610421&#45;&gt;615376</title>
<path fill="none" stroke="#000000" d="M1205.5,-181.9868C1205.5,-173.3649 1205.5,-164.3214 1205.5,-156.1547"/>
<polygon fill="#000000" stroke="#000000" points="1209.0001,-156.033 1205.5,-146.033 1202.0001,-156.0331 1209.0001,-156.033"/>
</g>
<!-- 615376&#45;&gt;610416 -->
<g id="edge12" class="edge">
<title>615376&#45;&gt;610416</title>
<path fill="none" stroke="#000000" d="M1205.5,-109.5848C1205.5,-102.189 1205.5,-93.2921 1205.5,-84.3013"/>
<polygon fill="#000000" stroke="#000000" points="1209.0001,-84.1854 1205.5,-74.1855 1202.0001,-84.1855 1209.0001,-84.1854"/>
</g>
<!-- 610438 -->
<g id="node12" class="node">
<title>610438</title>
<polygon fill="#ebf3ff" stroke="#6666cc" points="926.5,-256 750.5,-256 750.5,-182 926.5,-182 926.5,-256"/>
<text text-anchor="middle" x="838.5" y="-244" font-family="FreeSans" font-size="10.00" fill="#000000">it is highly likely Target A</text>
<text text-anchor="middle" x="838.5" y="-233" font-family="FreeSans" font-size="10.00" fill="#000000">is connected to ASG or was</text>
<text text-anchor="middle" x="838.5" y="-222" font-family="FreeSans" font-size="10.00" fill="#000000">attempting to make connections</text>
<text text-anchor="middle" x="838.5" y="-211" font-family="FreeSans" font-size="10.00" fill="#000000">with ASG in the Mindanao</text>
<text text-anchor="middle" x="838.5" y="-200" font-family="FreeSans" font-size="10.00" fill="#000000">Island area at the time of his</text>
<text text-anchor="middle" x="838.5" y="-189" font-family="FreeSans" font-size="10.00" fill="#000000">arrest</text>
</g>
<!-- 615379 -->
<g id="node13" class="node">
<title>615379</title>
<polygon fill="#e6ffe6" stroke="#66cc66" points="833.5,-146 749.3359,-128 833.5,-110 917.6641,-128 833.5,-146"/>
<text text-anchor="middle" x="833.5" y="-125.5" font-family="FreeSans" font-size="10.00" fill="#000000">Default Inference</text>
</g>
<!-- 610438&#45;&gt;615379 -->
<g id="edge5" class="edge">
<title>610438&#45;&gt;615379</title>
<path fill="none" stroke="#000000" d="M836.4663,-181.9868C835.9926,-173.3649 835.4957,-164.3214 835.047,-156.1547"/>
<polygon fill="#000000" stroke="#000000" points="838.5343,-155.8259 834.4908,-146.033 831.5448,-156.21 838.5343,-155.8259"/>
</g>
<!-- 615379&#45;&gt;610196 -->
<g id="edge13" class="edge">
<title>615379&#45;&gt;610196</title>
<path fill="none" stroke="#000000" d="M818.1429,-112.9732C804.7212,-99.8401 784.893,-80.4383 768.634,-64.529"/>
<polygon fill="#000000" stroke="#000000" points="771.0461,-61.9924 761.4507,-57.5002 766.1504,-66.9956 771.0461,-61.9924"/>
</g>
<!-- 610486 -->
<g id="node14" class="node">
<title>610486</title>
<polygon fill="#ebf3ff" stroke="#6666cc" points="1090,-245 949,-245 949,-193 1090,-193 1090,-245"/>
<text text-anchor="middle" x="1019.5" y="-233" font-family="FreeSans" font-size="10.00" fill="#000000">almost certainly identify</text>
<text text-anchor="middle" x="1019.5" y="-222" font-family="FreeSans" font-size="10.00" fill="#000000">Target A (Muhamad Sadili</text>
<text text-anchor="middle" x="1019.5" y="-211" font-family="FreeSans" font-size="10.00" fill="#000000">Nazrin bin Aizad) as a</text>
<text text-anchor="middle" x="1019.5" y="-200" font-family="FreeSans" font-size="10.00" fill="#000000">militant</text>
</g>
<!-- 615382 -->
<g id="node15" class="node">
<title>615382</title>
<polygon fill="#e6ffe6" stroke="#66cc66" points="1019.5,-146 935.3359,-128 1019.5,-110 1103.6641,-128 1019.5,-146"/>
<text text-anchor="middle" x="1019.5" y="-125.5" font-family="FreeSans" font-size="10.00" fill="#000000">Default Inference</text>
</g>
<!-- 610486&#45;&gt;615382 -->
<g id="edge6" class="edge">
<title>610486&#45;&gt;615382</title>
<path fill="none" stroke="#000000" d="M1019.5,-192.679C1019.5,-181.2654 1019.5,-167.8809 1019.5,-156.258"/>
<polygon fill="#000000" stroke="#000000" points="1023.0001,-156.1862 1019.5,-146.1863 1016.0001,-156.1863 1023.0001,-156.1862"/>
</g>
<!-- 615382&#45;&gt;610196 -->
<g id="edge14" class="edge">
<title>615382&#45;&gt;610196</title>
<path fill="none" stroke="#000000" d="M986.1232,-117.1137C943.6881,-103.2728 869.235,-78.9888 813.3912,-60.7745"/>
<polygon fill="#000000" stroke="#000000" points="814.137,-57.3364 803.5446,-57.5629 811.9663,-63.9914 814.137,-57.3364"/>
</g>
<!-- 610614 -->
<g id="node16" class="node">
<title>610614</title>
<polygon fill="#ebf3ff" stroke="#6666cc" points="1482,-74 1309,-74 1309,0 1482,0 1482,-74"/>
<text text-anchor="middle" x="1395.5" y="-62" font-family="FreeSans" font-size="10.00" fill="#000000">based off photos recovered</text>
<text text-anchor="middle" x="1395.5" y="-51" font-family="FreeSans" font-size="10.00" fill="#000000">from Muhamad Sadili Nazrin bin</text>
<text text-anchor="middle" x="1395.5" y="-40" font-family="FreeSans" font-size="10.00" fill="#000000">AIZAD’s phone, it is highly</text>
<text text-anchor="middle" x="1395.5" y="-29" font-family="FreeSans" font-size="10.00" fill="#000000">likely that he took the</text>
<text text-anchor="middle" x="1395.5" y="-18" font-family="FreeSans" font-size="10.00" fill="#000000">following route, depicted in</text>
<text text-anchor="middle" x="1395.5" y="-7" font-family="FreeSans" font-size="10.00" fill="#000000">Figure 1</text>
</g>
<!-- 610643 -->
<g id="node17" class="node">
<title>610643</title>
<polygon fill="#ebf3ff" stroke="#6666cc" points="1476,-237 1315,-237 1315,-201 1476,-201 1476,-237"/>
<text text-anchor="middle" x="1395.5" y="-222" font-family="FreeSans" font-size="10.00" fill="#000000">the date of these movements</text>
<text text-anchor="middle" x="1395.5" y="-211" font-family="FreeSans" font-size="10.00" fill="#000000">remains an intelligence gap</text>
</g>
<!-- 615385 -->
<g id="node18" class="node">
<title>615385</title>
<polygon fill="#e6ffe6" stroke="#66cc66" points="1395.5,-146 1311.3359,-128 1395.5,-110 1479.6641,-128 1395.5,-146"/>
<text text-anchor="middle" x="1395.5" y="-125.5" font-family="FreeSans" font-size="10.00" fill="#000000">Default Inference</text>
</g>
<!-- 610643&#45;&gt;615385 -->
<g id="edge7" class="edge">
<title>610643&#45;&gt;615385</title>
<path fill="none" stroke="#000000" d="M1395.5,-200.5848C1395.5,-187.9209 1395.5,-170.8558 1395.5,-156.4541"/>
<polygon fill="#000000" stroke="#000000" points="1399.0001,-156.0772 1395.5,-146.0773 1392.0001,-156.0773 1399.0001,-156.0772"/>
</g>
<!-- 615385&#45;&gt;610614 -->
<g id="edge15" class="edge">
<title>615385&#45;&gt;610614</title>
<path fill="none" stroke="#000000" d="M1395.5,-109.5848C1395.5,-102.189 1395.5,-93.2921 1395.5,-84.3013"/>
<polygon fill="#000000" stroke="#000000" points="1399.0001,-84.1854 1395.5,-74.1855 1392.0001,-84.1855 1399.0001,-84.1854"/>
</g>
<!-- 610819 -->
<g id="node19" class="node">
<title>610819</title>
<polygon fill="#ebf3ff" stroke="#6666cc" points="350.5,-245 200.5,-245 200.5,-193 350.5,-193 350.5,-245"/>
<text text-anchor="middle" x="275.5" y="-233" font-family="FreeSans" font-size="10.00" fill="#000000">it is assessed as unlikely</text>
<text text-anchor="middle" x="275.5" y="-222" font-family="FreeSans" font-size="10.00" fill="#000000">that Target B (Fadhlan</text>
<text text-anchor="middle" x="275.5" y="-211" font-family="FreeSans" font-size="10.00" fill="#000000">Mangunsong) is involved in</text>
<text text-anchor="middle" x="275.5" y="-200" font-family="FreeSans" font-size="10.00" fill="#000000">militant activities</text>
</g>
<!-- 615388 -->
<g id="node20" class="node">
<title>615388</title>
<polygon fill="#e6ffe6" stroke="#66cc66" points="275.5,-146 191.3359,-128 275.5,-110 359.6641,-128 275.5,-146"/>
<text text-anchor="middle" x="275.5" y="-125.5" font-family="FreeSans" font-size="10.00" fill="#000000">Default Inference</text>
</g>
<!-- 610819&#45;&gt;615388 -->
<g id="edge8" class="edge">
<title>610819&#45;&gt;615388</title>
<path fill="none" stroke="#000000" d="M275.5,-192.679C275.5,-181.2654 275.5,-167.8809 275.5,-156.258"/>
<polygon fill="#000000" stroke="#000000" points="279.0001,-156.1862 275.5,-146.1863 272.0001,-156.1863 279.0001,-156.1862"/>
</g>
<!-- 615388&#45;&gt;610185 -->
<g id="edge16" class="edge">
<title>615388&#45;&gt;610185</title>
<path fill="none" stroke="#000000" d="M260.1429,-112.9732C251.1709,-104.1941 239.3362,-92.6139 227.6185,-81.1482"/>
<polygon fill="#000000" stroke="#000000" points="229.9598,-78.5423 220.3644,-74.0501 225.0641,-83.5456 229.9598,-78.5423"/>
</g>
</g>
</svg>
