<?xml version="1.0" encoding="UTF-8" standalone="no"?>
<!DOCTYPE svg PUBLIC "-//W3C//DTD SVG 1.1//EN"
 "http://www.w3.org/Graphics/SVG/1.1/DTD/svg11.dtd">
<!-- Generated by graphviz version 2.40.1 (20161225.0304)
 -->
<!-- Title: nodeset19393 Pages: 1 -->
<svg width="1282pt" height="562pt"
 viewBox="0.00 0.00 1281.50 562.00" xmlns="http://www.w3.org/2000/svg" xmlns:xlink="http://www.w3.org/1999/xlink">
<g id="graph0" class="graph" transform="scale(1 1) rotate(0) translate(4 558)">
<title>nodeset19393</title>
<polygon fill="#ffffff" stroke="transparent" points="-4,4 -4,-558 1277.5,-558 1277.5,4 -4,4"/>
<!-- 610172 -->
<g id="node1" class="node">
<title>610172</title>
<polygon fill="#ebf3ff" stroke="#6666cc" points="255,-543 71,-543 71,-491 255,-491 255,-543"/>
<text text-anchor="middle" x="163" y="-531" font-family="FreeSans" font-size="10.00" fill="#000000">it is likely that Target B</text>
<text text-anchor="middle" x="163" y="-520" font-family="FreeSans" font-size="10.00" fill="#000000">(MANGUNSONG) presents a threat</text>
<text text-anchor="middle" x="163" y="-509" font-family="FreeSans" font-size="10.00" fill="#000000">of committing an act of</text>
<text text-anchor="middle" x="163" y="-498" font-family="FreeSans" font-size="10.00" fill="#000000">terrorism in Philippines</text>
</g>
<!-- 610187 -->
<g id="node2" class="node">
<title>610187</title>
<polygon fill="#ffe6e6" stroke="#cc6666" points="100,-444 23.3208,-426 100,-408 176.6792,-426 100,-444"/>
<text text-anchor="middle" x="100" y="-423.5" font-family="FreeSans" font-size="10.00" fill="#000000">Default Conflict</text>
</g>
<!-- 610172&#45;&gt;610187 -->
<g id="edge1" class="edge">
<title>610172&#45;&gt;610187</title>
<path fill="none" stroke="#000000" d="M144.7778,-490.679C135.9465,-477.9227 125.4109,-462.7046 116.7784,-450.2355"/>
<polygon fill="#000000" stroke="#000000" points="119.4503,-447.946 110.8805,-441.7163 113.695,-451.9305 119.4503,-447.946"/>
</g>
<!-- 610185 -->
<g id="node9" class="node">
<title>610185</title>
<polygon fill="#ebf3ff" stroke="#6666cc" points="184,-372 0,-372 0,-298 184,-298 184,-372"/>
<text text-anchor="middle" x="92" y="-360" font-family="FreeSans" font-size="10.00" fill="#000000">it is unlikely that Target B</text>
<text text-anchor="middle" x="92" y="-349" font-family="FreeSans" font-size="10.00" fill="#000000">(MANGUNSONG) presents a threat</text>
<text text-anchor="middle" x="92" y="-338" font-family="FreeSans" font-size="10.00" fill="#000000">of committing an act of</text>
<text text-anchor="middle" x="92" y="-327" font-family="FreeSans" font-size="10.00" fill="#000000">terrorism in Philippines,</text>
<text text-anchor="middle" x="92" y="-316" font-family="FreeSans" font-size="10.00" fill="#000000">based on intelligence</text>
<text text-anchor="middle" x="92" y="-305" font-family="FreeSans" font-size="10.00" fill="#000000">available</text>
</g>
<!-- 610187&#45;&gt;610185 -->
<g id="edge6" class="edge">
<title>610187&#45;&gt;610185</title>
<path fill="none" stroke="#000000" d="M98.4195,-408.0213C97.7573,-400.4897 96.9535,-391.3465 96.1419,-382.1146"/>
<polygon fill="#000000" stroke="#000000" points="99.6269,-381.7892 95.2645,-372.1342 92.6538,-382.4023 99.6269,-381.7892"/>
</g>
<!-- 610175 -->
<g id="node3" class="node">
<title>610175</title>
<polygon fill="#ebf3ff" stroke="#6666cc" points="455,-355.5 279,-355.5 279,-314.5 455,-314.5 455,-355.5"/>
<text text-anchor="middle" x="367" y="-343.5" font-family="FreeSans" font-size="10.00" fill="#000000">it is unlikely that Target A</text>
<text text-anchor="middle" x="367" y="-332.5" font-family="FreeSans" font-size="10.00" fill="#000000">(AIZAD) was about to commit an</text>
<text text-anchor="middle" x="367" y="-321.5" font-family="FreeSans" font-size="10.00" fill="#000000">act of terrorism</text>
</g>
<!-- 610198 -->
<g id="node4" class="node">
<title>610198</title>
<polygon fill="#ffe6e6" stroke="#cc6666" points="350,-262 273.3208,-244 350,-226 426.6792,-244 350,-262"/>
<text text-anchor="middle" x="350" y="-241.5" font-family="FreeSans" font-size="10.00" fill="#000000">Default Conflict</text>
</g>
<!-- 610175&#45;&gt;610198 -->
<g id="edge2" class="edge">
<title>610175&#45;&gt;610198</title>
<path fill="none" stroke="#000000" d="M363.1424,-314.3507C360.7693,-301.6473 357.6997,-285.2159 355.1239,-271.4281"/>
<polygon fill="#000000" stroke="#000000" points="358.5471,-270.6925 353.2702,-261.5053 351.6662,-271.978 358.5471,-270.6925"/>
</g>
<!-- 610196 -->
<g id="node12" class="node">
<title>610196</title>
<polygon fill="#ebf3ff" stroke="#6666cc" points="430,-190 266,-190 266,-149 430,-149 430,-190"/>
<text text-anchor="middle" x="348" y="-178" font-family="FreeSans" font-size="10.00" fill="#000000">it is highly likely that</text>
<text text-anchor="middle" x="348" y="-167" font-family="FreeSans" font-size="10.00" fill="#000000">Target A (AIZAD) was about to</text>
<text text-anchor="middle" x="348" y="-156" font-family="FreeSans" font-size="10.00" fill="#000000">commit an act of terrorism</text>
</g>
<!-- 610198&#45;&gt;610196 -->
<g id="edge10" class="edge">
<title>610198&#45;&gt;610196</title>
<path fill="none" stroke="#000000" d="M349.5159,-225.9656C349.3104,-218.3118 349.0649,-209.1674 348.8319,-200.4898"/>
<polygon fill="#000000" stroke="#000000" points="352.3247,-200.1703 348.5575,-190.2679 345.3272,-200.3582 352.3247,-200.1703"/>
</g>
<!-- 610179 -->
<g id="node5" class="node">
<title>610179</title>
<polygon fill="#ebf3ff" stroke="#6666cc" points="677,-554 507,-554 507,-480 677,-480 677,-554"/>
<text text-anchor="middle" x="592" y="-542" font-family="FreeSans" font-size="10.00" fill="#000000">it is unlikely that returning</text>
<text text-anchor="middle" x="592" y="-531" font-family="FreeSans" font-size="10.00" fill="#000000">foreign fighters or new</text>
<text text-anchor="middle" x="592" y="-520" font-family="FreeSans" font-size="10.00" fill="#000000">recruits focused on Southern</text>
<text text-anchor="middle" x="592" y="-509" font-family="FreeSans" font-size="10.00" fill="#000000">Philippines may convene in the</text>
<text text-anchor="middle" x="592" y="-498" font-family="FreeSans" font-size="10.00" fill="#000000">port city of Manado (North</text>
<text text-anchor="middle" x="592" y="-487" font-family="FreeSans" font-size="10.00" fill="#000000">Sulawesi, Indonesia)</text>
</g>
<!-- 610215 -->
<g id="node6" class="node">
<title>610215</title>
<polygon fill="#ffe6e6" stroke="#cc6666" points="574,-444 497.3208,-426 574,-408 650.6792,-426 574,-444"/>
<text text-anchor="middle" x="574" y="-423.5" font-family="FreeSans" font-size="10.00" fill="#000000">Default Conflict</text>
</g>
<!-- 610179&#45;&gt;610215 -->
<g id="edge3" class="edge">
<title>610179&#45;&gt;610215</title>
<path fill="none" stroke="#000000" d="M584.6787,-479.9868C582.9267,-471.1296 581.0868,-461.8276 579.4372,-453.4882"/>
<polygon fill="#000000" stroke="#000000" points="582.8446,-452.6765 577.4706,-443.5457 575.9776,-454.0348 582.8446,-452.6765"/>
</g>
<!-- 610213 -->
<g id="node18" class="node">
<title>610213</title>
<polygon fill="#ebf3ff" stroke="#6666cc" points="655,-372 485,-372 485,-298 655,-298 655,-372"/>
<text text-anchor="middle" x="570" y="-360" font-family="FreeSans" font-size="10.00" fill="#000000">it is likely that returning</text>
<text text-anchor="middle" x="570" y="-349" font-family="FreeSans" font-size="10.00" fill="#000000">foreign fighters or new</text>
<text text-anchor="middle" x="570" y="-338" font-family="FreeSans" font-size="10.00" fill="#000000">recruits focused on Southern</text>
<text text-anchor="middle" x="570" y="-327" font-family="FreeSans" font-size="10.00" fill="#000000">Philippines may convene in the</text>
<text text-anchor="middle" x="570" y="-316" font-family="FreeSans" font-size="10.00" fill="#000000">port city of Manado (North</text>
<text text-anchor="middle" x="570" y="-305" font-family="FreeSans" font-size="10.00" fill="#000000">Sulawesi, Indonesia)</text>
</g>
<!-- 610215&#45;&gt;610213 -->
<g id="edge16" class="edge">
<title>610215&#45;&gt;610213</title>
<path fill="none" stroke="#000000" d="M573.2097,-408.0213C572.8822,-400.5698 572.4853,-391.5409 572.0839,-382.4092"/>
<polygon fill="#000000" stroke="#000000" points="575.5681,-381.9708 571.6323,-372.1342 568.5749,-382.2783 575.5681,-381.9708"/>
</g>
<!-- 610181 -->
<g id="node7" class="node">
<title>610181</title>
<polygon fill="#ebf3ff" stroke="#6666cc" points="917.5,-543 762.5,-543 762.5,-491 917.5,-491 917.5,-543"/>
<text text-anchor="middle" x="840" y="-531" font-family="FreeSans" font-size="10.00" fill="#000000">returning foreign fighters or</text>
<text text-anchor="middle" x="840" y="-520" font-family="FreeSans" font-size="10.00" fill="#000000">new recruits travel by boat</text>
<text text-anchor="middle" x="840" y="-509" font-family="FreeSans" font-size="10.00" fill="#000000">and it is unlikely they target</text>
<text text-anchor="middle" x="840" y="-498" font-family="FreeSans" font-size="10.00" fill="#000000">the city of Mindanao</text>
</g>
<!-- 610220 -->
<g id="node8" class="node">
<title>610220</title>
<polygon fill="#ffe6e6" stroke="#cc6666" points="788,-444 711.3208,-426 788,-408 864.6792,-426 788,-444"/>
<text text-anchor="middle" x="788" y="-423.5" font-family="FreeSans" font-size="10.00" fill="#000000">Default Conflict</text>
</g>
<!-- 610181&#45;&gt;610220 -->
<g id="edge4" class="edge">
<title>610181&#45;&gt;610220</title>
<path fill="none" stroke="#000000" d="M824.9594,-490.679C817.7887,-478.1302 809.2566,-463.1991 802.1978,-450.8461"/>
<polygon fill="#000000" stroke="#000000" points="805.1343,-448.9304 797.134,-441.9845 799.0566,-452.4034 805.1343,-448.9304"/>
</g>
<!-- 610219 -->
<g id="node20" class="node">
<title>610219</title>
<polygon fill="#ebf3ff" stroke="#6666cc" points="863.5,-361 712.5,-361 712.5,-309 863.5,-309 863.5,-361"/>
<text text-anchor="middle" x="788" y="-349" font-family="FreeSans" font-size="10.00" fill="#000000">returning foreign fighters or</text>
<text text-anchor="middle" x="788" y="-338" font-family="FreeSans" font-size="10.00" fill="#000000">new recruits travel by boat</text>
<text text-anchor="middle" x="788" y="-327" font-family="FreeSans" font-size="10.00" fill="#000000">and it is likely they target</text>
<text text-anchor="middle" x="788" y="-316" font-family="FreeSans" font-size="10.00" fill="#000000">the city of Mindanao</text>
</g>
<!-- 610220&#45;&gt;610219 -->
<g id="edge19" class="edge">
<title>610220&#45;&gt;610219</title>
<path fill="none" stroke="#000000" d="M788,-407.5848C788,-397.1979 788,-383.8502 788,-371.4397"/>
<polygon fill="#000000" stroke="#000000" points="791.5001,-371.3209 788,-361.321 784.5001,-371.321 791.5001,-371.3209"/>
</g>
<!-- 610188 -->
<g id="node10" class="node">
<title>610188</title>
<polygon fill="#ffe6e6" stroke="#cc6666" points="133,-262 56.3208,-244 133,-226 209.6792,-244 133,-262"/>
<text text-anchor="middle" x="133" y="-241.5" font-family="FreeSans" font-size="10.00" fill="#000000">Default Conflict</text>
</g>
<!-- 610185&#45;&gt;610188 -->
<g id="edge5" class="edge">
<title>610185&#45;&gt;610188</title>
<path fill="none" stroke="#000000" d="M108.6763,-297.9868C112.9288,-288.5483 117.4089,-278.6047 121.3492,-269.8592"/>
<polygon fill="#000000" stroke="#000000" points="124.6108,-271.1401 125.5276,-260.585 118.2287,-268.2646 124.6108,-271.1401"/>
</g>
<!-- 610188&#45;&gt;610172 -->
<g id="edge7" class="edge">
<title>610188&#45;&gt;610172</title>
<path fill="none" stroke="#000000" d="M155.0798,-256.9953C168.797,-266.4373 185.2459,-280.5893 193,-298 219.9092,-358.4209 196.9866,-436.7513 179.1341,-481.4886"/>
<polygon fill="#000000" stroke="#000000" points="175.8821,-480.1942 175.3079,-490.7735 182.3541,-482.8613 175.8821,-480.1942"/>
</g>
<!-- 610192 -->
<g id="node11" class="node">
<title>610192</title>
<polygon fill="#ebf3ff" stroke="#6666cc" points="1096.5,-543 935.5,-543 935.5,-491 1096.5,-491 1096.5,-543"/>
<text text-anchor="middle" x="1016" y="-531" font-family="FreeSans" font-size="10.00" fill="#000000">the relationship between</text>
<text text-anchor="middle" x="1016" y="-520" font-family="FreeSans" font-size="10.00" fill="#000000">Target A (AIZAD) and Target B</text>
<text text-anchor="middle" x="1016" y="-509" font-family="FreeSans" font-size="10.00" fill="#000000">(MANGUNSONG) remains an</text>
<text text-anchor="middle" x="1016" y="-498" font-family="FreeSans" font-size="10.00" fill="#000000">intelligence gap</text>
</g>
<!-- 610199 -->
<g id="node13" class="node">
<title>610199</title>
<polygon fill="#ffe6e6" stroke="#cc6666" points="458,-113 381.3208,-95 458,-77 534.6792,-95 458,-113"/>
<text text-anchor="middle" x="458" y="-92.5" font-family="FreeSans" font-size="10.00" fill="#000000">Default Conflict</text>
</g>
<!-- 610196&#45;&gt;610199 -->
<g id="edge8" class="edge">
<title>610196&#45;&gt;610199</title>
<path fill="none" stroke="#000000" d="M378.3492,-148.9453C394.446,-138.0434 414.0948,-124.7358 429.849,-114.0659"/>
<polygon fill="#000000" stroke="#000000" points="431.8364,-116.9471 438.1535,-108.4415 427.911,-111.1513 431.8364,-116.9471"/>
</g>
<!-- 610206 -->
<g id="node14" class="node">
<title>610206</title>
<polygon fill="#e6ffe6" stroke="#66cc66" points="279,-113 194.8359,-95 279,-77 363.1641,-95 279,-113"/>
<text text-anchor="middle" x="279" y="-92.5" font-family="FreeSans" font-size="10.00" fill="#000000">Default Inference</text>
</g>
<!-- 610196&#45;&gt;610206 -->
<g id="edge9" class="edge">
<title>610196&#45;&gt;610206</title>
<path fill="none" stroke="#000000" d="M328.7797,-148.7476C319.8437,-139.0993 309.1938,-127.6006 300.0422,-117.7195"/>
<polygon fill="#000000" stroke="#000000" points="302.4483,-115.1666 293.0854,-110.2081 297.3126,-119.9231 302.4483,-115.1666"/>
</g>
<!-- 610199&#45;&gt;610175 -->
<g id="edge11" class="edge">
<title>610199&#45;&gt;610175</title>
<path fill="none" stroke="#000000" d="M459.1376,-112.8221C460.4248,-144.4951 459.8099,-211.9592 436,-262 427.8575,-279.113 414.1942,-294.8516 401.1645,-307.299"/>
<polygon fill="#000000" stroke="#000000" points="398.6114,-304.8916 393.6125,-314.233 403.3457,-310.0478 398.6114,-304.8916"/>
</g>
<!-- 610203 -->
<g id="node15" class="node">
<title>610203</title>
<polygon fill="#ebf3ff" stroke="#6666cc" points="360.5,-41 197.5,-41 197.5,0 360.5,0 360.5,-41"/>
<text text-anchor="middle" x="279" y="-29" font-family="FreeSans" font-size="10.00" fill="#000000">Target A (AIZAD) remains an</text>
<text text-anchor="middle" x="279" y="-18" font-family="FreeSans" font-size="10.00" fill="#000000">ongoing security risk to the</text>
<text text-anchor="middle" x="279" y="-7" font-family="FreeSans" font-size="10.00" fill="#000000">region of Southern Philippines</text>
</g>
<!-- 610206&#45;&gt;610203 -->
<g id="edge12" class="edge">
<title>610206&#45;&gt;610203</title>
<path fill="none" stroke="#000000" d="M279,-76.9656C279,-69.3118 279,-60.1674 279,-51.4898"/>
<polygon fill="#000000" stroke="#000000" points="282.5001,-51.2678 279,-41.2679 275.5001,-51.2679 282.5001,-51.2678"/>
</g>
<!-- 610209 -->
<g id="node16" class="node">
<title>610209</title>
<polygon fill="#ebf3ff" stroke="#6666cc" points="444,-543 290,-543 290,-491 444,-491 444,-543"/>
<text text-anchor="middle" x="367" y="-531" font-family="FreeSans" font-size="10.00" fill="#000000">the motivation of Target A</text>
<text text-anchor="middle" x="367" y="-520" font-family="FreeSans" font-size="10.00" fill="#000000">(AIZAD) to commit an act of</text>
<text text-anchor="middle" x="367" y="-509" font-family="FreeSans" font-size="10.00" fill="#000000">terrorism in Philippines</text>
<text text-anchor="middle" x="367" y="-498" font-family="FreeSans" font-size="10.00" fill="#000000">remains an intelligence gap</text>
</g>
<!-- 610210 -->
<g id="node17" class="node">
<title>610210</title>
<polygon fill="#e6ffe6" stroke="#66cc66" points="367,-444 282.8359,-426 367,-408 451.1641,-426 367,-444"/>
<text text-anchor="middle" x="367" y="-423.5" font-family="FreeSans" font-size="10.00" fill="#000000">Default Inference</text>
</g>
<!-- 610209&#45;&gt;610210 -->
<g id="edge13" class="edge">
<title>610209&#45;&gt;610210</title>
<path fill="none" stroke="#000000" d="M367,-490.679C367,-479.2654 367,-465.8809 367,-454.258"/>
<polygon fill="#000000" stroke="#000000" points="370.5001,-454.1862 367,-444.1863 363.5001,-454.1863 370.5001,-454.1862"/>
</g>
<!-- 610210&#45;&gt;610175 -->
<g id="edge14" class="edge">
<title>610210&#45;&gt;610175</title>
<path fill="none" stroke="#000000" d="M367,-407.5848C367,-395.5831 367,-379.6283 367,-365.734"/>
<polygon fill="#000000" stroke="#000000" points="370.5001,-365.6102 367,-355.6102 363.5001,-365.6102 370.5001,-365.6102"/>
</g>
<!-- 610216 -->
<g id="node19" class="node">
<title>610216</title>
<polygon fill="#ffe6e6" stroke="#cc6666" points="586,-262 509.3208,-244 586,-226 662.6792,-244 586,-262"/>
<text text-anchor="middle" x="586" y="-241.5" font-family="FreeSans" font-size="10.00" fill="#000000">Default Conflict</text>
</g>
<!-- 610213&#45;&gt;610216 -->
<g id="edge15" class="edge">
<title>610213&#45;&gt;610216</title>
<path fill="none" stroke="#000000" d="M576.5078,-297.9868C578.0651,-289.1296 579.7006,-279.8276 581.1669,-271.4882"/>
<polygon fill="#000000" stroke="#000000" points="584.6304,-272.0008 582.915,-261.5457 577.7362,-270.7885 584.6304,-272.0008"/>
</g>
<!-- 610216&#45;&gt;610179 -->
<g id="edge17" class="edge">
<title>610216&#45;&gt;610179</title>
<path fill="none" stroke="#000000" d="M614.4958,-255.3933C632.2403,-264.1588 653.6043,-278.159 664,-298 694.1267,-355.4988 685.4413,-384.2801 660,-444 655.7382,-454.0039 649.4771,-463.4915 642.4535,-472.1144"/>
<polygon fill="#000000" stroke="#000000" points="639.7181,-469.9268 635.8245,-479.7803 645.013,-474.5055 639.7181,-469.9268"/>
</g>
<!-- 610221 -->
<g id="node21" class="node">
<title>610221</title>
<polygon fill="#ffe6e6" stroke="#cc6666" points="840,-262 763.3208,-244 840,-226 916.6792,-244 840,-262"/>
<text text-anchor="middle" x="840" y="-241.5" font-family="FreeSans" font-size="10.00" fill="#000000">Default Conflict</text>
</g>
<!-- 610219&#45;&gt;610221 -->
<g id="edge18" class="edge">
<title>610219&#45;&gt;610221</title>
<path fill="none" stroke="#000000" d="M803.0406,-308.679C810.2113,-296.1302 818.7434,-281.1991 825.8022,-268.8461"/>
<polygon fill="#000000" stroke="#000000" points="828.9434,-270.4034 830.866,-259.9845 822.8657,-266.9304 828.9434,-270.4034"/>
</g>
<!-- 610221&#45;&gt;610181 -->
<g id="edge20" class="edge">
<title>610221&#45;&gt;610181</title>
<path fill="none" stroke="#000000" d="M852.5799,-259.4593C860.0964,-269.7142 868.948,-283.846 873,-298 888.8233,-353.2728 879.6623,-418.4316 874,-444 871.1377,-456.9249 865.7414,-470.2756 860.0771,-481.9687"/>
<polygon fill="#000000" stroke="#000000" points="856.9231,-480.4497 855.5204,-490.9513 863.1658,-483.6166 856.9231,-480.4497"/>
</g>
<!-- 610225 -->
<g id="node22" class="node">
<title>610225</title>
<polygon fill="#ebf3ff" stroke="#6666cc" points="1273.5,-543 1114.5,-543 1114.5,-491 1273.5,-491 1273.5,-543"/>
<text text-anchor="middle" x="1194" y="-531" font-family="FreeSans" font-size="10.00" fill="#000000">Southern Philippines remains</text>
<text text-anchor="middle" x="1194" y="-520" font-family="FreeSans" font-size="10.00" fill="#000000">an attractive target for</text>
<text text-anchor="middle" x="1194" y="-509" font-family="FreeSans" font-size="10.00" fill="#000000">Islamist extremist groups for</text>
<text text-anchor="middle" x="1194" y="-498" font-family="FreeSans" font-size="10.00" fill="#000000">acts of terrorism</text>
</g>
</g>
</svg>
