<?xml version="1.0" encoding="UTF-8" standalone="no"?>
<!DOCTYPE svg PUBLIC "-//W3C//DTD SVG 1.1//EN"
 "http://www.w3.org/Graphics/SVG/1.1/DTD/svg11.dtd">
<!-- Generated by graphviz version 2.40.1 (20161225.0304)
 -->
<!-- Title: nodeset6095 Pages: 1 -->
<svg width="807pt" height="1005pt"
 viewBox="0.00 0.00 807.16 1005.00" xmlns="http://www.w3.org/2000/svg" xmlns:xlink="http://www.w3.org/1999/xlink">
<g id="graph0" class="graph" transform="scale(1 1) rotate(0) translate(4 1001)">
<title>nodeset6095</title>
<polygon fill="#ffffff" stroke="transparent" points="-4,4 -4,-1001 803.164,-1001 803.164,4 -4,4"/>
<!-- 7514 -->
<g id="node1" class="node">
<title>7514</title>
<polygon fill="#ebf3ff" stroke="#6666cc" points="473.582,-688 322.582,-688 322.582,-652 473.582,-652 473.582,-688"/>
<text text-anchor="middle" x="398.082" y="-667.5" font-family="FreeSans" font-size="10.00" fill="#000000">They do bear responsibility.</text>
</g>
<!-- 112626 -->
<g id="node2" class="node">
<title>112626</title>
<polygon fill="#e6ffe6" stroke="#66cc66" points="398.082,-616 313.9179,-598 398.082,-580 482.2461,-598 398.082,-616"/>
<text text-anchor="middle" x="398.082" y="-595.5" font-family="FreeSans" font-size="10.00" fill="#000000">Default Inference</text>
</g>
<!-- 7514&#45;&gt;112626 -->
<g id="edge1" class="edge">
<title>7514&#45;&gt;112626</title>
<path fill="none" stroke="#000000" d="M398.082,-651.8314C398.082,-644.131 398.082,-634.9743 398.082,-626.4166"/>
<polygon fill="#000000" stroke="#000000" points="401.5821,-626.4132 398.082,-616.4133 394.5821,-626.4133 401.5821,-626.4132"/>
</g>
<!-- 27848 -->
<g id="node22" class="node">
<title>27848</title>
<polygon fill="#ebf3ff" stroke="#6666cc" points="456.582,-508.5 339.582,-508.5 339.582,-472.5 456.582,-472.5 456.582,-508.5"/>
<text text-anchor="middle" x="398.082" y="-493.5" font-family="FreeSans" font-size="10.00" fill="#000000">that isn&#39;t a source of</text>
<text text-anchor="middle" x="398.082" y="-482.5" font-family="FreeSans" font-size="10.00" fill="#000000">injustice</text>
</g>
<!-- 112626&#45;&gt;27848 -->
<g id="edge26" class="edge">
<title>112626&#45;&gt;27848</title>
<path fill="none" stroke="#000000" d="M398.082,-579.7641C398.082,-563.0849 398.082,-538.1475 398.082,-518.8666"/>
<polygon fill="#000000" stroke="#000000" points="401.5821,-518.8253 398.082,-508.8254 394.5821,-518.8254 401.5821,-518.8253"/>
</g>
<!-- 25709 -->
<g id="node3" class="node">
<title>25709</title>
<polygon fill="#ebf3ff" stroke="#6666cc" points="713.082,-989 583.082,-989 583.082,-953 713.082,-953 713.082,-989"/>
<text text-anchor="middle" x="648.082" y="-968.5" font-family="FreeSans" font-size="10.00" fill="#000000">there are living victims</text>
</g>
<!-- 25710 -->
<g id="node4" class="node">
<title>25710</title>
<polygon fill="#ebf3ff" stroke="#6666cc" points="594.582,-36 463.582,-36 463.582,0 594.582,0 594.582,-36"/>
<text text-anchor="middle" x="529.082" y="-21" font-family="FreeSans" font-size="10.00" fill="#000000">they were treated in an</text>
<text text-anchor="middle" x="529.082" y="-10" font-family="FreeSans" font-size="10.00" fill="#000000">appalling way</text>
</g>
<!-- 25723 -->
<g id="node5" class="node">
<title>25723</title>
<polygon fill="#ebf3ff" stroke="#6666cc" points="591.082,-326.5 467.082,-326.5 467.082,-290.5 591.082,-290.5 591.082,-326.5"/>
<text text-anchor="middle" x="529.082" y="-311.5" font-family="FreeSans" font-size="10.00" fill="#000000">there&#39;s no statute of</text>
<text text-anchor="middle" x="529.082" y="-300.5" font-family="FreeSans" font-size="10.00" fill="#000000">limitations for murder</text>
</g>
<!-- 112575 -->
<g id="node6" class="node">
<title>112575</title>
<polygon fill="#e6ffe6" stroke="#66cc66" points="529.082,-252 502.082,-234 529.082,-216 556.082,-234 529.082,-252"/>
<text text-anchor="middle" x="529.082" y="-231.5" font-family="FreeSans" font-size="10.00" fill="#000000">RA</text>
</g>
<!-- 25723&#45;&gt;112575 -->
<g id="edge2" class="edge">
<title>25723&#45;&gt;112575</title>
<path fill="none" stroke="#000000" d="M529.082,-290.4656C529.082,-282.0178 529.082,-271.7542 529.082,-262.3064"/>
<polygon fill="#000000" stroke="#000000" points="532.5821,-262.1265 529.082,-252.1265 525.5821,-262.1265 532.5821,-262.1265"/>
</g>
<!-- 112570 -->
<g id="node27" class="node">
<title>112570</title>
<polygon fill="#ebf3ff" stroke="#6666cc" points="606.082,-180 452.082,-180 452.082,-144 606.082,-144 606.082,-180"/>
<text text-anchor="middle" x="529.082" y="-165" font-family="FreeSans" font-size="10.00" fill="#000000">ES has just muddled up civil</text>
<text text-anchor="middle" x="529.082" y="-154" font-family="FreeSans" font-size="10.00" fill="#000000">and criminal cases</text>
</g>
<!-- 112575&#45;&gt;112570 -->
<g id="edge14" class="edge">
<title>112575&#45;&gt;112570</title>
<path fill="none" stroke="#000000" d="M529.082,-215.8314C529.082,-208.131 529.082,-198.9743 529.082,-190.4166"/>
<polygon fill="#000000" stroke="#000000" points="532.5821,-190.4132 529.082,-180.4133 525.5821,-190.4133 532.5821,-190.4132"/>
</g>
<!-- 25726 -->
<g id="node7" class="node">
<title>25726</title>
<polygon fill="#ebf3ff" stroke="#6666cc" points="794.582,-544 635.582,-544 635.582,-437 794.582,-437 794.582,-544"/>
<text text-anchor="middle" x="715.082" y="-532" font-family="FreeSans" font-size="10.00" fill="#000000">if there are specific</text>
<text text-anchor="middle" x="715.082" y="-521" font-family="FreeSans" font-size="10.00" fill="#000000">perpetrators, if you have a</text>
<text text-anchor="middle" x="715.082" y="-510" font-family="FreeSans" font-size="10.00" fill="#000000">tyrant, if you have a group of</text>
<text text-anchor="middle" x="715.082" y="-499" font-family="FreeSans" font-size="10.00" fill="#000000">military officers who are</text>
<text text-anchor="middle" x="715.082" y="-488" font-family="FreeSans" font-size="10.00" fill="#000000">accused of committing a war</text>
<text text-anchor="middle" x="715.082" y="-477" font-family="FreeSans" font-size="10.00" fill="#000000">crime, then for sure, there</text>
<text text-anchor="middle" x="715.082" y="-466" font-family="FreeSans" font-size="10.00" fill="#000000">should be no statute of</text>
<text text-anchor="middle" x="715.082" y="-455" font-family="FreeSans" font-size="10.00" fill="#000000">limitations in prosecuting</text>
<text text-anchor="middle" x="715.082" y="-444" font-family="FreeSans" font-size="10.00" fill="#000000">them.</text>
</g>
<!-- 112606 -->
<g id="node8" class="node">
<title>112606</title>
<polygon fill="#eeeeee" stroke="#cccccc" points="715.082,-401 630.9179,-383 715.082,-365 799.2461,-383 715.082,-401"/>
<text text-anchor="middle" x="715.082" y="-380.5" font-family="FreeSans" font-size="10.00" fill="#000000">Default Rephrase</text>
</g>
<!-- 25726&#45;&gt;112606 -->
<g id="edge3" class="edge">
<title>25726&#45;&gt;112606</title>
<path fill="none" stroke="#000000" d="M715.082,-436.75C715.082,-427.9448 715.082,-419.1395 715.082,-411.2795"/>
<polygon fill="#000000" stroke="#000000" points="718.5821,-411.2359 715.082,-401.2359 711.5821,-411.2359 718.5821,-411.2359"/>
</g>
<!-- 112606&#45;&gt;25723 -->
<g id="edge20" class="edge">
<title>112606&#45;&gt;25723</title>
<path fill="none" stroke="#000000" d="M685.6098,-371.1953C658.2927,-360.2537 616.9681,-343.7017 583.6384,-330.3519"/>
<polygon fill="#000000" stroke="#000000" points="584.6075,-326.9698 574.0231,-326.5006 582.0048,-333.4679 584.6075,-326.9698"/>
</g>
<!-- 25734 -->
<g id="node9" class="node">
<title>25734</title>
<polygon fill="#ebf3ff" stroke="#6666cc" points="583.582,-508.5 474.582,-508.5 474.582,-472.5 583.582,-472.5 583.582,-508.5"/>
<text text-anchor="middle" x="529.082" y="-493.5" font-family="FreeSans" font-size="10.00" fill="#000000">You have a specific</text>
<text text-anchor="middle" x="529.082" y="-482.5" font-family="FreeSans" font-size="10.00" fill="#000000">perpetrator</text>
</g>
<!-- 112609 -->
<g id="node10" class="node">
<title>112609</title>
<polygon fill="#e6ffe6" stroke="#66cc66" points="529.082,-401 444.9179,-383 529.082,-365 613.2461,-383 529.082,-401"/>
<text text-anchor="middle" x="529.082" y="-380.5" font-family="FreeSans" font-size="10.00" fill="#000000">Default Inference</text>
</g>
<!-- 25734&#45;&gt;112609 -->
<g id="edge4" class="edge">
<title>25734&#45;&gt;112609</title>
<path fill="none" stroke="#000000" d="M529.082,-472.2641C529.082,-455.5849 529.082,-430.6475 529.082,-411.3666"/>
<polygon fill="#000000" stroke="#000000" points="532.5821,-411.3253 529.082,-401.3254 525.5821,-411.3254 532.5821,-411.3253"/>
</g>
<!-- 112609&#45;&gt;25723 -->
<g id="edge21" class="edge">
<title>112609&#45;&gt;25723</title>
<path fill="none" stroke="#000000" d="M529.082,-364.9656C529.082,-356.5178 529.082,-346.2542 529.082,-336.8064"/>
<polygon fill="#000000" stroke="#000000" points="532.5821,-336.6265 529.082,-326.6265 525.5821,-336.6265 532.5821,-336.6265"/>
</g>
<!-- 25753 -->
<g id="node11" class="node">
<title>25753</title>
<polygon fill="#ebf3ff" stroke="#6666cc" points="396.582,-326.5 247.582,-326.5 247.582,-290.5 396.582,-290.5 396.582,-326.5"/>
<text text-anchor="middle" x="322.082" y="-306" font-family="FreeSans" font-size="10.00" fill="#000000">that is a source of injustice</text>
</g>
<!-- 25761 -->
<g id="node12" class="node">
<title>25761</title>
<polygon fill="#ebf3ff" stroke="#6666cc" points="465.082,-837 331.082,-837 331.082,-796 465.082,-796 465.082,-837"/>
<text text-anchor="middle" x="398.082" y="-825" font-family="FreeSans" font-size="10.00" fill="#000000">those liabilities actually</text>
<text text-anchor="middle" x="398.082" y="-814" font-family="FreeSans" font-size="10.00" fill="#000000">transferred back to the</text>
<text text-anchor="middle" x="398.082" y="-803" font-family="FreeSans" font-size="10.00" fill="#000000">British Government</text>
</g>
<!-- 112586 -->
<g id="node13" class="node">
<title>112586</title>
<polygon fill="#e6ffe6" stroke="#66cc66" points="398.082,-760 371.082,-742 398.082,-724 425.082,-742 398.082,-760"/>
<text text-anchor="middle" x="398.082" y="-739.5" font-family="FreeSans" font-size="10.00" fill="#000000">RA</text>
</g>
<!-- 25761&#45;&gt;112586 -->
<g id="edge5" class="edge">
<title>25761&#45;&gt;112586</title>
<path fill="none" stroke="#000000" d="M398.082,-795.7476C398.082,-787.8767 398.082,-778.7743 398.082,-770.3232"/>
<polygon fill="#000000" stroke="#000000" points="401.5821,-770.1086 398.082,-760.1087 394.5821,-770.1087 401.5821,-770.1086"/>
</g>
<!-- 112586&#45;&gt;7514 -->
<g id="edge15" class="edge">
<title>112586&#45;&gt;7514</title>
<path fill="none" stroke="#000000" d="M398.082,-723.8314C398.082,-716.131 398.082,-706.9743 398.082,-698.4166"/>
<polygon fill="#000000" stroke="#000000" points="401.5821,-698.4132 398.082,-688.4133 394.5821,-698.4133 401.5821,-698.4132"/>
</g>
<!-- 25771 -->
<g id="node14" class="node">
<title>25771</title>
<polygon fill="#ebf3ff" stroke="#6666cc" points="391.082,-997 229.082,-997 229.082,-945 391.082,-945 391.082,-997"/>
<text text-anchor="middle" x="310.082" y="-985" font-family="FreeSans" font-size="10.00" fill="#000000">that would be the view of the</text>
<text text-anchor="middle" x="310.082" y="-974" font-family="FreeSans" font-size="10.00" fill="#000000">claimants and their</text>
<text text-anchor="middle" x="310.082" y="-963" font-family="FreeSans" font-size="10.00" fill="#000000">representatives. And also the</text>
<text text-anchor="middle" x="310.082" y="-952" font-family="FreeSans" font-size="10.00" fill="#000000">current government of Kenya.</text>
</g>
<!-- 112592 -->
<g id="node15" class="node">
<title>112592</title>
<polygon fill="#e6ffe6" stroke="#66cc66" points="334.082,-909 307.082,-891 334.082,-873 361.082,-891 334.082,-909"/>
<text text-anchor="middle" x="334.082" y="-888.5" font-family="FreeSans" font-size="10.00" fill="#000000">RA</text>
</g>
<!-- 25771&#45;&gt;112592 -->
<g id="edge6" class="edge">
<title>25771&#45;&gt;112592</title>
<path fill="none" stroke="#000000" d="M317.9405,-944.805C320.7216,-935.5345 323.8411,-925.1365 326.5909,-915.9705"/>
<polygon fill="#000000" stroke="#000000" points="329.9795,-916.8551 329.5007,-906.2711 323.2747,-914.8436 329.9795,-916.8551"/>
</g>
<!-- 112592&#45;&gt;25761 -->
<g id="edge17" class="edge">
<title>112592&#45;&gt;25761</title>
<path fill="none" stroke="#000000" d="M344.082,-879.3594C352.0416,-870.0939 363.5209,-856.7313 373.8507,-844.7067"/>
<polygon fill="#000000" stroke="#000000" points="376.5629,-846.9208 380.4243,-837.0547 371.2531,-842.3593 376.5629,-846.9208"/>
</g>
<!-- 25995 -->
<g id="node16" class="node">
<title>25995</title>
<polygon fill="#ebf3ff" stroke="#6666cc" points="763.082,-326.5 609.082,-326.5 609.082,-290.5 763.082,-290.5 763.082,-326.5"/>
<text text-anchor="middle" x="686.082" y="-311.5" font-family="FreeSans" font-size="10.00" fill="#000000">here you don&#39;t have specific</text>
<text text-anchor="middle" x="686.082" y="-300.5" font-family="FreeSans" font-size="10.00" fill="#000000">perpetrators.</text>
</g>
<!-- 112612 -->
<g id="node17" class="node">
<title>112612</title>
<polygon fill="#e6ffe6" stroke="#66cc66" points="672.082,-252 587.9179,-234 672.082,-216 756.2461,-234 672.082,-252"/>
<text text-anchor="middle" x="672.082" y="-231.5" font-family="FreeSans" font-size="10.00" fill="#000000">Default Inference</text>
</g>
<!-- 25995&#45;&gt;112612 -->
<g id="edge7" class="edge">
<title>25995&#45;&gt;112612</title>
<path fill="none" stroke="#000000" d="M682.693,-290.4656C681.0528,-281.7372 679.0483,-271.0704 677.225,-261.3678"/>
<polygon fill="#000000" stroke="#000000" points="680.6301,-260.5368 675.3434,-251.3553 673.7506,-261.8297 680.6301,-260.5368"/>
</g>
<!-- 112612&#45;&gt;112570 -->
<g id="edge22" class="edge">
<title>112612&#45;&gt;112570</title>
<path fill="none" stroke="#000000" d="M646.8457,-221.2936C626.725,-211.1629 598.0385,-196.7194 574.0161,-184.6242"/>
<polygon fill="#000000" stroke="#000000" points="575.571,-181.4885 565.0652,-180.1174 572.423,-187.7407 575.571,-181.4885"/>
</g>
<!-- 25996 -->
<g id="node18" class="node">
<title>25996</title>
<polygon fill="#ebf3ff" stroke="#6666cc" points="223.582,-329 60.582,-329 60.582,-288 223.582,-288 223.582,-329"/>
<text text-anchor="middle" x="142.082" y="-317" font-family="FreeSans" font-size="10.00" fill="#000000">What&#39;s happening in this case</text>
<text text-anchor="middle" x="142.082" y="-306" font-family="FreeSans" font-size="10.00" fill="#000000">is not the prosecution of a</text>
<text text-anchor="middle" x="142.082" y="-295" font-family="FreeSans" font-size="10.00" fill="#000000">crime</text>
</g>
<!-- 112614 -->
<g id="node19" class="node">
<title>112614</title>
<polygon fill="#e6ffe6" stroke="#66cc66" points="245.082,-252 160.9179,-234 245.082,-216 329.2461,-234 245.082,-252"/>
<text text-anchor="middle" x="245.082" y="-231.5" font-family="FreeSans" font-size="10.00" fill="#000000">Default Inference</text>
</g>
<!-- 25996&#45;&gt;112614 -->
<g id="edge8" class="edge">
<title>25996&#45;&gt;112614</title>
<path fill="none" stroke="#000000" d="M170.4999,-287.9453C185.2337,-277.2883 203.1456,-264.3326 217.7227,-253.789"/>
<polygon fill="#000000" stroke="#000000" points="219.8194,-256.5921 225.8708,-247.8955 215.7169,-250.9202 219.8194,-256.5921"/>
</g>
<!-- 112614&#45;&gt;112570 -->
<g id="edge23" class="edge">
<title>112614&#45;&gt;112570</title>
<path fill="none" stroke="#000000" d="M283.6791,-224.2148C325.7264,-213.5549 394.1927,-196.1973 448.1378,-182.5211"/>
<polygon fill="#000000" stroke="#000000" points="449.1987,-185.8629 458.0319,-180.0127 447.4784,-179.0776 449.1987,-185.8629"/>
</g>
<!-- 25998 -->
<g id="node20" class="node">
<title>25998</title>
<polygon fill="#ebf3ff" stroke="#6666cc" points="564.582,-989 409.582,-989 409.582,-953 564.582,-953 564.582,-989"/>
<text text-anchor="middle" x="487.082" y="-974" font-family="FreeSans" font-size="10.00" fill="#000000">that would not be the British</text>
<text text-anchor="middle" x="487.082" y="-963" font-family="FreeSans" font-size="10.00" fill="#000000">Government&#39;s view</text>
</g>
<!-- 112589 -->
<g id="node21" class="node">
<title>112589</title>
<polygon fill="#eeeeee" stroke="#cccccc" points="475.082,-909 390.9179,-891 475.082,-873 559.2461,-891 475.082,-909"/>
<text text-anchor="middle" x="475.082" y="-888.5" font-family="FreeSans" font-size="10.00" fill="#000000">Default Rephrase</text>
</g>
<!-- 25998&#45;&gt;112589 -->
<g id="edge9" class="edge">
<title>25998&#45;&gt;112589</title>
<path fill="none" stroke="#000000" d="M484.359,-952.8468C482.8343,-942.6816 480.9022,-929.8012 479.1964,-918.4296"/>
<polygon fill="#000000" stroke="#000000" points="482.6565,-917.9018 477.7117,-908.5316 475.734,-918.9402 482.6565,-917.9018"/>
</g>
<!-- 112589&#45;&gt;25761 -->
<g id="edge16" class="edge">
<title>112589&#45;&gt;25761</title>
<path fill="none" stroke="#000000" d="M459.4999,-875.9238C450.1452,-866.8728 437.9523,-855.0758 426.8983,-844.3807"/>
<polygon fill="#000000" stroke="#000000" points="429.097,-841.6379 419.4765,-837.1998 424.2295,-846.6687 429.097,-841.6379"/>
</g>
<!-- 112597 -->
<g id="node23" class="node">
<title>112597</title>
<polygon fill="#ffe6e6" stroke="#cc6666" points="399.082,-401 372.082,-383 399.082,-365 426.082,-383 399.082,-401"/>
<text text-anchor="middle" x="399.082" y="-380.5" font-family="FreeSans" font-size="10.00" fill="#000000">CA</text>
</g>
<!-- 27848&#45;&gt;112597 -->
<g id="edge10" class="edge">
<title>27848&#45;&gt;112597</title>
<path fill="none" stroke="#000000" d="M398.2516,-472.2641C398.4077,-455.4838 398.6416,-430.3449 398.8214,-411.0167"/>
<polygon fill="#000000" stroke="#000000" points="402.3216,-410.9988 398.9149,-400.9666 395.3219,-410.9336 402.3216,-410.9988"/>
</g>
<!-- 112597&#45;&gt;25753 -->
<g id="edge18" class="edge">
<title>112597&#45;&gt;25753</title>
<path fill="none" stroke="#000000" d="M388.0498,-372.326C377.6641,-362.2775 361.714,-346.8453 348.0993,-333.6726"/>
<polygon fill="#000000" stroke="#000000" points="350.4465,-331.0735 340.826,-326.6354 345.5791,-336.1043 350.4465,-331.0735"/>
</g>
<!-- 27889 -->
<g id="node24" class="node">
<title>27889</title>
<polygon fill="#ebf3ff" stroke="#6666cc" points="244.082,-522 82.082,-522 82.082,-459 244.082,-459 244.082,-522"/>
<text text-anchor="middle" x="163.082" y="-510" font-family="FreeSans" font-size="10.00" fill="#000000">it is a claim for compensation</text>
<text text-anchor="middle" x="163.082" y="-499" font-family="FreeSans" font-size="10.00" fill="#000000">against the present</text>
<text text-anchor="middle" x="163.082" y="-488" font-family="FreeSans" font-size="10.00" fill="#000000">government, which had no</text>
<text text-anchor="middle" x="163.082" y="-477" font-family="FreeSans" font-size="10.00" fill="#000000">responsibility for what</text>
<text text-anchor="middle" x="163.082" y="-466" font-family="FreeSans" font-size="10.00" fill="#000000">happened</text>
</g>
<!-- 112620 -->
<g id="node25" class="node">
<title>112620</title>
<polygon fill="#e6ffe6" stroke="#66cc66" points="84.082,-401 -.0821,-383 84.082,-365 168.2461,-383 84.082,-401"/>
<text text-anchor="middle" x="84.082" y="-380.5" font-family="FreeSans" font-size="10.00" fill="#000000">Default Inference</text>
</g>
<!-- 27889&#45;&gt;112620 -->
<g id="edge11" class="edge">
<title>27889&#45;&gt;112620</title>
<path fill="none" stroke="#000000" d="M139.8067,-458.8279C127.6318,-442.2607 112.9678,-422.3066 101.7389,-407.0268"/>
<polygon fill="#000000" stroke="#000000" points="104.3114,-404.6169 95.5693,-398.6314 98.6707,-408.7622 104.3114,-404.6169"/>
</g>
<!-- 112623 -->
<g id="node26" class="node">
<title>112623</title>
<polygon fill="#e6ffe6" stroke="#66cc66" points="270.082,-401 185.9179,-383 270.082,-365 354.2461,-383 270.082,-401"/>
<text text-anchor="middle" x="270.082" y="-380.5" font-family="FreeSans" font-size="10.00" fill="#000000">Default Inference</text>
</g>
<!-- 27889&#45;&gt;112623 -->
<g id="edge12" class="edge">
<title>27889&#45;&gt;112623</title>
<path fill="none" stroke="#000000" d="M194.6068,-458.8279C211.7712,-441.5833 232.5881,-420.6691 248.0086,-405.1765"/>
<polygon fill="#000000" stroke="#000000" points="250.5316,-407.6031 255.1056,-398.0464 245.5703,-402.6649 250.5316,-407.6031"/>
</g>
<!-- 112620&#45;&gt;25996 -->
<g id="edge24" class="edge">
<title>112620&#45;&gt;25996</title>
<path fill="none" stroke="#000000" d="M96.0996,-367.5636C102.9593,-358.7525 111.7762,-347.4273 119.8514,-337.0549"/>
<polygon fill="#000000" stroke="#000000" points="122.7356,-339.0476 126.1169,-329.0069 117.2121,-334.7475 122.7356,-339.0476"/>
</g>
<!-- 112623&#45;&gt;25753 -->
<g id="edge25" class="edge">
<title>112623&#45;&gt;25753</title>
<path fill="none" stroke="#000000" d="M281.1099,-367.2005C287.6496,-357.8311 296.1063,-345.7151 303.6371,-334.9259"/>
<polygon fill="#000000" stroke="#000000" points="306.5702,-336.8388 309.4237,-326.6354 300.8301,-332.8323 306.5702,-336.8388"/>
</g>
<!-- 112603 -->
<g id="node28" class="node">
<title>112603</title>
<polygon fill="#eeeeee" stroke="#cccccc" points="529.082,-108 444.9179,-90 529.082,-72 613.2461,-90 529.082,-108"/>
<text text-anchor="middle" x="529.082" y="-87.5" font-family="FreeSans" font-size="10.00" fill="#000000">Default Rephrase</text>
</g>
<!-- 112570&#45;&gt;112603 -->
<g id="edge13" class="edge">
<title>112570&#45;&gt;112603</title>
<path fill="none" stroke="#000000" d="M529.082,-143.8314C529.082,-136.131 529.082,-126.9743 529.082,-118.4166"/>
<polygon fill="#000000" stroke="#000000" points="532.5821,-118.4132 529.082,-108.4133 525.5821,-118.4133 532.5821,-118.4132"/>
</g>
<!-- 112603&#45;&gt;25710 -->
<g id="edge19" class="edge">
<title>112603&#45;&gt;25710</title>
<path fill="none" stroke="#000000" d="M529.082,-71.8314C529.082,-64.131 529.082,-54.9743 529.082,-46.4166"/>
<polygon fill="#000000" stroke="#000000" points="532.5821,-46.4132 529.082,-36.4133 525.5821,-46.4133 532.5821,-46.4132"/>
</g>
</g>
</svg>
